<svg width="178" height="40" viewBox="0 0 178 40" fill="none" xmlns="http://www.w3.org/2000/svg">
<g clip-path="url(#clip0_682_326)">
<path d="M48.8871 8.58256H46.5219V9.82887H48.5869C48.7689 9.82887 48.9235 9.92894 48.9235 10.0563V10.493C48.9235 10.6112 48.7689 10.7204 48.5869 10.7204H46.5219V12.8855C46.5219 13.0038 46.3672 13.1129 46.1853 13.1129H45.2392C45.0572 13.1129 44.9026 13.0129 44.9026 12.8855V7.90028C44.9026 7.78202 45.0572 7.67285 45.2392 7.67285H48.8871C49.0691 7.67285 49.2237 7.78202 49.2237 7.90028V8.37333C49.2237 8.49159 49.0691 8.60076 48.8871 8.60076V8.58256Z" fill="#231F20"/>
<path d="M58.4664 9.22828C58.4664 9.62855 58.0934 9.96514 57.4111 9.96514H56.6743V8.58238H57.5294C58.2026 8.58238 58.4664 8.94627 58.4664 9.22828ZM60.677 12.7852C60.4769 12.4396 59.8947 11.4571 59.6036 11.0568C59.367 10.7293 58.9304 10.4928 58.5119 10.42C59.5126 10.2744 60.113 9.81049 60.113 9.10092C60.113 8.5278 59.6763 7.66357 57.584 7.66357H55.3825C55.2006 7.66357 55.0459 7.77274 55.0459 7.8819V12.8853C55.0459 12.9945 55.2006 13.1036 55.3825 13.1036H56.3286C56.5105 13.1036 56.6652 13.0036 56.6652 12.8853V10.7748H56.9745C58.1025 10.7748 58.4937 12.1303 58.8485 12.8398C58.9577 13.04 59.1396 13.0945 59.3761 13.0945H60.4223C60.7498 13.0945 60.768 12.9672 60.6588 12.7852H60.677Z" fill="#231F20"/>
<path d="M70.138 13.0949H66.2262C66.0443 13.0949 65.8896 12.9948 65.8896 12.8674V7.88221C65.8896 7.76395 66.0443 7.65479 66.2262 7.65479H70.0288C70.2108 7.65479 70.3654 7.76395 70.3654 7.88221V8.35526C70.3654 8.47353 70.2108 8.58269 70.0288 8.58269H67.518V9.78351H69.7559C69.9379 9.78351 70.0925 9.88358 70.0925 10.0109V10.4476C70.0925 10.5659 69.9379 10.675 69.7559 10.675H67.518V12.1397H70.138C70.3199 12.1397 70.4746 12.2397 70.4746 12.3671V12.8765C70.4746 12.9948 70.3199 13.104 70.138 13.104V13.0949Z" fill="#231F20"/>
<path d="M80.3359 10.3566C80.3359 11.7394 79.9356 12.1851 78.7621 12.1851H78.2072V8.53721H78.8167C79.9629 8.53721 80.3359 9.16491 80.3359 10.3566ZM82.0098 10.3748C82.0098 7.94589 80.2267 7.65479 79.0896 7.65479H76.9245C76.7425 7.65479 76.5879 7.76395 76.5879 7.88221V12.8674C76.5879 12.9857 76.7425 13.0949 76.9245 13.0949H79.1715C81.4276 13.0949 82.0098 11.9577 82.0098 10.3748Z" fill="#231F20"/>
<path d="M92.1985 13.0949H88.2868C88.1048 13.0949 87.9502 12.9948 87.9502 12.8674V7.88221C87.9502 7.76395 88.1048 7.65479 88.2868 7.65479H92.0894C92.2713 7.65479 92.426 7.76395 92.426 7.88221V8.35526C92.426 8.47353 92.2713 8.58269 92.0894 8.58269H89.5786V9.78351H91.8165C91.9984 9.78351 92.1531 9.88358 92.1531 10.0109V10.4476C92.1531 10.5659 91.9984 10.675 91.8165 10.675H89.5786V12.1397H92.1985C92.3805 12.1397 92.5351 12.2397 92.5351 12.3671V12.8765C92.5351 12.9948 92.3805 13.104 92.1985 13.104V13.0949Z" fill="#231F20"/>
<path d="M102.06 9.22828C102.06 9.62855 101.687 9.96514 101.004 9.96514H100.268V8.58238H101.123C101.796 8.58238 102.06 8.94627 102.06 9.22828ZM104.27 12.7852C104.061 12.4396 103.488 11.4571 103.197 11.0568C102.96 10.7293 102.524 10.4928 102.105 10.42C103.106 10.2744 103.706 9.81049 103.706 9.10092C103.706 8.5278 103.27 7.66357 101.177 7.66357H98.9758C98.7938 7.66357 98.6392 7.77274 98.6392 7.8819V12.8853C98.6392 12.9945 98.7938 13.1036 98.9758 13.1036H99.9219C100.104 13.1036 100.258 13.0036 100.258 12.8853V10.7748H100.568C101.696 10.7748 102.087 12.1303 102.442 12.8398C102.551 13.04 102.733 13.0945 102.969 13.0945H104.016C104.343 13.0945 104.361 12.9672 104.252 12.7852H104.27Z" fill="#231F20"/>
<path d="M111.648 13.0949H110.647C110.465 13.0949 110.311 12.9948 110.311 12.8674V7.88221C110.311 7.76395 110.465 7.65479 110.647 7.65479H111.648C111.83 7.65479 111.985 7.76395 111.985 7.88221V12.8674C111.985 12.9857 111.83 13.0949 111.648 13.0949Z" fill="#231F20"/>
<path d="M123.665 13.0949H122.465C122.228 13.0949 122.046 13.0585 121.937 12.9129L120.045 10.4567V12.8765C120.045 12.9857 119.89 13.0949 119.708 13.0949H118.762C118.58 13.0949 118.426 12.9948 118.426 12.8765V7.87312C118.426 7.76395 118.58 7.65479 118.762 7.65479H119.708C119.89 7.65479 120.045 7.76395 120.045 7.87312V9.8199L121.864 7.83673C122.001 7.69117 122.155 7.65479 122.392 7.65479H123.484C123.747 7.65479 123.847 7.80034 123.684 7.95499L121.491 10.0928L123.857 12.7947C124.011 12.9675 123.92 13.0949 123.656 13.0949H123.665Z" fill="#231F20"/>
<path d="M131.298 13.1492C130.561 13.1492 129.797 13.0491 129.242 12.9036C129.087 12.8672 129.015 12.7398 129.051 12.6307L129.224 12.1303C129.26 12.0121 129.479 11.9575 129.642 11.9939C130.134 12.103 130.643 12.2304 131.243 12.2304C131.844 12.2304 132.39 12.0667 132.39 11.6209C132.39 11.0114 131.389 10.8476 130.516 10.5565C129.779 10.3109 129.124 9.95612 129.124 9.16467C129.124 8.28225 130.088 7.61816 131.598 7.61816C132.262 7.61816 132.826 7.70914 133.281 7.8274C133.463 7.87288 133.481 7.98205 133.445 8.09121L133.281 8.56426C133.245 8.67343 133.108 8.73711 132.899 8.68253C132.535 8.59156 132.235 8.50058 131.653 8.50058C131.098 8.50058 130.707 8.72801 130.707 9.11009C130.707 9.49217 131.234 9.61043 131.835 9.81057C132.854 10.1472 134 10.4747 134 11.5299C134 12.5852 132.872 13.1765 131.316 13.1765L131.298 13.1492Z" fill="#231F20"/>
<path d="M142.724 9.174C142.724 9.53789 142.36 9.8199 141.705 9.8199H140.895V8.52811H141.732C142.406 8.52811 142.715 8.78283 142.715 9.174H142.724ZM144.716 11.5393C144.716 10.8934 144.152 10.3748 143.188 10.1929C144.016 9.96545 144.352 9.60157 144.352 9.08303C144.352 8.27339 143.543 7.65479 142.142 7.65479H139.604C139.422 7.65479 139.267 7.76395 139.267 7.87312V12.8765C139.267 12.9857 139.422 13.0949 139.604 13.0949H142.306C143.879 13.0949 144.707 12.5217 144.707 11.5393H144.716ZM142.997 11.4028C142.997 11.8577 142.588 12.176 141.978 12.176H140.895V10.6568H141.805C142.551 10.6568 142.997 11.0298 142.997 11.4119V11.4028Z" fill="#231F20"/>
<path d="M154.323 13.0949H150.42C150.238 13.0949 150.083 12.9948 150.083 12.8674V7.88221C150.083 7.76395 150.238 7.65479 150.42 7.65479H154.223C154.405 7.65479 154.559 7.76395 154.559 7.88221V8.35526C154.559 8.47353 154.405 8.58269 154.223 8.58269H151.712V9.78351H153.95C154.132 9.78351 154.286 9.88358 154.286 10.0109V10.4476C154.286 10.5659 154.132 10.675 153.95 10.675H151.712V12.1397H154.332C154.514 12.1397 154.668 12.2397 154.668 12.3671V12.8765C154.668 12.9948 154.514 13.104 154.332 13.104L154.323 13.0949Z" fill="#231F20"/>
<path d="M164.184 9.22828C164.184 9.62855 163.811 9.96514 163.129 9.96514H162.392V8.58238H163.247C163.92 8.58238 164.184 8.94627 164.184 9.22828ZM166.404 12.7852C166.195 12.4396 165.621 11.4571 165.33 11.0568C165.094 10.7293 164.657 10.4928 164.239 10.42C165.239 10.2744 165.84 9.81049 165.84 9.10092C165.84 8.5278 165.403 7.66357 163.32 7.66357H161.118C160.936 7.66357 160.782 7.77274 160.782 7.8819V12.8853C160.782 12.9945 160.936 13.1036 161.118 13.1036H162.064C162.246 13.1036 162.401 13.0036 162.401 12.8853V10.7748H162.71C163.838 10.7748 164.22 12.1303 164.584 12.8398C164.693 13.04 164.875 13.0945 165.112 13.0945H166.158C166.486 13.0945 166.504 12.9672 166.404 12.7852Z" fill="#231F20"/>
<path d="M176.692 12.9583C176.219 13.0584 175.601 13.1493 174.937 13.1493C172.353 13.1493 171.507 11.9667 171.507 10.3565C171.507 8.74633 172.753 7.6001 174.828 7.6001C175.628 7.6001 176.356 7.71836 176.92 7.9185C177.102 7.98218 177.156 8.09134 177.075 8.2096L176.783 8.61897C176.692 8.74633 176.529 8.78272 176.347 8.71904C175.928 8.60078 175.555 8.50071 174.855 8.50071C173.809 8.50071 173.199 9.04654 173.199 10.4202C173.199 11.7939 173.845 12.2123 174.955 12.2123C175.155 12.2123 175.337 12.1941 175.501 12.1668V10.8478H174.682C174.5 10.8478 174.345 10.7386 174.345 10.6203V10.1473C174.345 10.029 174.5 9.91986 174.682 9.91986H176.774C176.956 9.91986 177.111 10.0199 177.111 10.1473V12.5489C177.111 12.7673 177.065 12.8582 176.692 12.9492V12.9583Z" fill="#231F20"/>
<path d="M50.1425 30.3795H48.9417C48.7052 30.3795 48.5232 30.3431 48.4141 30.1976L46.5219 27.7414V30.1612C46.5219 30.2704 46.3672 30.3795 46.1853 30.3795H45.2392C45.0572 30.3795 44.9026 30.2795 44.9026 30.1612V25.1578C44.9026 25.0486 45.0572 24.9395 45.2392 24.9395H46.1853C46.3672 24.9395 46.5219 25.0486 46.5219 25.1578V27.1046L48.3413 25.1214C48.4778 24.9758 48.6324 24.9395 48.8689 24.9395H49.9606C50.2244 24.9395 50.3245 25.085 50.1607 25.2397L47.9683 27.3775L50.3336 30.0793C50.4882 30.2522 50.3972 30.3795 50.1334 30.3795H50.1425Z" fill="#231F20"/>
<path d="M59.6581 27.6594C59.6581 28.8329 59.4762 29.5789 58.3754 29.5789C57.2747 29.5789 57.1019 28.842 57.1019 27.6594C57.1019 26.5768 57.2747 25.7399 58.3754 25.7399C59.4762 25.7399 59.6581 26.5768 59.6581 27.6594ZM61.3047 27.6867C61.3047 25.8309 60.2949 24.8848 58.3845 24.8848C56.4741 24.8848 55.428 25.9218 55.428 27.6867C55.428 29.4515 56.4287 30.434 58.3845 30.434C60.3404 30.434 61.3047 29.4515 61.3047 27.6867Z" fill="#231F20"/>
<path d="M74.6046 30.3795H73.6312C73.4493 30.3795 73.2491 30.2795 73.2491 30.1521L73.0945 26.8771C73.0854 26.7043 73.1036 25.9492 73.1036 25.7309C73.0399 26.0402 72.9489 26.6133 72.8489 26.8771L71.9119 29.6063C71.8755 29.7245 71.6753 29.8064 71.4934 29.8064H70.4836C70.3017 29.8064 70.1015 29.7245 70.0651 29.6063L69.1736 26.8771C69.0918 26.6406 68.9826 26.0311 68.9098 25.7309C68.9098 25.8947 68.9462 26.6952 68.9371 26.8771L68.7552 30.1521C68.7461 30.2704 68.555 30.3795 68.3731 30.3795H67.4088C67.2268 30.3795 67.1086 30.2795 67.1177 30.1521L67.7727 25.1669C67.7818 25.0486 67.9728 24.9395 68.1547 24.9395H69.5284C69.7104 24.9395 69.9105 25.0213 69.9469 25.1396L70.8566 28.1507C70.9203 28.3691 70.9749 28.8694 71.0112 29.1514C71.0476 28.8785 71.1113 28.3418 71.1659 28.1507L72.112 25.1396C72.1484 25.0213 72.3485 24.9395 72.5305 24.9395H73.8677C74.0497 24.9395 74.2407 25.0486 74.2498 25.1669L74.8866 30.1521C74.8957 30.2704 74.7774 30.3795 74.5955 30.3795H74.6046Z" fill="#231F20"/>
<path d="M88.2413 30.3795H87.2679C87.086 30.3795 86.8858 30.2795 86.8858 30.1521L86.7312 26.8771C86.7221 26.7043 86.7403 25.9492 86.7403 25.7309C86.6766 26.0402 86.5856 26.6133 86.4856 26.8771L85.5486 29.6063C85.5122 29.7245 85.312 29.8064 85.1301 29.8064H84.1203C83.9384 29.8064 83.7382 29.7245 83.7019 29.6063L82.8103 26.8771C82.7285 26.6406 82.6193 26.0311 82.5465 25.7309C82.5465 25.8947 82.5829 26.6952 82.5738 26.8771L82.3919 30.1521C82.3828 30.2704 82.1917 30.3795 82.0098 30.3795H81.0455C80.8636 30.3795 80.7453 30.2795 80.7544 30.1521L81.4094 25.1669C81.4185 25.0486 81.6095 24.9395 81.7915 24.9395H83.1651C83.3471 24.9395 83.5472 25.0213 83.5836 25.1396L84.4933 28.1507C84.557 28.3691 84.6116 28.8694 84.648 29.1514C84.6843 28.8785 84.748 28.3418 84.8026 28.1507L85.7487 25.1396C85.7851 25.0213 85.9852 24.9395 86.1672 24.9395H87.5045C87.6864 24.9395 87.8774 25.0486 87.8865 25.1669L88.5233 30.1521C88.5324 30.2704 88.4142 30.3795 88.2322 30.3795H88.2413Z" fill="#231F20"/>
<path d="M97.3929 30.4341C95.5917 30.4341 94.6001 29.7973 94.6001 28.6238V25.1669C94.6001 25.0213 94.7184 24.9395 94.9276 24.9395H95.8919C96.1284 24.9395 96.2285 25.0031 96.2285 25.1669V28.6056C96.2285 29.2515 96.556 29.5608 97.3565 29.5608C98.2571 29.5608 98.5573 29.2697 98.5573 28.6056V25.1669C98.5573 25.0031 98.6574 24.9395 98.8939 24.9395H99.8582C100.058 24.9395 100.186 25.0213 100.186 25.1669V28.6238C100.186 29.8064 99.2032 30.4341 97.3929 30.4341Z" fill="#231F20"/>
<path d="M111.966 30.3795H110.511C110.32 30.3795 110.202 30.3067 110.138 30.1976L108.519 27.332C108.328 27.0045 108.173 26.4769 107.973 25.9856C108.055 26.486 108.2 27.2592 108.2 27.5958V30.1703C108.2 30.2795 108.046 30.3886 107.864 30.3886H106.999C106.817 30.3886 106.663 30.2886 106.663 30.1703V25.1669C106.663 25.0577 106.817 24.9486 106.999 24.9486H108.355C108.546 24.9486 108.81 25.0213 108.873 25.1305L110.374 27.8869C110.556 28.2235 110.702 28.6693 110.92 29.1969C110.848 28.6784 110.784 28.0871 110.784 27.6868V25.1578C110.784 25.0486 110.938 24.9395 111.12 24.9395H111.966C112.148 24.9395 112.303 25.0486 112.303 25.1578V30.1612C112.303 30.2704 112.148 30.3795 111.966 30.3795Z" fill="#231F20"/>
<path d="M123.074 30.3795H119.162C118.98 30.3795 118.826 30.2795 118.826 30.1521V25.1669C118.826 25.0486 118.98 24.9395 119.162 24.9395H122.965C123.147 24.9395 123.301 25.0486 123.301 25.1669V25.6399C123.301 25.7582 123.147 25.8674 122.965 25.8674H120.454V27.0682H122.692C122.874 27.0682 123.029 27.1682 123.029 27.2956V27.7323C123.029 27.8505 122.874 27.9597 122.692 27.9597H120.454V29.4243H123.074C123.256 29.4243 123.411 29.5335 123.411 29.6518V30.1612C123.411 30.2795 123.256 30.3886 123.074 30.3886V30.3795Z" fill="#231F20"/>
<g clip-path="url(#clip1_682_326)">
<path d="M16.6075 39.8361C28.9795 39.8361 32.4092 31.021 32.1726 23.6796C32.109 17.4845 31.7633 8.9059 33.2916 2.6107C27.7514 0.463779 20.5101 0.163574 16.6439 0.163574H16.6803C12.814 0.163574 5.57268 0.463779 0.0234375 2.61979C1.55175 8.915 1.21516 17.4936 1.14238 23.6887C0.905857 31.021 4.33547 39.8452 16.7075 39.8452H16.6075V39.8361Z" fill="white"/>
<path d="M1.86108 29.4201C3.33482 34.9057 7.57407 39.7272 16.7167 39.7272H16.6166C25.7501 39.7272 29.9894 34.8966 31.4631 29.4201H29.0887V26.691H24.8131V29.4201H19.0182V26.6455H14.7244V29.4201H8.35642V26.691H4.05349V29.4201H1.87018H1.86108Z" fill="#CF3339"/>
<path d="M16.6529 37.6254C17.9538 37.6254 19.6004 37.5617 20.8922 37.1979C20.8922 34.0594 20.7739 32.9404 22.7844 32.1399V32.0307C21.7382 31.494 20.9559 31.7214 20.501 32.2672C20.0462 32.0216 19.6368 32.3309 19.6459 32.7312C20.3009 32.7312 20.6739 33.3953 20.2463 33.9229C19.8369 34.4232 19.0728 34.1412 18.9636 33.5044H18.8635C18.718 34.2049 17.7264 34.2049 17.4717 33.5499C17.2352 32.9313 17.7173 32.4037 18.4724 32.5219C18.4633 31.7214 17.7173 31.6759 17.3443 31.8669C17.5626 31.0209 17.0168 30.5297 16.6529 30.3022C16.28 30.5206 15.7341 31.0209 15.9616 31.8669C15.5886 31.6759 14.8517 31.7214 14.8335 32.5219C15.5886 32.4037 16.0707 32.9313 15.8342 33.5499C15.5795 34.2049 14.597 34.2049 14.4423 33.5044H14.3423C14.2331 34.1503 13.4689 34.4232 13.0596 33.9229C12.632 33.3953 13.005 32.7221 13.66 32.7312C13.66 32.3309 13.2597 32.0216 12.8049 32.2672C12.35 31.7214 11.5677 31.494 10.5215 32.0307V32.1399C12.5319 32.9404 12.4137 34.0594 12.4137 37.1979C13.7055 37.5617 15.3521 37.6254 16.6529 37.6254Z" fill="#FFD100"/>
<path d="M22.8391 31.9219C22.4297 31.7127 22.0385 31.6035 21.6655 31.6035C21.1925 31.6035 20.7831 31.7854 20.4738 32.122C20.2009 32.0038 19.9007 32.0583 19.7097 32.2585C19.5823 32.3858 19.5186 32.5587 19.5186 32.7406V32.8589H19.6369C19.9098 32.8589 20.1463 32.9953 20.2464 33.2137C20.3465 33.4229 20.3101 33.6503 20.1463 33.8505C20.0008 34.0233 19.837 34.0597 19.7188 34.0597C19.4549 34.0597 19.1456 33.8596 19.082 33.4866L19.0638 33.3865H18.7636L18.7454 33.4775C18.6726 33.7959 18.4179 33.9142 18.1904 33.9142C17.9175 33.9142 17.681 33.7504 17.5809 33.5048C17.4991 33.2865 17.5082 33.0772 17.6264 32.9135C17.7811 32.6951 18.0904 32.586 18.4543 32.6406L18.5907 32.6588V32.5132C18.5816 31.8764 18.1541 31.6399 17.7538 31.6399C17.6719 31.6399 17.59 31.649 17.5082 31.6672C17.6173 30.8302 16.9987 30.3572 16.7167 30.1843L16.653 30.1479L16.5894 30.1843C16.2982 30.3572 15.6887 30.8211 15.7979 31.6672C15.716 31.649 15.6342 31.6399 15.5523 31.6399C15.152 31.6399 14.7244 31.8673 14.7154 32.5132V32.6588L14.8518 32.6406C15.2066 32.586 15.525 32.6951 15.6796 32.9135C15.7888 33.0772 15.807 33.2865 15.7251 33.5048C15.6251 33.7504 15.3885 33.9142 15.1156 33.9142C14.8882 33.9142 14.6335 33.7959 14.5607 33.4775L14.5425 33.3865H14.2423L14.2241 33.4866C14.1604 33.8596 13.842 34.0597 13.5873 34.0597C13.469 34.0597 13.3053 34.0233 13.1597 33.8505C12.996 33.6503 12.9596 33.4138 13.0597 33.2137C13.1597 32.9953 13.3872 32.8589 13.6692 32.8589H13.7874V32.7406C13.7874 32.5587 13.7238 32.3858 13.5964 32.2585C13.4054 32.0674 13.1143 32.0129 12.8322 32.122C12.5229 31.7854 12.1136 31.6035 11.6405 31.6035C11.2766 31.6035 10.8855 31.7127 10.467 31.9219L10.4033 31.9583V32.2221L10.4761 32.2494C12.3046 32.9772 12.2955 33.9142 12.2955 36.6979C12.2955 36.8616 12.2955 37.2892 12.2955 37.2892L12.3865 37.3165C13.7511 37.7077 15.4795 37.7531 16.653 37.7531C17.8266 37.7531 19.555 37.7077 20.9196 37.3165L21.0106 37.2892C21.0106 37.2892 21.0106 36.8616 21.0106 36.6979C21.0106 33.9142 21.0106 32.9772 22.83 32.2494L22.9028 32.2221V31.9583L22.8391 31.9219ZM12.5138 35.024C14.7335 34.7693 16.462 34.7602 16.653 34.7602C16.8441 34.7602 18.5634 34.7602 20.7922 35.024C20.7649 35.5061 20.7649 36.0611 20.774 36.6979C20.774 36.7343 20.774 36.7616 20.774 36.7979C19.8006 36.6888 18.3633 36.5705 16.6803 36.5705H16.6348C14.9519 36.5705 13.5145 36.6888 12.5411 36.7979C12.5411 36.7616 12.5411 36.7343 12.5411 36.6979C12.5411 36.0611 12.5411 35.5061 12.5229 35.024H12.5138ZM16.653 37.5075C15.5159 37.5075 13.8602 37.462 12.5411 37.1072C12.5411 37.0799 12.5411 37.0527 12.5411 37.0345C13.5054 36.9253 14.9519 36.807 16.6348 36.807H16.6803C18.3633 36.807 19.8097 36.9253 20.774 37.0345C20.774 37.0618 20.774 37.0799 20.774 37.1072C19.4458 37.462 17.7993 37.5075 16.653 37.5075ZM20.8013 34.7966C18.5725 34.5419 16.8441 34.5328 16.653 34.5328C16.462 34.5328 14.7244 34.5328 12.4957 34.7966C12.3956 33.4047 12.0226 32.6497 10.6853 32.0765C11.5132 31.6945 12.2591 31.8036 12.7231 32.4495C12.7231 32.4495 13.1234 32.1766 13.4145 32.4222C13.469 32.4677 13.5054 32.5405 13.5236 32.6133C13.2143 32.6497 12.9505 32.8316 12.8322 33.0954C12.6958 33.3865 12.7413 33.7231 12.9687 33.996C13.1234 34.1871 13.3417 34.2962 13.5873 34.2962C13.9421 34.2962 14.2605 34.0688 14.397 33.7413C14.5334 33.996 14.7972 34.1598 15.1156 34.1598C15.4886 34.1598 15.8161 33.9414 15.9435 33.5958C16.0526 33.3046 16.0344 33.0135 15.8707 32.777C15.6887 32.5132 15.3521 32.3676 14.961 32.3858C15.0247 31.9401 15.3885 31.8946 15.5432 31.8946C15.9162 31.8946 16.1436 32.1402 16.1436 32.1402C16.1436 32.1402 15.7251 31.0395 16.6439 30.4573C17.5627 31.0486 17.1443 32.1402 17.1443 32.1402C17.1443 32.1402 17.3717 31.8946 17.7447 31.8946C17.9084 31.8946 18.2632 31.9492 18.3269 32.3858C17.9357 32.3676 17.5991 32.5132 17.4172 32.777C17.2625 33.0044 17.2353 33.2956 17.3444 33.5958C17.4809 33.9414 17.7993 34.1598 18.1723 34.1598C18.4907 34.1598 18.7545 34.0051 18.8909 33.7413C19.0365 34.0779 19.3458 34.2962 19.7006 34.2962C19.9371 34.2962 20.1554 34.1871 20.3192 33.996C20.5375 33.7231 20.5921 33.3865 20.4556 33.0954C20.3283 32.8316 20.0735 32.6497 19.7642 32.6133C19.7824 32.5405 19.8097 32.4677 19.8734 32.4222C20.1645 32.1766 20.5648 32.4495 20.5648 32.4495C21.0287 31.8036 21.7747 31.6945 22.6025 32.0765C21.2653 32.6406 20.8923 33.3956 20.7922 34.7966H20.8013Z" fill="#231F20"/>
<path d="M19.8735 35.8061C19.8553 36.0699 19.5278 36.261 19.1548 36.2337C18.7727 36.2064 18.4816 35.9699 18.4998 35.706C18.518 35.4422 18.8455 35.2512 19.2185 35.2785C19.6006 35.3058 19.8917 35.5423 19.8735 35.8061Z" fill="white"/>
<path d="M19.2183 36.3522C19.2183 36.3522 19.1638 36.3522 19.1365 36.3522C18.9272 36.334 18.7362 36.2703 18.5997 36.1521C18.4451 36.0247 18.3632 35.8701 18.3814 35.7063C18.3996 35.3788 18.7726 35.1332 19.2274 35.1696C19.4367 35.1878 19.6277 35.2515 19.7733 35.3697C19.9279 35.4971 20.0098 35.6517 19.9916 35.8155C19.9734 36.1248 19.6368 36.3522 19.2274 36.3522H19.2183ZM19.1456 35.3879C18.8545 35.3879 18.6179 35.5335 18.6088 35.7154C18.6088 35.8064 18.6543 35.8974 18.7453 35.9701C18.8545 36.052 19 36.1066 19.1547 36.1157C19.4731 36.1339 19.7369 35.9883 19.7551 35.7973C19.7551 35.7063 19.7096 35.6154 19.6186 35.5426C19.5095 35.4607 19.3639 35.4061 19.2092 35.397C19.1911 35.397 19.1638 35.397 19.1456 35.397V35.3879Z" fill="#231F20"/>
<path d="M16.6531 36.2337L17.5537 35.6697L16.6531 35.1147L15.7524 35.6697L16.6531 36.2337Z" fill="white"/>
<path d="M16.6531 36.3702L15.5342 35.6697L16.6531 34.9692L17.7721 35.6697L16.6531 36.3702ZM15.9708 35.6697L16.6531 36.0973L17.3354 35.6697L16.6531 35.2422L15.9708 35.6697Z" fill="#231F20"/>
<path d="M13.4327 35.8061C13.4509 36.0699 13.7784 36.261 14.1514 36.2337C14.5334 36.2064 14.8246 35.9699 14.8064 35.706C14.7882 35.4422 14.4607 35.2512 14.0877 35.2785C13.7056 35.3058 13.4145 35.5423 13.4327 35.8061Z" fill="white"/>
<path d="M14.0877 36.3522C13.6692 36.3522 13.3417 36.1157 13.3235 35.8155C13.3144 35.6517 13.3872 35.488 13.5418 35.3697C13.6874 35.2515 13.8784 35.1878 14.0786 35.1696C14.5243 35.1332 14.8973 35.3788 14.9246 35.7063C14.9337 35.8701 14.8609 36.0338 14.7063 36.1521C14.5607 36.2703 14.3697 36.334 14.1695 36.3522C14.1423 36.3522 14.115 36.3522 14.0877 36.3522ZM14.1604 35.3879C14.1604 35.3879 14.115 35.3879 14.0968 35.3879C13.933 35.397 13.7875 35.4516 13.6874 35.5335C13.5964 35.6063 13.5418 35.6972 13.5509 35.7882C13.56 35.9701 13.7966 36.1157 14.0877 36.1157C14.0877 36.1157 14.1241 36.1157 14.1513 36.1157C14.3151 36.1066 14.4607 36.052 14.5607 35.9701C14.6517 35.8974 14.7063 35.8064 14.6972 35.7154C14.6881 35.5335 14.4516 35.3879 14.1604 35.3879Z" fill="#231F20"/>
<path d="M2.06111 6.23132C2.55235 6.40416 2.85256 5.84014 3.81685 5.82195C5.01767 5.80375 5.75454 7.25019 4.44455 7.69595C4.68108 9.05142 3.06179 9.106 2.49777 8.04164C2.05201 7.18651 2.4068 6.64978 2.01562 6.30409L2.05201 6.23132H2.06111Z" fill="#00754A"/>
<path d="M2.42505 11.6987C2.889 11.4531 2.67977 10.8527 3.31657 10.134C4.11711 9.24252 5.68182 9.68827 5.11779 10.9437C6.27313 11.6987 5.20877 12.9177 4.05343 12.6084C3.12553 12.3537 2.97088 11.7351 2.45234 11.7806L2.42505 11.6987Z" fill="#00754A"/>
<path d="M8.84769 6.02228C8.86588 6.54991 9.50268 6.61359 9.87566 7.50511C10.3305 8.61496 9.25706 9.82487 8.36554 8.7787C7.18292 9.49738 6.54612 8.00545 7.32847 7.09574C7.96527 6.36797 8.58387 6.50443 8.76581 6.01318H8.84769V6.02228Z" fill="#00754A"/>
<path d="M16.3346 4.69406C15.907 4.99427 16.189 5.56738 15.6341 6.35883C14.9518 7.34132 13.3416 7.0866 13.751 5.76752C12.5138 5.15801 13.4235 3.82074 14.6061 3.98449C15.5613 4.12094 15.7887 4.72135 16.2982 4.61219L16.3346 4.68496V4.69406Z" fill="#00754A"/>
<path d="M11.3857 1.30988C11.4766 1.82841 12.1225 1.80112 12.6138 2.62896C13.2233 3.65693 12.3318 5.0124 11.3038 4.10269C10.2394 4.98511 9.39341 3.59325 10.0393 2.58347C10.5578 1.77383 11.1946 1.81022 11.3129 1.30078H11.3948L11.3857 1.30988Z" fill="#00754A"/>
<path d="M5.08143 3.62045C5.59996 3.67504 5.76371 3.05643 6.70071 2.81991C7.86514 2.5288 8.91131 3.76601 7.74688 4.49378C8.28361 5.75827 6.71891 6.18584 5.93655 5.27613C5.29976 4.54836 5.52719 3.94795 5.06323 3.69323L5.09052 3.61136L5.08143 3.62045Z" fill="#00754A"/>
<path d="M20.8922 8.5966C20.4465 8.87861 20.7194 9.46083 20.1372 10.2341C19.4185 11.1893 17.8265 10.88 18.2723 9.57909C17.0533 8.93319 18.0175 7.62321 19.1911 7.83244C20.1372 8.00529 20.3464 8.61479 20.8558 8.52382L20.8831 8.5966H20.8922Z" fill="#00754A"/>
<path d="M31.2446 6.23132C30.7534 6.40416 30.4532 5.84014 29.4889 5.82195C28.2881 5.80375 27.5512 7.25019 28.8612 7.69595C28.6246 9.05142 30.2439 9.106 30.808 8.04164C31.2537 7.18651 30.8989 6.64978 31.2901 6.30409L31.2537 6.23132H31.2446Z" fill="#00754A"/>
<path d="M30.8808 11.6987C30.4168 11.4531 30.626 10.8527 29.9892 10.134C29.1887 9.24252 27.624 9.68827 28.188 10.9437C27.0327 11.6987 28.097 12.9177 29.2524 12.6084C30.1803 12.3537 30.3349 11.7351 30.8535 11.7806L30.8808 11.6987Z" fill="#00754A"/>
<path d="M24.4583 6.02228C24.4401 6.54991 23.8033 6.61359 23.4303 7.50511C22.9754 8.61496 24.0489 9.82487 24.9404 8.7787C26.123 9.49738 26.7598 8.00545 25.9775 7.09574C25.3407 6.36797 24.7221 6.50443 24.5401 6.01318H24.4583V6.02228Z" fill="#00754A"/>
<path d="M16.9714 4.69406C17.399 4.99427 17.117 5.56738 17.6719 6.35883C18.3542 7.34132 19.9644 7.0866 19.555 5.76752C20.7922 5.15801 19.8825 3.82074 18.6999 3.98449C17.7447 4.12094 17.5173 4.72135 17.0078 4.61219L16.9714 4.68496V4.69406Z" fill="#00754A"/>
<path d="M21.9203 1.30988C21.8293 1.82841 21.1834 1.80112 20.6922 2.62896C20.0827 3.65693 20.9742 5.0124 22.0021 4.10269C23.0665 4.98511 23.9125 3.59325 23.2666 2.58347C22.7481 1.77383 22.1113 1.81022 21.993 1.30078H21.9112L21.9203 1.30988Z" fill="#00754A"/>
<path d="M28.2244 3.62045C27.7059 3.67504 27.5421 3.05643 26.6051 2.81991C25.4407 2.5288 24.3945 3.76601 25.559 4.49378C25.0222 5.75827 26.5869 6.18584 27.3693 5.27613C28.0061 4.54836 27.7787 3.94795 28.2426 3.69323L28.2153 3.61136L28.2244 3.62045Z" fill="#00754A"/>
<path d="M12.4138 8.5966C12.8596 8.87861 12.5867 9.46083 13.1689 10.2341C13.8876 11.1893 15.4795 10.88 15.0338 9.57909C16.2528 8.93319 15.2885 7.62321 14.115 7.83244C13.1689 8.00529 12.9596 8.61479 12.4502 8.52382L12.4229 8.5966H12.4138Z" fill="#00754A"/>
<path d="M5.59094 24.8262L5.19067 25.9542C3.99895 25.9542 3.535 26.0088 3.44403 26.3272C3.29847 26.8002 3.48041 27.4098 4.03534 27.6645V26.6638H4.56297C4.56297 27.3825 5.20887 27.6281 5.20887 27.6281V26.6638H6.17316V27.6008C6.62802 27.3552 6.88273 27.0186 6.80086 26.3818C6.75537 26.1453 6.6644 25.9542 5.90025 25.9542L6.30052 24.9535L5.59094 24.8262Z" fill="white"/>
<path d="M5.64548 16.2931C5.64548 15.2196 5.50903 14.5737 4.54473 14.5737C4.04439 14.5737 3.59863 14.9012 3.59863 15.2833C3.59863 15.5926 3.64412 15.8837 4.14446 16.2931H5.64548Z" fill="#CF3339"/>
<path d="M4.78134 18.9311L4.10815 18.8037L4.13545 18.5945L4.57211 18.6582L4.62669 18.2124L4.83592 18.2488L4.78134 18.9311Z" fill="#231F20"/>
<path d="M7.71975 21.4602L7.05566 21.3237L7.07386 21.1236L7.51052 21.1782L7.5742 20.7324L7.77434 20.7688L7.71975 21.4602Z" fill="#231F20"/>
<path d="M8.44736 22.5243L7.77417 22.3879L7.79236 22.1877L8.23812 22.2423L8.29271 21.8057L8.49284 21.833L8.44736 22.5243Z" fill="#231F20"/>
<path d="M5.65463 17.9213L4.98145 17.7939L4.99964 17.5847L5.4454 17.6393L5.49998 17.2026L5.70921 17.2299L5.65463 17.9213Z" fill="#231F20"/>
<path d="M5.48172 20.1864L4.81763 20.0591L4.83582 19.8499L5.27248 19.9044L5.33616 19.4678L5.5363 19.5042L5.48172 20.1864Z" fill="#231F20"/>
<path d="M6.3096 19.0405L5.64551 18.9131L5.6637 18.7039L6.10036 18.7584L6.16404 18.3218L6.36418 18.3491L6.3096 19.0405Z" fill="#231F20"/>
<path d="M7.01913 20.1591L6.34595 20.0317L6.36414 19.8225L6.8099 19.8862L6.86448 19.4404L7.06462 19.4768L7.01913 20.1591Z" fill="#231F20"/>
<path d="M6.5643 21.1781L5.89111 21.0508L5.90931 20.8416L6.34597 20.9052L6.40965 20.4595L6.60979 20.4959L6.5643 21.1781Z" fill="#231F20"/>
<path d="M16.2618 24.8262L15.8616 25.9542C14.6698 25.9542 14.2059 26.0088 14.1149 26.3272C13.9694 26.8002 14.1513 27.4098 14.7062 27.6645V26.6638H15.2339C15.2339 27.3825 15.8798 27.6281 15.8798 27.6281V26.6638H16.8441V27.6008C17.2989 27.3552 17.5536 27.0186 17.4718 26.3818C17.4263 26.1453 17.3353 25.9542 16.5711 25.9542L16.9714 24.9535L16.2618 24.8262Z" fill="white"/>
<path d="M16.3164 16.2931C16.3164 15.2196 16.1799 14.5737 15.2156 14.5737C14.7153 14.5737 14.2695 14.9012 14.2695 15.2833C14.2695 15.5926 14.315 15.8837 14.8154 16.2931H16.3164Z" fill="#CF3339"/>
<path d="M15.4613 18.9311L14.7881 18.8037L14.8063 18.5945L15.2429 18.6582L15.3066 18.2124L15.5068 18.2488L15.4613 18.9311Z" fill="#231F20"/>
<path d="M18.3997 21.4602L17.7266 21.3237L17.7539 21.1236L18.1905 21.1782L18.2451 20.7324L18.4543 20.7688L18.3997 21.4602Z" fill="#231F20"/>
<path d="M19.1182 22.5243L18.4541 22.3879L18.4723 22.1877L18.909 22.2423L18.9726 21.8057L19.1728 21.833L19.1182 22.5243Z" fill="#231F20"/>
<path d="M16.3255 17.9213L15.6614 17.7939L15.6796 17.5847L16.1162 17.6393L16.1799 17.2026L16.38 17.2299L16.3255 17.9213Z" fill="#231F20"/>
<path d="M16.1617 20.1864L15.4885 20.0591L15.5158 19.8499L15.9525 19.9044L16.0162 19.4678L16.2163 19.5042L16.1617 20.1864Z" fill="#231F20"/>
<path d="M16.9896 19.0405L16.3164 18.9131L16.3437 18.7039L16.7804 18.7584L16.8349 18.3218L17.0442 18.3491L16.9896 19.0405Z" fill="#231F20"/>
<path d="M17.69 20.1591L17.0259 20.0317L17.0441 19.8225L17.4807 19.8862L17.5444 19.4404L17.7446 19.4768L17.69 20.1591Z" fill="#231F20"/>
<path d="M17.2351 21.1781L16.571 21.0508L16.5892 20.8416L17.0259 20.9052L17.0896 20.4595L17.2897 20.4959L17.2351 21.1781Z" fill="#231F20"/>
<path d="M26.3414 24.8262L25.9412 25.9542C24.7494 25.9542 24.2855 26.0088 24.1945 26.3272C24.049 26.8002 24.2309 27.4098 24.7858 27.6645V26.6638H25.3135C25.3135 27.3825 25.9594 27.6281 25.9594 27.6281V26.6638H26.9236V27.6008C27.3785 27.3552 27.6332 27.0186 27.5513 26.3818C27.5059 26.1453 27.4149 25.9542 26.6507 25.9542L27.051 24.9535L26.3414 24.8262Z" fill="white"/>
<path d="M26.396 16.2931C26.396 15.2196 26.2595 14.5737 25.2952 14.5737C24.7949 14.5737 24.3491 14.9012 24.3491 15.2833C24.3491 15.5926 24.3946 15.8837 24.8949 16.2931H26.396Z" fill="#CF3339"/>
<path d="M25.5318 18.9311L24.8586 18.8037L24.8859 18.5945L25.3226 18.6582L25.3863 18.2124L25.5864 18.2488L25.5318 18.9311Z" fill="#231F20"/>
<path d="M28.4793 21.4602L27.8062 21.3237L27.8243 21.1236L28.261 21.1782L28.3247 20.7324L28.5248 20.7688L28.4793 21.4602Z" fill="#231F20"/>
<path d="M29.1978 22.5243L28.5247 22.3879L28.552 22.1877L28.9886 22.2423L29.0523 21.8057L29.2524 21.833L29.1978 22.5243Z" fill="#231F20"/>
<path d="M26.4051 17.9213L25.7319 17.7939L25.7592 17.5847L26.1959 17.6393L26.2596 17.2026L26.4597 17.2299L26.4051 17.9213Z" fill="#231F20"/>
<path d="M26.2413 20.1864L25.5681 20.0591L25.5863 19.8499L26.023 19.9044L26.0867 19.4678L26.2868 19.5042L26.2413 20.1864Z" fill="#231F20"/>
<path d="M27.0601 19.0405L26.396 18.9131L26.4142 18.7039L26.8509 18.7584L26.9145 18.3218L27.1147 18.3491L27.0601 19.0405Z" fill="#231F20"/>
<path d="M27.7696 20.1591L27.0964 20.0317L27.1237 19.8225L27.5604 19.8862L27.6241 19.4404L27.8242 19.4768L27.7696 20.1591Z" fill="#231F20"/>
<path d="M27.3148 21.1781L26.6416 21.0508L26.6689 20.8416L27.1056 20.9052L27.1601 20.4595L27.3694 20.4959L27.3148 21.1781Z" fill="#231F20"/>
<path d="M33.4916 2.5199L33.3461 2.46532C27.8332 0.327496 20.5374 0 16.6711 0H16.6347C12.7684 0 5.48165 0.327496 -0.031204 2.46532L-0.176758 2.5199L-0.140369 2.66545C1.206 8.21469 1.09684 15.5743 1.00587 21.4783C0.99677 22.2333 0.978575 22.9702 0.978575 23.6707C0.887604 26.509 1.28788 31.8581 5.03589 35.7335C7.74683 38.5445 11.6404 39.9727 16.6074 39.9909H16.7075C21.6745 39.9727 25.5681 38.5354 28.279 35.7335C32.027 31.8581 32.4273 26.509 32.3363 23.6707C32.3363 22.9702 32.3181 22.2333 32.309 21.4692C32.2181 15.5652 32.1089 8.2056 33.4553 2.65636L33.4916 2.5108V2.5199ZM1.98835 29.5474H6.2549V32.6677H3.22556C2.67064 31.6398 2.27037 30.5845 1.98835 29.5474ZM3.4348 16.0473C3.14369 16.0109 2.88897 16.0109 2.73432 16.0746C2.89807 15.4924 3.33473 15.4196 3.48938 15.4105C3.50757 15.7016 3.59854 16.0018 4.07159 16.3839L4.10798 16.4112H5.52713C5.52713 16.4385 5.52713 16.4658 5.52713 16.4931C5.54533 16.6204 5.58171 16.7023 5.70907 16.8479C6.5733 17.7303 9.19327 22.4335 10.1485 24.3348L10.1121 24.353C9.73909 24.0982 7.47391 22.5154 5.72727 21.3418C4.25354 20.3502 3.97153 20.0318 4.01701 19.1949H3.81687C3.77139 20.2047 4.21715 20.5959 5.59991 21.5329C6.30948 22.0059 7.10093 22.5517 7.8196 23.043L10.3941 27.6279L10.2394 27.6461C9.90284 27.2822 7.61037 24.7896 6.64608 23.8253C5.96379 23.134 5.26331 22.6882 4.69929 22.3334C4.38999 22.1333 4.0352 21.8967 3.80778 21.7148C2.94355 20.9779 2.798 19.9591 2.82529 19.2313C2.87077 18.2579 3.23466 17.3664 3.55306 16.8569L3.57125 16.8024L3.58945 16.2656L3.4257 16.0564L3.4348 16.0473ZM3.71681 15.2922C3.71681 14.9829 4.10798 14.7009 4.54464 14.7009C5.35429 14.7009 5.51803 15.1831 5.52713 16.1838H4.18986C3.75319 15.8199 3.71681 15.5743 3.71681 15.2922ZM5.75456 16.4112C5.75456 16.2292 5.90011 16.0837 6.08205 16.0837C6.264 16.0837 6.40955 16.2292 6.40955 16.4112C6.40955 16.5931 6.264 16.7387 6.08205 16.7387C5.90011 16.7387 5.75456 16.5931 5.75456 16.4112ZM6.45504 23.9618L6.52781 24.8715L5.55442 24.6987C5.10866 23.7344 4.78117 22.9884 4.63561 22.5517C5.19054 22.9065 5.81824 23.3159 6.46413 23.9527L6.45504 23.9618ZM8.18349 26.8092V29.2836H4.18076V26.8092H4.45367C4.53555 27.4915 5.14505 27.728 5.17234 27.7371L5.32699 27.7917V26.8001H6.06386V27.7826L6.23671 27.6916C6.64608 27.4733 6.86441 27.1913 6.91899 26.8001H8.19258L8.18349 26.8092ZM4.672 26.5454H3.91694V27.4551C3.54396 27.1822 3.44389 26.7091 3.55306 26.3543C3.62583 26.1087 4.11708 26.0632 5.19054 26.0632H5.27241L5.66359 24.9534L6.13664 25.0353L5.72727 26.0632H5.90011C6.61878 26.0632 6.65517 26.2361 6.68246 26.3907C6.68246 26.4453 6.69156 26.4999 6.69156 26.5454C6.69156 27.0912 6.50962 27.2368 6.28219 27.3914V26.5454H5.08137V27.4369C4.93582 27.3368 4.66291 27.0912 4.66291 26.5454H4.672ZM5.28151 35.506C4.50825 34.7055 3.87146 33.8322 3.36202 32.9315H7.95606V36.0519H5.84553C5.65449 35.879 5.46345 35.6971 5.28151 35.506ZM16.6529 39.6543C12.2681 39.6543 8.73841 38.5172 6.14573 36.3066H10.6306V36.0428H8.21988V32.9224H9.22056V32.6586H6.50962V29.5383H26.7416V32.6586H24.0034V32.9224H25.0313V36.0428H22.5933V36.3066H27.151C24.5583 38.5172 21.0286 39.6452 16.6438 39.6543H16.6529ZM11.2219 4.01183C11.0218 4.17557 10.8216 4.26655 10.6306 4.26655C10.3941 4.26655 10.1849 4.13009 10.0575 3.88447C9.85736 3.52058 9.88465 3.02934 10.1303 2.64726C10.385 2.25608 10.6579 2.07414 10.8944 1.91949C11.0764 1.80123 11.2401 1.69206 11.3402 1.52831C11.4312 1.70116 11.5949 1.81033 11.7677 1.93768C12.0043 2.10143 12.2772 2.29247 12.5137 2.69275C12.7411 3.07482 12.7593 3.55697 12.5592 3.92086C12.4227 4.15738 12.2135 4.29384 11.9861 4.29384C11.795 4.29384 11.5858 4.20287 11.3857 4.02092L11.3129 3.95724L11.2401 4.02092L11.2219 4.01183ZM17.6081 26.5454C17.6081 26.4817 17.6081 26.418 17.5899 26.3543C17.5353 26.0541 17.3716 25.8631 16.753 25.8358L17.0532 25.0716L17.3261 25.1171C17.3261 25.1171 17.3352 25.1171 17.3443 25.1171C17.3716 25.1171 17.3989 25.108 17.4262 25.0898C17.4534 25.0625 17.4625 25.0353 17.4625 24.9989L17.3989 24.2165C18.536 25.3809 20.7739 27.819 20.8012 27.8463C20.8194 27.8736 20.8558 27.8826 20.8831 27.8826C20.8831 27.8826 20.8922 27.8826 20.9012 27.8826L21.2833 27.8281C21.2833 27.8281 21.3561 27.8008 21.3743 27.7644C21.3925 27.728 21.3925 27.6916 21.3743 27.6552L18.9454 23.3341C19.9461 24.0255 20.7193 24.5622 20.7284 24.5713C20.7466 24.5895 20.7739 24.5895 20.7921 24.5895C20.8103 24.5895 20.8194 24.5895 20.8376 24.5804L21.0468 24.4894C21.0468 24.4894 21.1014 24.453 21.1105 24.4257C21.1196 24.3985 21.1196 24.3621 21.1105 24.3348C20.2645 22.6427 17.8628 18.3216 16.8075 16.957C17.0987 16.9388 17.3352 16.7023 17.3352 16.4021C17.3352 16.1019 17.0896 15.8472 16.7803 15.8472C16.662 15.8472 16.5437 15.8836 16.4528 15.9563C16.4255 15.1649 16.2526 14.519 15.3611 14.4644C15.443 14.2188 15.6977 14.1733 15.8796 14.1642V13.9095C15.7523 13.9095 15.5521 13.9459 15.3793 14.0823C15.4794 13.7184 15.6977 13.6366 15.916 13.5911L15.8796 13.3364C15.5612 13.3909 15.352 13.5547 15.2247 13.8276C15.0973 13.5547 14.8881 13.3909 14.5697 13.3364L14.5333 13.5911C14.7516 13.6275 14.9699 13.7184 15.07 14.0823C14.8972 13.9459 14.697 13.9186 14.5788 13.9095V14.1642C14.7516 14.1642 15.0063 14.2188 15.0882 14.4644C14.6333 14.519 14.2604 14.8192 14.1876 15.174C13.7418 15.1831 13.2142 15.5015 13.1414 16.3657L13.2688 16.4021C13.2961 16.3293 13.4598 16.202 14.0238 16.2656H14.0602L14.042 16.7569C13.7054 17.2936 13.3325 18.2215 13.287 19.2222C13.2506 20.0045 13.4143 21.0962 14.3513 21.8967C14.5151 22.0332 14.7971 22.2333 15.0154 22.3698C15.1428 22.8519 15.7159 24.1255 16.0616 24.8624C16.0707 24.8897 16.098 24.9079 16.1253 24.917L15.7978 25.8449C14.6606 25.8449 14.1421 25.8995 14.0147 26.2997C13.8692 26.7819 14.0238 27.4278 14.597 27.7371V29.2927H11.5858V19.7498C11.5858 17.1208 12.1862 14.9011 13.4598 13.1726C14.2695 12.0628 15.3429 11.144 16.6529 10.4344C17.9629 11.144 19.0363 12.0628 19.846 13.1726C21.1196 14.9102 21.72 17.1208 21.72 19.7498V29.2927H19.1182V26.5545H17.599L17.6081 26.5454ZM14.1148 16.0473C13.8237 16.0109 13.569 16.0109 13.4143 16.0746C13.5781 15.4924 14.0147 15.4196 14.1694 15.4105C14.1876 15.7016 14.2786 16.0018 14.7516 16.3839L14.788 16.4112H16.2071C16.2071 16.4385 16.2071 16.4658 16.2071 16.4931C16.2253 16.6204 16.2617 16.7023 16.3891 16.8479C17.2533 17.7303 19.8733 22.4335 20.8285 24.3348L20.7921 24.353C20.4191 24.0982 18.1539 22.5154 16.4073 21.3418C14.9335 20.3502 14.6515 20.0318 14.697 19.1949H14.4969C14.4514 20.2047 14.8972 20.5959 16.2799 21.5329C16.9895 22.0059 17.7809 22.5517 18.4996 23.043L21.0741 27.6279L20.9194 27.6461C20.5829 27.2822 18.2904 24.7896 17.3261 23.8253C16.6438 23.134 15.9433 22.6882 15.3793 22.3334C15.07 22.1333 14.7152 21.8967 14.4878 21.7148C13.6236 20.9779 13.478 19.9591 13.5053 19.2313C13.5508 18.2579 13.9147 17.3664 14.2331 16.8569L14.2513 16.8024L14.2695 16.2656L14.1057 16.0564L14.1148 16.0473ZM14.3968 15.2922C14.3968 14.9829 14.788 14.7009 15.2247 14.7009C16.0343 14.7009 16.198 15.1831 16.2071 16.1838H14.8699C14.4332 15.8199 14.3968 15.5743 14.3968 15.2922ZM16.4346 16.4112C16.4346 16.2292 16.5801 16.0837 16.7621 16.0837C16.944 16.0837 17.0896 16.2292 17.0896 16.4112C17.0896 16.5931 16.944 16.7387 16.7621 16.7387C16.5801 16.7387 16.4346 16.5931 16.4346 16.4112ZM17.135 23.9618L17.2078 24.8715L16.2344 24.6987C15.7887 23.7344 15.4612 22.9884 15.3156 22.5517C15.8705 22.9065 16.4982 23.3159 17.1441 23.9527L17.135 23.9618ZM16.9622 26.5454H15.7614V27.4369C15.6158 27.3368 15.3429 27.0912 15.3429 26.5454H14.5879V27.4551C14.2149 27.1822 14.1148 26.7091 14.224 26.3543C14.2967 26.1087 14.788 26.0632 15.8614 26.0632H15.9433L16.3345 24.9534L16.8075 25.0353L16.3982 26.0632H16.571C17.2897 26.0632 17.3261 26.2361 17.3534 26.3907C17.3534 26.4453 17.3625 26.4999 17.3625 26.5454C17.3625 27.0912 17.1805 27.2368 16.9531 27.3914V26.5454M16.7348 26.8092V27.7917L16.9076 27.7007C17.317 27.4824 17.5353 27.2004 17.5899 26.8092H18.8635V29.2836H14.8608V26.8092H15.1337C15.2156 27.4915 15.8251 27.728 15.8524 27.7371L16.007 27.7917V26.8001H16.7439L16.7348 26.8092ZM21.9292 4.02092C21.7291 4.20287 21.5199 4.29384 21.3288 4.29384C21.1014 4.29384 20.8831 4.15738 20.7557 3.92086C20.5556 3.56607 20.5647 3.08392 20.8012 2.69275C21.0377 2.29247 21.3106 2.10143 21.5471 1.93768C21.72 1.81033 21.8837 1.70116 21.9747 1.52831C22.0748 1.70116 22.2385 1.80123 22.4205 1.91949C22.6661 2.07414 22.939 2.25608 23.1846 2.64726C23.4302 3.02934 23.4575 3.52058 23.2574 3.88447C23.1209 4.13009 22.9117 4.26655 22.6843 4.26655C22.4932 4.26655 22.2931 4.18467 22.093 4.01183L22.0202 3.94815L21.9474 4.01183L21.9292 4.02092ZM24.1944 16.0473C23.9033 16.0109 23.6486 16.0109 23.4939 16.0746C23.6577 15.4924 24.0943 15.4196 24.249 15.4105C24.2672 15.7016 24.3582 16.0018 24.8312 16.3839L24.8676 16.4112H26.2867C26.2867 16.4385 26.2867 16.4658 26.2867 16.4931C26.3049 16.6204 26.3413 16.7023 26.4687 16.8479C27.3329 17.7303 29.9529 22.4335 30.9081 24.3348L30.8717 24.353C30.4987 24.0982 28.2335 22.5154 26.4869 21.3418C25.0131 20.3502 24.7311 20.0318 24.7766 19.1949H24.5765C24.531 20.2047 24.9768 20.5959 26.3595 21.5329C27.0691 22.0059 27.8605 22.5517 28.5792 23.043L31.1537 27.6279L30.999 27.6461C30.6624 27.2822 28.37 24.7896 27.4057 23.8253C26.7234 23.134 26.0229 22.6882 25.4589 22.3334C25.1496 22.1333 24.7948 21.8967 24.5674 21.7148C23.7032 20.9779 23.5576 19.9591 23.5849 19.2313C23.6304 18.2579 23.9943 17.3664 24.3127 16.8569L24.3309 16.8024L24.3491 16.2656L24.1853 16.0564L24.1944 16.0473ZM24.4673 15.2922C24.4673 14.9829 24.8585 14.7009 25.2952 14.7009C26.1048 14.7009 26.2685 15.1831 26.2776 16.1838H24.9404C24.5037 15.8199 24.4673 15.5743 24.4673 15.2922ZM26.5051 16.4112C26.5051 16.2292 26.6506 16.0837 26.8326 16.0837C27.0145 16.0837 27.1601 16.2292 27.1601 16.4112C27.1601 16.5931 27.0145 16.7387 26.8326 16.7387C26.6506 16.7387 26.5051 16.5931 26.5051 16.4112ZM27.2055 23.9618L27.2783 24.8715L26.3049 24.6987C25.8592 23.7344 25.5317 22.9884 25.3861 22.5517C25.941 22.9065 26.5688 23.3159 27.2146 23.9527L27.2055 23.9618ZM28.934 26.8092V29.2836H24.9313V26.8092H25.2042C25.2861 27.4915 25.8956 27.728 25.9229 27.7371L26.0775 27.7917V26.8001H26.8144V27.7826L26.9872 27.6916C27.3966 27.4733 27.6149 27.1913 27.6695 26.8001H28.9431L28.934 26.8092ZM27.4512 26.5454C27.4512 27.0912 27.2692 27.2368 27.0418 27.3914V26.5454H25.841V27.4369C25.6954 27.3368 25.4316 27.0912 25.4316 26.5454H24.6675V27.4551C24.2945 27.1822 24.1944 26.7091 24.3036 26.3543C24.3763 26.1087 24.8676 26.0632 25.941 26.0632H26.0229L26.4141 24.9534L26.8871 25.0353L26.4778 26.0632H26.6506C27.3693 26.0632 27.4057 26.2361 27.433 26.3907C27.433 26.4453 27.4421 26.4999 27.4421 26.5454H27.4512ZM28.0243 35.506C27.8423 35.6971 27.6513 35.879 27.4603 36.0519H25.3043V32.9315H29.9438C29.4343 33.8322 28.8066 34.7055 28.0243 35.506ZM30.0893 32.6677H27.0145V29.5474H31.3356C31.0445 30.5845 30.6443 31.6398 30.0984 32.6677H30.0893ZM31.9633 21.4874C31.9724 22.2424 31.9906 22.9793 31.9906 23.6889C32.0361 25.0989 31.9542 27.1276 31.3993 29.2836H29.1978V26.5454H27.6786C27.6786 26.4817 27.6786 26.418 27.6604 26.3543C27.6058 26.0541 27.4421 25.8631 26.8235 25.8358L27.1237 25.0716L27.3966 25.1171C27.3966 25.1171 27.4057 25.1171 27.4148 25.1171C27.4421 25.1171 27.4694 25.108 27.4967 25.0898C27.5239 25.0625 27.533 25.0353 27.533 24.9989L27.4694 24.2165C28.6065 25.3809 30.8444 27.819 30.8717 27.8463C30.8899 27.8736 30.9263 27.8826 30.9536 27.8826C30.9536 27.8826 30.9627 27.8826 30.9718 27.8826L31.3538 27.8281C31.3538 27.8281 31.4266 27.8008 31.4448 27.7644C31.463 27.728 31.463 27.6916 31.4448 27.6552L29.0159 23.3341C30.0166 24.0255 30.7898 24.5622 30.7989 24.5713C30.8171 24.5895 30.8444 24.5895 30.8626 24.5895C30.8808 24.5895 30.8899 24.5895 30.9081 24.5804L31.1173 24.4894C31.1173 24.4894 31.1719 24.453 31.181 24.4257C31.1901 24.3985 31.1901 24.3621 31.181 24.3348C30.335 22.6427 27.9333 18.3216 26.878 16.957C27.1692 16.9388 27.4057 16.7023 27.4057 16.4021C27.4057 16.1019 27.1601 15.8472 26.8508 15.8472C26.7325 15.8472 26.6142 15.8836 26.5233 15.9563C26.496 15.1649 26.3231 14.519 25.4316 14.4644C25.5135 14.2188 25.7682 14.1733 25.9501 14.1642V13.9095C25.8228 13.9095 25.6227 13.9459 25.4498 14.0823C25.5499 13.7184 25.7682 13.6366 25.9865 13.5911L25.9501 13.3364C25.6317 13.3909 25.4225 13.5547 25.2952 13.8276C25.1678 13.5547 24.9586 13.3909 24.6402 13.3364L24.6038 13.5911C24.8221 13.6275 25.0404 13.7184 25.1405 14.0823C24.9677 13.9459 24.7675 13.9186 24.6493 13.9095V14.1642C24.8221 14.1642 25.0768 14.2188 25.1587 14.4644C24.7038 14.519 24.3309 14.8192 24.2581 15.174C23.8123 15.1831 23.2847 15.5015 23.2119 16.3657L23.3393 16.4021C23.3666 16.3293 23.5303 16.202 24.0943 16.2656H24.1307L24.1125 16.7569C23.7759 17.2936 23.403 18.2215 23.3575 19.2222C23.3211 20.0045 23.4848 21.0962 24.4218 21.8967C24.5856 22.0332 24.8676 22.2333 25.0859 22.3698C25.2133 22.8519 25.7864 24.1255 26.1321 24.8624C26.1412 24.8897 26.1685 24.9079 26.1958 24.917L25.8683 25.8449C24.7311 25.8449 24.2126 25.8995 24.0852 26.2997C23.9397 26.7819 24.0943 27.4278 24.6675 27.7371V29.2927H22.1839V20.0227C22.1839 17.3573 22.566 15.1831 23.4302 13.3637C24.4582 11.2804 25.8228 10.5617 27.9333 10.9893C27.624 11.2622 27.5058 11.5988 27.6058 11.9445C27.7514 12.4267 28.279 12.7723 28.8794 12.7723C29.0159 12.7723 29.1523 12.7542 29.2888 12.7178C29.7891 12.5813 30.0711 12.3448 30.2986 12.1537C30.4987 11.99 30.6443 11.8717 30.8535 11.8899H30.9445L31.0263 11.6443L30.9445 11.5988C30.7625 11.4987 30.7079 11.335 30.6261 11.0803C30.5351 10.7983 30.4259 10.4435 30.0802 10.0614C29.7891 9.74301 29.3889 9.55197 28.9704 9.55197C28.5883 9.55197 28.2608 9.70662 28.088 9.97953C27.9879 10.1433 27.8969 10.398 27.997 10.771C26.6415 10.4981 25.5681 10.68 24.6947 11.3623C25.841 9.92495 27.2601 8.90607 28.7248 7.92358C28.7248 8.25108 28.8248 8.46941 28.934 8.59677C29.0977 8.79691 29.3525 8.90607 29.6527 8.90607C30.1621 8.90607 30.6534 8.58767 30.9081 8.10553C31.1446 7.65067 31.1719 7.27769 31.1901 6.98658C31.2083 6.72277 31.2174 6.54082 31.372 6.40437L31.4448 6.34069L31.3083 6.10416L31.2174 6.13145C31.0263 6.19513 30.8535 6.13145 30.617 6.01319C30.3531 5.88583 30.0166 5.73118 29.498 5.72208H29.4707C28.7066 5.72208 28.1607 6.25881 28.0789 6.76825C28.0152 7.16852 28.2153 7.51421 28.6247 7.72345C27.151 8.71503 25.7773 9.73391 24.6584 11.0621C24.9859 10.3161 25.1314 9.63384 25.1041 8.99704C25.2588 9.06072 25.4043 9.09711 25.5499 9.09711C25.8956 9.09711 26.1867 8.89698 26.3413 8.56038C26.5233 8.16011 26.5142 7.54151 26.0775 7.04116C25.7409 6.64999 25.4043 6.49534 25.1314 6.36798C24.8858 6.25881 24.7311 6.18604 24.6493 5.9859L24.6129 5.89493L24.3491 5.94041V6.03139C24.34 6.24062 24.2126 6.35888 24.0125 6.54082C23.7941 6.74096 23.5303 6.99568 23.3302 7.47783C23.1391 7.94178 23.1846 8.46941 23.4484 8.85149C23.6395 9.1426 23.9215 9.30634 24.2217 9.30634C24.3854 9.30634 24.622 9.25176 24.8676 9.04253C24.8949 9.97953 24.5219 11.0348 23.7395 12.2538C22.9663 13.491 22.4387 14.9011 22.1385 16.5385V11.1985C22.1385 6.67728 23.8396 5.13987 25.377 4.67592C25.277 5.0489 25.3679 5.31271 25.468 5.47646C25.6408 5.74028 25.9683 5.89493 26.3322 5.89493C26.7598 5.89493 27.1601 5.70389 27.4512 5.3673C27.7878 4.97612 27.8969 4.62133 27.9788 4.33932C28.0516 4.0846 28.1062 3.91176 28.2881 3.81169L28.37 3.7662L28.2881 3.51149H28.1971C27.9879 3.54787 27.8423 3.42961 27.6422 3.26586C27.4148 3.08392 27.1237 2.8474 26.6233 2.72004C26.496 2.68365 26.3686 2.67455 26.2413 2.67455C25.6408 2.67455 25.1041 3.02934 24.9586 3.52058C24.8585 3.86627 24.9768 4.20287 25.2952 4.46668C24.4582 4.7214 23.7486 5.23084 23.2028 5.96771C22.6843 6.66818 22.3204 7.5597 22.1021 8.64226V4.33023C22.2931 4.44849 22.4841 4.51217 22.6661 4.51217C22.9845 4.51217 23.2756 4.33022 23.4484 4.01183C23.685 3.57516 23.6577 2.99295 23.3666 2.53809C23.0846 2.10143 22.7753 1.9013 22.5296 1.73755C22.3022 1.59199 22.1567 1.49193 22.1112 1.29179L22.093 1.20082H21.8201L21.8019 1.30089C21.7655 1.51012 21.6199 1.61019 21.4016 1.76484C21.156 1.93768 20.8558 2.14692 20.5919 2.59268C20.319 3.04753 20.3008 3.62065 20.5465 4.04821C20.7284 4.35752 21.0104 4.53946 21.3288 4.53946C21.5108 4.53946 21.6927 4.48488 21.8746 4.36661V8.61497C21.5562 7.02297 20.8922 6.34069 19.8278 5.76757C20.1735 5.52195 20.3281 5.18535 20.2463 4.82147C20.1189 4.28474 19.5458 3.88447 18.909 3.88447C18.8362 3.88447 18.7634 3.88447 18.6816 3.90266C18.1721 3.97544 17.8628 4.17557 17.6081 4.33932C17.3898 4.47578 17.226 4.57585 17.0259 4.53946L16.9349 4.52126L16.8257 4.76689L16.9076 4.82147C17.0805 4.93973 17.1078 5.11258 17.1623 5.37639C17.2169 5.6675 17.2806 6.03138 17.5808 6.45895C17.8628 6.85922 18.3177 7.10484 18.7816 7.10484C19.1182 7.10484 19.4093 6.96839 19.5731 6.74096C19.6822 6.59541 19.7823 6.34978 19.7186 5.9768C21.2106 6.77735 21.8383 7.83261 21.8383 11.6352V17.3937C21.3015 14.237 19.6367 11.8262 16.9349 10.2979C17.3079 10.1069 17.6991 9.93405 18.0993 9.7794C18.0175 10.1524 18.1175 10.4071 18.2267 10.5617C18.3995 10.8074 18.6997 10.9438 19.0454 10.9438C19.4912 10.9438 19.937 10.7164 20.219 10.3434C20.5283 9.93405 20.6101 9.57016 20.6738 9.27905C20.7284 9.01524 20.7739 8.84239 20.9467 8.73323L21.0286 8.67864L20.9285 8.42393L20.8376 8.44212C20.6374 8.47851 20.4828 8.37844 20.2645 8.22379C20.0188 8.05094 19.7186 7.84171 19.2092 7.75074C19.1182 7.73255 19.0272 7.72345 18.9272 7.72345C18.3086 7.72345 17.7355 8.11462 17.6081 8.62406C17.5262 8.96975 17.6445 9.28815 17.9538 9.54287C17.4898 9.72481 17.0532 9.92495 16.6438 10.1433C16.2253 9.92495 15.7887 9.72481 15.3338 9.54287C15.6431 9.29725 15.7614 8.96975 15.6795 8.62406C15.5521 8.10553 14.9881 7.72345 14.3604 7.72345C14.2695 7.72345 14.1785 7.72345 14.0784 7.75074C13.569 7.84171 13.2688 8.05094 13.0232 8.22379C12.8048 8.37844 12.6502 8.47851 12.45 8.44212L12.3591 8.42393L12.259 8.67864L12.3409 8.73323C12.5137 8.84239 12.5592 9.01524 12.6138 9.27905C12.6775 9.57016 12.7593 9.92495 13.0686 10.3434C13.3506 10.7255 13.7964 10.9438 14.2422 10.9438C14.5879 10.9438 14.8881 10.8074 15.0609 10.5617C15.1701 10.4071 15.2701 10.1615 15.1883 9.7794C15.5976 9.93405 15.9888 10.1069 16.3527 10.2979C13.6509 11.8262 11.9861 14.2279 11.4494 17.3937V11.6352C11.4494 7.83261 12.0861 6.77735 13.569 5.9768C13.5053 6.34978 13.6054 6.58631 13.7145 6.74096C13.8874 6.96839 14.1785 7.10484 14.506 7.10484C14.9699 7.10484 15.4248 6.85922 15.7068 6.45895C16.007 6.03138 16.0707 5.6675 16.1253 5.37639C16.1708 5.11258 16.2071 4.93973 16.38 4.82147L16.4619 4.76689L16.3527 4.52126L16.2617 4.53946C16.0616 4.58494 15.8978 4.48488 15.6795 4.33932C15.4339 4.17557 15.1155 3.98453 14.606 3.90266C14.5333 3.89356 14.4605 3.88447 14.3786 3.88447C13.7418 3.88447 13.1687 4.28474 13.0413 4.82147C12.9595 5.18535 13.1141 5.52195 13.4598 5.76757C12.3954 6.34069 11.7314 7.02297 11.413 8.61497V4.36661C11.5949 4.48488 11.7768 4.53946 11.9588 4.53946C12.2772 4.53946 12.5592 4.35752 12.7411 4.04821C12.9868 3.62065 12.9686 3.04753 12.6957 2.59268C12.4318 2.14692 12.1316 1.93768 11.886 1.76484C11.6677 1.61019 11.5221 1.51012 11.4857 1.30089L11.4675 1.20992H11.1946L11.1764 1.30089C11.131 1.51012 10.9854 1.60109 10.758 1.74665C10.5123 1.91039 10.203 2.11053 9.92104 2.54719C9.62993 3.00205 9.60264 3.58426 9.83916 4.02092C10.012 4.33932 10.294 4.52126 10.6215 4.52126C10.8126 4.52126 10.9945 4.45758 11.1855 4.33932V8.65135C10.9672 7.5688 10.6033 6.66818 10.0848 5.9768C9.52986 5.23994 8.82938 4.7305 7.99245 4.47578C8.30175 4.21196 8.42911 3.87537 8.32904 3.52968C8.19258 3.03844 7.64676 2.68365 7.04635 2.68365C6.91899 2.68365 6.79163 2.70184 6.66427 2.72913C6.16393 2.85649 5.87282 3.08392 5.64539 3.27496C5.43616 3.43871 5.2997 3.55697 5.09047 3.52968H4.9995L4.91762 3.7753L4.9995 3.82079C5.18144 3.92086 5.23602 4.0937 5.3088 4.34842C5.39067 4.63043 5.49984 4.98522 5.83643 5.37639C6.12754 5.71299 6.53691 5.90403 6.95538 5.90403C7.32836 5.90403 7.64676 5.74937 7.8196 5.48556C7.92877 5.32181 8.01974 5.06709 7.91057 4.68501C9.44799 5.14897 11.1491 6.68638 11.1491 11.2076V16.5476C10.858 14.9193 10.3304 13.5092 9.54805 12.2629C8.7657 11.0439 8.40182 9.98863 8.42001 9.05163C8.66563 9.26996 8.90216 9.31544 9.06591 9.31544C9.36611 9.31544 9.64812 9.15169 9.83916 8.86059C10.103 8.46941 10.1485 7.94178 9.95742 7.48692C9.75729 7.00478 9.49347 6.75915 9.27514 6.54992C9.0841 6.36798 8.94765 6.24972 8.93855 6.04048V5.94951L8.66563 5.90403L8.62925 5.995C8.55647 6.19513 8.39272 6.26791 8.1471 6.37708C7.87419 6.50444 7.54669 6.65909 7.201 7.05026C6.76434 7.5506 6.75524 8.1783 6.93718 8.56948C7.09183 8.91517 7.38294 9.10621 7.72863 9.10621C7.87419 9.10621 8.01974 9.06982 8.17439 9.00614C8.1471 9.64294 8.30175 10.3252 8.62015 11.0712C7.5012 9.74301 6.13664 8.72413 4.65381 7.73254C5.06318 7.52331 5.26331 7.17762 5.19963 6.77735C5.11776 6.25881 4.57193 5.73118 3.80778 5.73118H3.78049C3.26195 5.74028 2.92536 5.89493 2.66154 6.02229C2.42502 6.13145 2.25217 6.21333 2.06113 6.14055L1.97016 6.11326L1.8337 6.34978L1.90648 6.41346C2.06113 6.54992 2.07023 6.73186 2.08842 6.99568C2.10662 7.29588 2.12481 7.65977 2.37043 8.11462C2.62515 8.60587 3.1164 8.91517 3.62583 8.91517C3.91694 8.91517 4.17166 8.806 4.34451 8.60587C4.45367 8.47851 4.56284 8.26927 4.55374 7.93268C6.02747 8.91517 7.43752 9.93405 8.58376 11.3714C7.71044 10.6891 6.62788 10.5072 5.28151 10.7801C5.38158 10.4071 5.2997 10.1524 5.19054 9.98863C5.01769 9.72481 4.6902 9.56106 4.30812 9.56106C3.88965 9.56106 3.48938 9.74301 3.19827 10.0705C2.85258 10.4526 2.74341 10.8074 2.65244 11.0894C2.57057 11.3441 2.51599 11.5169 2.33404 11.6079L2.25217 11.6534L2.33404 11.9081H2.42502C2.63425 11.8808 2.77071 11.9991 2.97994 12.1628C3.20737 12.3539 3.48938 12.5904 3.98972 12.7269C4.12618 12.7632 4.26263 12.7814 4.39909 12.7814C4.9904 12.7814 5.52713 12.4358 5.67268 11.9536C5.77275 11.6079 5.65449 11.2713 5.34519 10.9984C7.45572 10.5708 8.82029 11.2895 9.84826 13.3728C10.7125 15.1922 11.0946 17.3664 11.0946 20.0318V29.3018H8.42001V26.5636H6.90079C6.90079 26.4999 6.90079 26.4362 6.8826 26.3725C6.82802 26.0723 6.66427 25.8813 6.04567 25.854L6.34587 25.0898L6.61878 25.1353C6.61878 25.1353 6.62788 25.1353 6.63698 25.1353C6.66427 25.1353 6.69156 25.1262 6.71885 25.108C6.74614 25.0807 6.75524 25.0534 6.75524 25.0171L6.69156 24.2347C7.8287 25.3991 10.0666 27.8372 10.0939 27.8645C10.1121 27.8917 10.1485 27.9008 10.1758 27.9008C10.1758 27.9008 10.1849 27.9008 10.1939 27.9008L10.576 27.8463C10.576 27.8463 10.6488 27.819 10.667 27.7826C10.6852 27.7462 10.6852 27.7098 10.667 27.6734L8.23807 23.3523C9.23875 24.0437 10.012 24.5804 10.0211 24.5895C10.0393 24.6077 10.0666 24.6077 10.0848 24.6077C10.103 24.6077 10.1121 24.6077 10.1303 24.5986L10.3395 24.5076C10.3395 24.5076 10.3941 24.4712 10.4032 24.4439C10.4123 24.4166 10.4123 24.3803 10.4032 24.353C9.55715 22.6609 7.15551 18.3398 6.10025 16.9752C6.39136 16.957 6.62788 16.7205 6.62788 16.4203C6.62788 16.1201 6.38226 15.8654 6.07296 15.8654C5.9547 15.8654 5.83643 15.9018 5.74546 15.9745C5.71817 15.1831 5.54533 14.5372 4.65381 14.4826C4.73568 14.237 4.9904 14.1915 5.17234 14.1824V13.9277C5.04498 13.9277 4.84485 13.9641 4.672 14.1005C4.77207 13.7366 4.9904 13.6548 5.20873 13.6093L5.17234 13.3546C4.85394 13.4091 4.64471 13.5729 4.51735 13.8458C4.38999 13.5729 4.18076 13.4091 3.86236 13.3546L3.82597 13.6093C4.0443 13.6457 4.26263 13.7366 4.3627 14.1005C4.18986 13.9641 3.98972 13.9368 3.87146 13.9277V14.1824C4.0443 14.1824 4.29902 14.237 4.3809 14.4826C3.92604 14.5372 3.55306 14.8374 3.48028 15.1922C3.03452 15.2013 2.50689 15.5197 2.43411 16.3839L2.56147 16.4203C2.58876 16.3475 2.75251 16.2201 3.31653 16.2838H3.35292L3.33473 16.7751C2.99813 17.3118 2.62515 18.2397 2.57967 19.2404C2.54328 20.0227 2.70703 21.1144 3.64403 21.9149C3.80778 22.0514 4.08979 22.2515 4.30812 22.388C4.43548 22.8701 5.0086 24.1437 5.35429 24.8806C5.36338 24.9079 5.39067 24.9261 5.41797 24.9352L5.09047 25.8631C3.95333 25.8631 3.4348 25.9177 3.30744 26.3179C3.16188 26.8001 3.31653 27.446 3.88965 27.7553V29.3109H1.88829C1.32427 27.1549 1.25149 25.1171 1.29697 23.7162C1.29697 23.0157 1.31517 22.2788 1.32427 21.5147C1.41524 15.6379 1.5244 8.34205 0.205321 2.76552C5.69088 0.664089 12.8503 0.34569 16.6529 0.34569C20.4555 0.34569 27.624 0.664089 33.0823 2.73823C31.7632 8.31476 31.8724 15.6197 31.9633 21.4874ZM28.2881 10.8983C28.1425 10.5799 28.1425 10.307 28.279 10.0978C28.4064 9.89766 28.6611 9.7794 28.9613 9.7794C29.307 9.7794 29.6527 9.93405 29.8983 10.207C30.2076 10.5526 30.3077 10.871 30.3986 11.144C30.4623 11.3532 30.526 11.5351 30.6625 11.6716C30.4714 11.7171 30.3259 11.8353 30.153 11.9718C29.9347 12.1537 29.68 12.363 29.2251 12.4903C29.1159 12.5176 28.9977 12.5358 28.8794 12.5358C28.3973 12.5358 27.9424 12.2538 27.8332 11.8717C27.7423 11.5715 27.8878 11.2713 28.2517 11.0348L28.3336 10.9802L28.2972 10.8892L28.2881 10.8983ZM28.8976 7.57789C28.4519 7.42324 28.2335 7.14123 28.2972 6.78645C28.37 6.37708 28.8339 5.93132 29.4616 5.93132H29.4889C29.9529 5.93132 30.2531 6.07687 30.5078 6.20423C30.7079 6.2952 30.8808 6.37708 31.0718 6.37708C30.9718 6.54992 30.9627 6.74096 30.9536 6.95929C30.9354 7.2504 30.9172 7.57789 30.6988 7.98726C30.4805 8.39663 30.0711 8.66955 29.6436 8.66955C29.4161 8.66955 29.2251 8.58767 29.1068 8.44212C28.9613 8.27837 28.9158 8.02365 28.9704 7.71435L28.9886 7.61428L28.8976 7.57789ZM24.9222 8.63316L24.8585 8.70594C24.6584 8.94246 24.44 9.06982 24.2126 9.06982C23.9852 9.06982 23.7759 8.94246 23.6304 8.71503C23.4121 8.38754 23.3757 7.94178 23.5394 7.5506C23.7214 7.11394 23.9579 6.89561 24.1671 6.69547C24.3218 6.54992 24.4673 6.41346 24.531 6.23152C24.6493 6.38617 24.8312 6.46805 25.0222 6.55902C25.2861 6.67728 25.5772 6.81374 25.8865 7.16852C26.2503 7.58699 26.2594 8.11462 26.1139 8.44212C25.9956 8.69684 25.7864 8.84239 25.5317 8.84239C25.3679 8.84239 25.1951 8.78781 25.004 8.66955L24.9222 8.61497V8.63316ZM25.6317 4.39391C25.2679 4.16648 25.1132 3.86627 25.2042 3.55697C25.3133 3.17489 25.7682 2.88378 26.2594 2.88378C26.3686 2.88378 26.4778 2.90198 26.5869 2.92927C27.0418 3.04753 27.2965 3.24767 27.5239 3.42961C27.6968 3.56607 27.8423 3.68433 28.0334 3.72982C27.8969 3.87537 27.8423 4.05731 27.7787 4.26655C27.6968 4.53946 27.6058 4.85786 27.2965 5.21265C27.0509 5.49466 26.7052 5.6584 26.3504 5.6584C26.0593 5.6584 25.8046 5.54014 25.6772 5.3491C25.5408 5.14897 25.5408 4.86695 25.6772 4.55765L25.7136 4.46668L25.6317 4.4121V4.39391ZM19.4457 5.80396C19.5458 6.12236 19.5185 6.38617 19.382 6.56811C19.2547 6.74096 19.0363 6.84103 18.7725 6.84103C18.3904 6.84103 17.9993 6.63179 17.7627 6.2952C17.4989 5.91312 17.4352 5.58563 17.3807 5.30362C17.3443 5.09438 17.3079 4.90334 17.1896 4.74869C17.3807 4.7305 17.5444 4.63043 17.7264 4.51217C17.972 4.35752 18.2449 4.18467 18.7088 4.11189C18.7725 4.1028 18.8362 4.0937 18.8999 4.0937C19.4821 4.0937 19.9279 4.47578 20.0097 4.84876C20.0825 5.17626 19.9006 5.46736 19.5003 5.6675L19.4093 5.71299L19.4366 5.80396H19.4457ZM18.3268 9.47919C17.9356 9.26996 17.7627 8.97885 17.8446 8.65135C17.9356 8.29657 18.3723 7.92358 18.9363 7.92358C19.0181 7.92358 19.0909 7.92358 19.1728 7.94178C19.6368 8.02365 19.9006 8.21469 20.1371 8.37844C20.319 8.5058 20.4737 8.61496 20.6647 8.64226C20.5374 8.79691 20.501 8.97885 20.4555 9.19718C20.3918 9.47919 20.319 9.79759 20.037 10.1706C19.7914 10.489 19.4275 10.68 19.0454 10.68C18.7725 10.68 18.5451 10.5799 18.4177 10.398C18.2813 10.207 18.2631 9.93405 18.3723 9.62474L18.4086 9.53377L18.3177 9.48829L18.3268 9.47919ZM14.9244 9.61565C15.0336 9.93405 15.0154 10.1979 14.879 10.3889C14.7516 10.5708 14.5242 10.6709 14.2513 10.6709C13.8692 10.6709 13.5053 10.4799 13.2597 10.1615C12.9777 9.78849 12.9049 9.47009 12.8412 9.18808C12.7957 8.97885 12.7502 8.78781 12.632 8.63316C12.823 8.60587 12.9868 8.4967 13.1596 8.36934C13.3961 8.2056 13.669 8.02365 14.1239 7.93268C14.2058 7.91449 14.2786 7.91449 14.3604 7.91449C14.9335 7.91449 15.3611 8.28747 15.4521 8.64226C15.534 8.96066 15.3611 9.26086 14.9699 9.47009L14.879 9.51558L14.9153 9.60655L14.9244 9.61565ZM13.7964 5.6675C13.387 5.46736 13.2142 5.17626 13.287 4.84876C13.3688 4.47578 13.8146 4.0937 14.3968 4.0937C14.4605 4.0937 14.5242 4.0937 14.5879 4.11189C15.0518 4.17557 15.3247 4.35752 15.5703 4.51217C15.7523 4.63043 15.916 4.7305 16.1071 4.74869C15.9888 4.90334 15.9524 5.09438 15.916 5.30362C15.8615 5.58563 15.8069 5.91312 15.534 6.2952C15.2974 6.63179 14.9153 6.84103 14.5242 6.84103C14.2604 6.84103 14.042 6.74096 13.9147 6.56811C13.7782 6.37708 13.7509 6.11326 13.851 5.80396L13.8783 5.71299L13.7873 5.6675H13.7964ZM7.62856 4.53946C7.76502 4.85786 7.76502 5.13077 7.62856 5.33091C7.5012 5.52195 7.24649 5.64021 6.95538 5.64021C6.60059 5.64021 6.2549 5.47646 6.00928 5.19445C5.69998 4.83966 5.609 4.53036 5.52713 4.24835C5.46345 4.03912 5.40887 3.85718 5.27241 3.71162C5.46345 3.67523 5.6181 3.54787 5.78185 3.41142C6.00928 3.22947 6.264 3.02934 6.71885 2.91108C6.82802 2.88378 6.93718 2.86559 7.04635 2.86559C7.53759 2.86559 7.99245 3.1567 8.10161 3.53878C8.19258 3.84808 8.03793 4.13919 7.67405 4.37571L7.59218 4.43029L7.62856 4.52126V4.53946ZM8.38362 8.63316L8.30175 8.68774C8.11071 8.79691 7.93787 8.86059 7.77412 8.86059C7.5194 8.86059 7.31016 8.71503 7.1919 8.46031C7.03725 8.13282 7.05545 7.60519 7.41933 7.18672C7.72863 6.83193 8.01974 6.69547 8.28356 6.57721C8.48369 6.48624 8.65654 6.40437 8.7748 6.24972C8.83848 6.43166 8.98403 6.56811 9.13868 6.71367C9.34792 6.91381 9.58444 7.13214 9.76639 7.5688C9.93013 7.95997 9.89374 8.40573 9.67541 8.73323C9.52986 8.96066 9.31153 9.08801 9.0932 9.08801C8.87487 9.08801 8.65654 8.96066 8.4473 8.72413L8.38362 8.65135V8.63316ZM4.33541 7.71435C4.38999 8.02365 4.33541 8.26927 4.19895 8.44212C4.08069 8.58767 3.88965 8.66955 3.66222 8.66955C3.23466 8.66955 2.82529 8.40573 2.60696 7.98726C2.38863 7.5688 2.37043 7.2504 2.35224 6.95929C2.34314 6.74096 2.32495 6.54992 2.23398 6.37708C2.43411 6.37708 2.59786 6.3043 2.798 6.20423C3.06181 6.07687 3.35292 5.94041 3.81687 5.93132H3.84417C4.48096 5.93132 4.94492 6.37708 5.0086 6.78645C5.06318 7.14123 4.84485 7.42324 4.40819 7.57789L4.31721 7.61428L4.33541 7.71435ZM5.06318 11.0348C5.42706 11.2713 5.57262 11.5624 5.48165 11.8717C5.37248 12.2538 4.91762 12.5358 4.43548 12.5358C4.31722 12.5358 4.20805 12.5176 4.08979 12.4903C3.63493 12.3721 3.38931 12.1628 3.16188 11.9718C2.99813 11.8353 2.84348 11.708 2.65244 11.6716C2.7889 11.5351 2.84348 11.3441 2.91626 11.144C3.00723 10.871 3.0982 10.5526 3.4166 10.207C3.66222 9.93405 3.99882 9.7794 4.3536 9.7794C4.65381 9.7794 4.90853 9.89766 5.03589 10.0978C5.17234 10.307 5.16325 10.5799 5.02679 10.8983L4.9904 10.9893L5.07228 11.0439L5.06318 11.0348Z" fill="#231F20"/>
<path d="M6.0822 16.7479C6.26809 16.7479 6.41879 16.5972 6.41879 16.4113C6.41879 16.2254 6.26809 16.0747 6.0822 16.0747C5.8963 16.0747 5.74561 16.2254 5.74561 16.4113C5.74561 16.5972 5.8963 16.7479 6.0822 16.7479Z" fill="#FFD100"/>
<path d="M16.7531 16.7479C16.939 16.7479 17.0897 16.5972 17.0897 16.4113C17.0897 16.2254 16.939 16.0747 16.7531 16.0747C16.5672 16.0747 16.4165 16.2254 16.4165 16.4113C16.4165 16.5972 16.5672 16.7479 16.7531 16.7479Z" fill="#FFD100"/>
<path d="M26.8327 16.7479C27.0186 16.7479 27.1693 16.5972 27.1693 16.4113C27.1693 16.2254 27.0186 16.0747 26.8327 16.0747C26.6468 16.0747 26.4961 16.2254 26.4961 16.4113C26.4961 16.5972 26.6468 16.7479 26.8327 16.7479Z" fill="#FFD100"/>
</g>
</g>
<defs>
<clipPath id="clip0_682_326">
<rect width="177.112" height="40" fill="white"/>
</clipPath>
<clipPath id="clip1_682_326">
<rect width="33.6684" height="40" fill="white" transform="translate(-0.176758)"/>
</clipPath>
</defs>
</svg>
