<svg width="120" height="120" viewBox="0 0 120 120" fill="none" xmlns="http://www.w3.org/2000/svg">
<path opacity="0.24" d="M52.356 16.253C46.7688 16.5962 41.1048 17.3522 36.0144 19.6946C31.464 21.785 27.5448 25.0586 24.06 28.6562C20.8632 31.9562 17.9376 35.633 16.2672 39.9146C14.9256 43.3922 14.4504 47.1554 13.188 50.6762C10.8888 57.0554 6.05279 62.4242 4.63439 69.0506C4.16639 71.4194 4.04639 73.8434 4.27439 76.2482C5.36159 89.9762 14.7912 102.701 27.6048 107.734C33.4896 110.045 39.876 110.813 46.1952 110.897C54.0312 111.003 61.8432 110.093 69.6264 109.183C82.7856 107.643 96.3384 105.984 107.887 99.4922C109.562 98.549 111.206 97.4954 112.507 96.0842C114.35 94.1042 115.438 91.5338 116.148 88.9226C117.85 82.6058 117.542 75.917 115.267 69.785C113.642 65.4386 111.022 61.337 110.69 56.7098C110.338 51.8018 112.613 47.1434 113.909 42.3962C115.034 38.2682 115.243 32.813 112.56 29.1626C110.645 26.5562 106.922 25.6586 104.054 24.5306C93.5208 20.3786 82.464 17.7146 71.196 16.6106C64.9344 15.9962 58.6344 15.8762 52.3536 16.2554L52.356 16.253Z" fill="#0A6B3E"/>
<path d="M59.3328 100.574C71.742 100.574 81.8016 99.0679 81.8016 97.2095C81.8016 95.3512 71.742 93.8447 59.3328 93.8447C46.9236 93.8447 36.864 95.3512 36.864 97.2095C36.864 99.0679 46.9236 100.574 59.3328 100.574Z" fill="url(#paint0_linear_682_1589)"/>
<path d="M60.2473 49.96H58.1593C45.1585 49.96 34.6201 60.4984 34.6201 73.4992V75.5872C34.6201 88.588 45.1585 99.1264 58.1593 99.1264H60.2473C73.2481 99.1264 83.7865 88.588 83.7865 75.5872V73.4992C83.7865 60.4984 73.2481 49.96 60.2473 49.96ZM82.4281 75.3568C82.4281 87.5848 72.5185 97.4968 60.2905 97.4968H58.3297C46.1017 97.4968 36.1897 87.5872 36.1897 75.3592V73.3912C36.1897 61.1656 46.1017 51.256 58.3297 51.256H60.2905C72.5161 51.256 82.4281 61.1656 82.4305 73.3912V75.3568H82.4281Z" fill="#0A6B3E"/>
<path opacity="0.24" d="M82.428 73.392V75.3576C82.428 76.032 82.4016 76.7016 82.3392 77.3544C81.3048 88.7616 71.7432 97.4976 60.288 97.4976H58.3296C46.8768 97.4952 37.3176 88.7592 36.2856 77.3544C36.2232 76.6944 36.1968 76.0344 36.1968 75.3576V73.392C36.1968 61.1688 46.1064 51.2592 58.3296 51.2568H60.288C72.5136 51.2568 82.4256 61.1664 82.428 73.392Z" fill="#0A6B3E"/>
<path opacity="0.24" d="M82.3392 77.3537C81.3048 88.7609 71.7432 97.4969 60.288 97.4969H58.3296C46.8768 97.4945 37.3176 88.7585 36.2856 77.3537C37.3176 65.9441 46.884 57.2081 58.3392 57.2129H60.2976C71.748 57.2129 81.3072 65.9489 82.3392 77.3537Z" fill="#0A6B3E"/>
<path d="M59.2847 83.6319C62.3479 83.6319 64.8311 81.1487 64.8311 78.0855C64.8311 75.0223 62.3479 72.5391 59.2847 72.5391C56.2215 72.5391 53.7383 75.0223 53.7383 78.0855C53.7383 81.1487 56.2215 83.6319 59.2847 83.6319Z" fill="#0A6B3E"/>
<path d="M58.7424 83.335C61.8056 83.335 64.2888 80.8518 64.2888 77.7886C64.2888 74.7254 61.8056 72.2422 58.7424 72.2422C55.6793 72.2422 53.196 74.7254 53.196 77.7886C53.196 80.8518 55.6793 83.335 58.7424 83.335Z" fill="url(#paint1_linear_682_1589)"/>
<path d="M58.7424 82.5137C61.3523 82.5137 63.468 80.398 63.468 77.7881C63.468 75.1782 61.3523 73.0625 58.7424 73.0625C56.1326 73.0625 54.0168 75.1782 54.0168 77.7881C54.0168 80.398 56.1326 82.5137 58.7424 82.5137Z" fill="#0A6B3E"/>
<path d="M56.928 80.1881L57.2928 79.5281C56.9376 79.3313 56.6448 79.0385 56.448 78.6857L56.8464 78.3329C57.0288 78.6689 57.3024 78.9473 57.6384 79.1345C58.104 79.3913 58.5672 79.2953 58.7736 78.9137C58.98 78.5321 58.8384 78.1889 58.4616 77.7233C57.936 77.0921 57.6864 76.5617 58.0008 75.9929C58.3152 75.4241 58.9152 75.2441 59.5752 75.4793L59.94 74.8193L60.348 75.0401L59.9952 75.6761C60.2928 75.8441 60.5448 76.0865 60.7224 76.3769L60.3192 76.7201C60.1512 76.4321 59.9088 76.1969 59.616 76.0409C59.1096 75.7649 58.752 75.9593 58.608 76.2233C58.4184 76.5641 58.5696 76.8689 59.0112 77.4209C59.5368 78.0689 59.6904 78.5969 59.3664 79.1801C59.0832 79.6985 58.4544 79.9865 57.7152 79.7249L57.3408 80.4089L56.9256 80.1857L56.928 80.1881Z" fill="url(#paint2_linear_682_1589)"/>
<path d="M49.6873 85.833C52.7505 85.833 55.2337 83.3498 55.2337 80.2866C55.2337 77.2234 52.7505 74.7402 49.6873 74.7402C46.6241 74.7402 44.1409 77.2234 44.1409 80.2866C44.1409 83.3498 46.6241 85.833 49.6873 85.833Z" fill="#0A6B3E"/>
<path d="M49.2337 85.4151C52.2968 85.4151 54.7801 82.9319 54.7801 79.8687C54.7801 76.8055 52.2968 74.3223 49.2337 74.3223C46.1705 74.3223 43.6873 76.8055 43.6873 79.8687C43.6873 82.9319 46.1705 85.4151 49.2337 85.4151Z" fill="url(#paint3_linear_682_1589)"/>
<path d="M49.2337 84.5948C51.8435 84.5948 53.9593 82.479 53.9593 79.8692C53.9593 77.2593 51.8435 75.1436 49.2337 75.1436C46.6238 75.1436 44.5081 77.2593 44.5081 79.8692C44.5081 82.479 46.6238 84.5948 49.2337 84.5948Z" fill="#0A6B3E"/>
<path d="M46.9007 81.7676L47.4143 81.2108C47.1167 80.9348 46.9007 80.582 46.7927 80.1932L47.2631 79.9436C47.3591 80.3156 47.5583 80.6492 47.8415 80.9084C48.2327 81.2684 48.7055 81.2876 48.9959 80.9708C49.2863 80.654 49.2311 80.282 48.9743 79.742C48.6143 79.0052 48.4991 78.422 48.9383 77.9492C49.3775 77.4764 50.0063 77.4428 50.5895 77.8268L51.1007 77.2676L51.4439 77.582L50.9519 78.1196C51.2039 78.3524 51.3887 78.6452 51.4919 78.9716L51.0263 79.2092C50.9279 78.8924 50.7479 78.6068 50.5007 78.3836C50.0759 77.9924 49.6823 78.1004 49.4807 78.3188C49.2167 78.6068 49.2887 78.938 49.5887 79.5764C49.9439 80.33 49.9679 80.882 49.5167 81.374C49.1159 81.8132 48.4391 81.9404 47.7839 81.5132L47.2559 82.0868L46.9031 81.7676H46.9007Z" fill="url(#paint4_linear_682_1589)"/>
<path d="M69.0457 85.4756C72.1089 85.4756 74.5921 82.9924 74.5921 79.9292C74.5921 76.866 72.1089 74.3828 69.0457 74.3828C65.9825 74.3828 63.4993 76.866 63.4993 79.9292C63.4993 82.9924 65.9825 85.4756 69.0457 85.4756Z" fill="#0A6B3E"/>
<path d="M68.4624 85.6797C71.5256 85.6797 74.0088 83.1965 74.0088 80.1333C74.0088 77.0701 71.5256 74.5869 68.4624 74.5869C65.3992 74.5869 62.916 77.0701 62.916 80.1333C62.916 83.1965 65.3992 85.6797 68.4624 85.6797Z" fill="url(#paint5_linear_682_1589)"/>
<path d="M68.4624 84.8584C71.0723 84.8584 73.188 82.7427 73.188 80.1328C73.188 77.523 71.0723 75.4072 68.4624 75.4072C65.8525 75.4072 63.7368 77.523 63.7368 80.1328C63.7368 82.7427 65.8525 84.8584 68.4624 84.8584Z" fill="#0A6B3E"/>
<path d="M69.0313 83.0852L68.7817 82.37C68.3977 82.502 67.9849 82.5236 67.5889 82.4348V81.902C67.9609 81.9932 68.3521 81.9764 68.7145 81.8516C69.2161 81.6764 69.4561 81.2684 69.3145 80.8628C69.1729 80.4572 68.8201 80.3276 68.2153 80.2988C67.3945 80.2652 66.8353 80.0972 66.6193 79.478C66.4033 78.8588 66.6793 78.2996 67.2913 77.966L67.0417 77.2508L67.4809 77.0996L67.7209 77.786C68.0449 77.6756 68.3929 77.6516 68.7289 77.714L68.7145 78.242C68.3881 78.1748 68.0497 78.1988 67.7377 78.3116C67.1953 78.5012 67.1017 78.8996 67.2001 79.1924C67.3273 79.562 67.6537 79.6532 68.3569 79.6964C69.1897 79.7372 69.6769 79.9796 69.8977 80.6084C70.0945 81.1676 69.8857 81.8276 69.1993 82.202L69.4561 82.9388L69.0265 83.0828L69.0313 83.0852Z" fill="url(#paint6_linear_682_1589)"/>
<path d="M70.752 52.6528C70.752 54.664 64.7712 56.3008 57.396 56.3008C50.0208 56.3008 44.0352 54.664 44.0352 52.6528C44.0352 52.2136 43.7016 49.6096 44.1624 48.9736C44.0784 49.1296 44.0352 49.3024 44.0352 49.48C44.0352 51.4984 50.016 53.1304 57.396 53.1304C64.776 53.1304 70.596 51.5392 70.7448 49.5568C70.908 50.6368 70.752 52.2736 70.752 52.6552V52.6528Z" fill="#0A6B3E"/>
<path d="M70.752 52.6528C70.752 54.664 64.7712 56.3008 57.396 56.3008C50.0208 56.3008 44.0352 54.664 44.0352 52.6528C44.0352 52.2136 43.7016 49.6096 44.1624 48.9736C44.0784 49.1296 44.0352 49.3024 44.0352 49.48C44.0352 51.4984 50.016 53.1304 57.396 53.1304C64.776 53.1304 70.596 51.5392 70.7448 49.5568C70.908 50.6368 70.752 52.2736 70.752 52.6552V52.6528Z" fill="url(#paint7_linear_682_1589)"/>
<path d="M70.7448 49.552C70.6008 51.532 64.68 53.1256 57.396 53.1256C50.112 53.1256 44.0352 51.496 44.0352 49.4752C44.0352 49.2976 44.0784 49.1248 44.1624 48.9688C45.0864 47.188 50.6568 45.832 57.4056 45.832C63.7632 45.832 69.0816 47.0464 70.4208 48.676C70.4736 48.7216 70.5168 48.7768 70.5504 48.8392C70.6536 49.0624 70.7208 49.3048 70.7472 49.5496L70.7448 49.552Z" fill="#0A6B3E"/>
<path d="M70.7521 49.4782C70.7545 49.5022 70.7545 49.5286 70.7521 49.5526C70.7257 49.303 70.6561 49.0606 70.5481 48.835C70.6825 49.0222 70.7545 49.2478 70.7521 49.4782Z" fill="#0A6B3E"/>
<path d="M62.3399 48.6816H52.2263V49.512H62.3399V48.6816Z" fill="url(#paint8_linear_682_1589)"/>
<path d="M54.3168 46.3625C57.6583 46.3625 60.3672 43.6537 60.3672 40.3121C60.3672 36.9706 57.6583 34.2617 54.3168 34.2617C50.9752 34.2617 48.2664 36.9706 48.2664 40.3121C48.2664 43.6537 50.9752 46.3625 54.3168 46.3625Z" fill="#0A6B3E"/>
<path d="M53.5943 46.4231C56.9359 46.4231 59.6447 43.7142 59.6447 40.3727C59.6447 37.0311 56.9359 34.3223 53.5943 34.3223C50.2528 34.3223 47.5439 37.0311 47.5439 40.3727C47.5439 43.7142 50.2528 46.4231 53.5943 46.4231Z" fill="#0A6B3E"/>
<path d="M53.6449 46.3625C56.9864 46.3625 59.6953 43.6537 59.6953 40.3121C59.6953 36.9706 56.9864 34.2617 53.6449 34.2617C50.3033 34.2617 47.5945 36.9706 47.5945 40.3121C47.5945 43.6537 50.3033 46.3625 53.6449 46.3625Z" fill="url(#paint9_linear_682_1589)"/>
<path d="M53.6447 45.4676C56.4918 45.4676 58.7999 43.1596 58.7999 40.3124C58.7999 37.4653 56.4918 35.1572 53.6447 35.1572C50.7976 35.1572 48.4895 37.4653 48.4895 40.3124C48.4895 43.1596 50.7976 45.4676 53.6447 45.4676Z" fill="#0A6B3E"/>
<path d="M53.172 43.5594V42.7314C52.7304 42.7314 52.296 42.6066 51.9192 42.3738L52.116 41.8266C52.4664 42.0546 52.8768 42.1746 53.2944 42.177C53.8752 42.177 54.2664 41.8434 54.2664 41.3754C54.2664 40.9074 53.9472 40.6482 53.3424 40.401C52.5096 40.0746 51.9912 39.7002 51.9912 38.9874C51.9912 38.2746 52.476 37.7922 53.2272 37.6674V36.8418H53.7336V37.6362C54.108 37.6362 54.4752 37.737 54.7992 37.9218L54.5952 38.4618C54.2832 38.277 53.9256 38.181 53.5632 38.1858C52.9344 38.1858 52.6968 38.5626 52.6968 38.8866C52.6968 39.3138 52.9992 39.5274 53.712 39.8202C54.5544 40.1658 54.9816 40.5906 54.9816 41.3178C54.9816 41.9634 54.5424 42.5706 53.688 42.7074V43.5594H53.1744H53.172Z" fill="url(#paint10_linear_682_1589)"/>
<path d="M51.9312 33.9766C54.9944 33.9766 57.4776 31.4934 57.4776 28.4302C57.4776 25.367 54.9944 22.8838 51.9312 22.8838C48.868 22.8838 46.3848 25.367 46.3848 28.4302C46.3848 31.4934 48.868 33.9766 51.9312 33.9766Z" fill="#0A6B3E"/>
<path d="M51.3169 33.9766C54.3801 33.9766 56.8633 31.4934 56.8633 28.4302C56.8633 25.367 54.3801 22.8838 51.3169 22.8838C48.2537 22.8838 45.7705 25.367 45.7705 28.4302C45.7705 31.4934 48.2537 33.9766 51.3169 33.9766Z" fill="#0A6B3E"/>
<path d="M51.3169 33.9766C54.3801 33.9766 56.8633 31.4934 56.8633 28.4302C56.8633 25.367 54.3801 22.8838 51.3169 22.8838C48.2537 22.8838 45.7705 25.367 45.7705 28.4302C45.7705 31.4934 48.2537 33.9766 51.3169 33.9766Z" fill="url(#paint11_linear_682_1589)"/>
<path d="M51.3167 33.1553C53.9265 33.1553 56.0423 31.0396 56.0423 28.4297C56.0423 25.8198 53.9265 23.7041 51.3167 23.7041C48.7068 23.7041 46.5911 25.8198 46.5911 28.4297C46.5911 31.0396 48.7068 33.1553 51.3167 33.1553Z" fill="#0A6B3E"/>
<path d="M50.8823 31.4056V30.6544C50.4767 30.6544 50.0783 30.5392 49.7351 30.3256L49.9151 29.824C50.2367 30.0304 50.6111 30.1432 50.9951 30.1456C51.5279 30.1456 51.8879 29.8384 51.8879 29.4112C51.8879 28.984 51.5951 28.7512 51.0383 28.5184C50.2751 28.2184 49.8023 27.8728 49.8023 27.2224C49.8023 26.572 50.2415 26.1232 50.9351 26.0152V25.252H51.3983V25.9768C51.7415 25.9792 52.0751 26.0704 52.3727 26.2408L52.1855 26.7352C51.9023 26.5648 51.5759 26.4736 51.2447 26.476C50.6663 26.476 50.4479 26.8216 50.4479 27.1216C50.4479 27.5104 50.7239 27.7072 51.3791 27.976C52.1519 28.2928 52.5407 28.6816 52.5407 29.3488C52.5407 29.9416 52.1303 30.496 51.3575 30.6256V31.4032L50.8823 31.408V31.4056Z" fill="url(#paint12_linear_682_1589)"/>
<path d="M42.2329 27.8301C45.2961 27.8301 47.7793 25.3469 47.7793 22.2837C47.7793 19.2205 45.2961 16.7373 42.2329 16.7373C39.1697 16.7373 36.6865 19.2205 36.6865 22.2837C36.6865 25.3469 39.1697 27.8301 42.2329 27.8301Z" fill="#0A6B3E"/>
<path d="M41.6184 27.8301C44.6816 27.8301 47.1648 25.3469 47.1648 22.2837C47.1648 19.2205 44.6816 16.7373 41.6184 16.7373C38.5552 16.7373 36.072 19.2205 36.072 22.2837C36.072 25.3469 38.5552 27.8301 41.6184 27.8301Z" fill="#0A6B3E"/>
<path d="M41.6184 27.8301C44.6816 27.8301 47.1648 25.3469 47.1648 22.2837C47.1648 19.2205 44.6816 16.7373 41.6184 16.7373C38.5552 16.7373 36.072 19.2205 36.072 22.2837C36.072 25.3469 38.5552 27.8301 41.6184 27.8301Z" fill="url(#paint13_linear_682_1589)"/>
<path d="M41.6184 27.0088C44.2283 27.0088 46.344 24.8931 46.344 22.2832C46.344 19.6733 44.2283 17.5576 41.6184 17.5576C39.0085 17.5576 36.8928 19.6733 36.8928 22.2832C36.8928 24.8931 39.0085 27.0088 41.6184 27.0088Z" fill="#0A6B3E"/>
<path d="M41.1841 25.26V24.4968C40.7785 24.4968 40.3825 24.3816 40.0369 24.168L40.2145 23.6664C40.5361 23.8752 40.9105 23.9856 41.2945 23.988C41.8273 23.988 42.1873 23.6832 42.1873 23.2536C42.1873 22.824 41.8945 22.5936 41.3401 22.3728C40.5745 22.0704 40.1017 21.7272 40.1017 21.0744C40.1017 20.4216 40.5409 19.9752 41.2345 19.8672V19.1064H41.6977V19.8336C42.0361 19.8384 42.3697 19.9296 42.6625 20.0976L42.4753 20.592C42.1897 20.4216 41.8633 20.3328 41.5321 20.3376C40.9537 20.3376 40.7353 20.6832 40.7353 20.9832C40.7353 21.372 41.0113 21.5688 41.6665 21.84C42.4393 22.1544 42.8281 22.5432 42.8281 23.2128C42.8281 23.8056 42.4177 24.36 41.6449 24.4872V25.2648H41.1817L41.1841 25.26Z" fill="url(#paint14_linear_682_1589)"/>
<path d="M66.5473 96.2541C63.2065 96.2061 60.5137 95.0614 60.5329 93.7006C60.5329 93.5494 60.4177 92.6974 60.4849 92.5534C61.0105 91.4086 63.6457 91.2741 66.6169 91.3173C69.5377 91.3581 71.9905 91.3174 72.5377 92.4453C72.6169 92.6062 72.6289 93.6982 72.6289 93.871C72.6121 95.2342 69.8857 96.2997 66.5473 96.2541Z" fill="#0A6B3E"/>
<path d="M72.587 92.7336C72.6065 91.3711 69.9137 90.2279 66.5725 90.18C63.2313 90.1322 60.507 91.1979 60.4875 92.5604C60.468 93.9229 63.1607 95.0661 66.5019 95.1139C69.8431 95.1618 72.5675 94.096 72.587 92.7336Z" fill="url(#paint15_linear_682_1589)"/>
<path d="M71.6917 92.7212C71.7083 91.5602 69.414 90.5859 66.5671 90.5452C63.7203 90.5044 61.399 91.4126 61.3824 92.5736C61.3658 93.7346 63.6601 94.7088 66.507 94.7496C69.3538 94.7903 71.6751 93.8822 71.6917 92.7212Z" fill="#0A6B3E"/>
<path d="M63.288 92.4016L64.116 92.4136C64.1472 92.1952 64.2864 92.0056 64.4832 91.9072L65.028 91.996C64.836 92.0848 64.6992 92.2624 64.6656 92.4712C64.6656 92.7064 64.9944 92.872 65.4624 92.8792C65.8272 92.908 66.1848 92.776 66.4416 92.5168C66.7728 92.1808 67.1544 91.9768 67.8648 91.9864C68.5752 91.996 69.0576 92.2072 69.1728 92.5096L70.0008 92.5216V92.728L69.2064 92.716C69.18 92.896 69.072 93.0544 68.9136 93.1456L68.3736 93.0544C68.5296 92.9704 68.6376 92.8144 68.6568 92.6368C68.6568 92.3824 68.2848 92.2792 67.9584 92.2744C67.6008 92.2528 67.2528 92.4016 67.02 92.6752C66.672 93.0136 66.2424 93.1816 65.5152 93.172C64.8696 93.16 64.2672 92.9704 64.1328 92.6248L63.2808 92.6128L63.2856 92.4064L63.288 92.4016Z" fill="url(#paint16_linear_682_1589)"/>
<path d="M89.3017 97.2135C85.9609 97.1679 83.2681 96.0231 83.2873 94.6599C83.2873 94.5087 83.1721 93.6591 83.2393 93.5151C83.7673 92.3703 86.4025 92.2359 89.3713 92.2767C92.2945 92.3175 94.7473 92.2767 95.2945 93.4047C95.3713 93.5679 95.3857 94.6599 95.3857 94.8303C95.3689 96.1935 92.6449 97.2615 89.3017 97.2135Z" fill="#0A6B3E"/>
<path d="M95.3453 93.6935C95.3648 92.3311 92.672 91.1878 89.3308 91.14C85.9896 91.0922 83.2653 92.1579 83.2458 93.5204C83.2263 94.8828 85.919 96.0261 89.2602 96.0739C92.6014 96.1217 95.3258 95.056 95.3453 93.6935Z" fill="url(#paint17_linear_682_1589)"/>
<path d="M94.4503 93.6801C94.4669 92.5191 92.1725 91.5449 89.3257 91.5042C86.4788 91.4634 84.1575 92.3716 84.1409 93.5326C84.1243 94.6936 86.4187 95.6678 89.2655 95.7085C92.1124 95.7493 94.4337 94.8411 94.4503 93.6801Z" fill="#0A6B3E"/>
<path d="M86.0474 93.3616L86.873 93.3736C86.9066 93.1552 87.0434 92.9656 87.2402 92.8672L87.7874 92.956C87.5954 93.0448 87.461 93.2224 87.4298 93.4312C87.4298 93.6688 87.7586 93.8344 88.2266 93.8392C88.589 93.8656 88.9466 93.7336 89.2058 93.4768C89.537 93.1408 89.9162 92.9368 90.6266 92.944C91.337 92.9512 91.8194 93.1648 91.9466 93.4672H92.7722V93.6736H91.9778C91.9538 93.8584 91.8458 94.0216 91.685 94.1128L91.1474 94.0216C91.3034 93.9376 91.409 93.7816 91.4306 93.6064C91.4306 93.3496 91.0586 93.2488 90.7322 93.244C90.3746 93.2224 90.0266 93.3712 89.7962 93.6448C89.4458 93.9832 89.0186 94.1512 88.2914 94.1392C87.6458 94.1392 87.041 93.94 86.9066 93.592L86.0546 93.58L86.0474 93.3592V93.3616Z" fill="url(#paint18_linear_682_1589)"/>
<path d="M90.2182 95.0544C86.8774 95.0064 84.1846 93.864 84.2038 92.5008C84.2038 92.3496 84.0886 91.5 84.1558 91.356C84.6814 90.2088 87.3166 90.0768 90.2878 90.1176C93.211 90.1584 95.6614 90.1176 96.211 91.2456C96.2878 91.4088 96.3022 92.5008 96.2998 92.6712C96.283 94.0344 93.5566 95.1096 90.2182 95.0544Z" fill="#0A6B3E"/>
<path d="M96.2584 91.5314C96.2779 90.169 93.5851 89.0257 90.2439 88.9779C86.9027 88.9301 84.1783 89.9958 84.1588 91.3582C84.1393 92.7207 86.8321 93.864 90.1733 93.9118C93.5145 93.9596 96.2389 92.8939 96.2584 91.5314Z" fill="url(#paint19_linear_682_1589)"/>
<path d="M95.3634 91.518C95.38 90.357 93.0856 89.3828 90.2388 89.3421C87.3919 89.3013 85.0706 90.2095 85.054 91.3705C85.0374 92.5315 87.3317 93.5057 90.1786 93.5464C93.0254 93.5872 95.3467 92.679 95.3634 91.518Z" fill="#0A6B3E"/>
<path d="M86.9594 91.2024L87.785 91.2144C87.8138 90.9936 87.953 90.804 88.1522 90.708L88.6994 90.7968C88.5074 90.8832 88.373 91.0632 88.3418 91.272C88.3418 91.5096 88.6706 91.6752 89.1362 91.68C89.501 91.7088 89.8586 91.5744 90.1154 91.3152C90.4466 90.9816 90.8282 90.7752 91.5386 90.7848C92.249 90.7944 92.7314 91.0056 92.8586 91.308H93.6842V91.5144H92.8898C92.8658 91.6992 92.7578 91.86 92.597 91.9536L92.057 91.8624C92.213 91.7784 92.3186 91.6224 92.3402 91.4472C92.3402 91.1904 91.9706 91.0896 91.6418 91.0824C91.2842 91.0632 90.9362 91.212 90.7034 91.4856C90.3554 91.824 89.9282 91.992 89.201 91.98C88.5554 91.98 87.9506 91.7784 87.8162 91.4328L86.9642 91.4208L86.957 91.2L86.9594 91.2024Z" fill="url(#paint20_linear_682_1589)"/>
<path d="M88.6801 93.0836C85.3417 93.038 82.6489 91.8932 82.6681 90.53C82.6681 90.3788 82.5529 89.5292 82.6177 89.3852C83.1457 88.2404 85.7809 88.106 88.7497 88.1468C91.6729 88.1876 94.1257 88.1468 94.6729 89.2748C94.7521 89.438 94.7641 90.53 94.7641 90.7004C94.7449 92.0636 92.0209 93.1292 88.6801 93.0836Z" fill="#0A6B3E"/>
<path d="M94.7225 89.5666C94.742 88.2041 92.0492 87.0609 88.708 87.013C85.3668 86.9652 82.6425 88.0309 82.623 89.3934C82.6035 90.7559 85.2962 91.8991 88.6374 91.9469C91.9786 91.9948 94.703 90.929 94.7225 89.5666Z" fill="url(#paint21_linear_682_1589)"/>
<path d="M93.8272 89.5532C93.8438 88.3922 91.5495 87.418 88.7026 87.3772C85.8558 87.3365 83.5345 88.2446 83.5179 89.4056C83.5013 90.5666 85.7956 91.5408 88.6425 91.5816C91.4893 91.6223 93.8106 90.7142 93.8272 89.5532Z" fill="#0A6B3E"/>
<path d="M85.4233 89.2317L86.2513 89.2437C86.2825 89.0253 86.4193 88.8357 86.6161 88.7373L87.1633 88.8261C86.9713 88.9149 86.8369 89.0925 86.8057 89.3013C86.8057 89.5389 87.1345 89.7045 87.6025 89.7093C87.9673 89.7381 88.3249 89.6037 88.5817 89.3469C88.9129 89.0109 89.2921 88.8069 90.0049 88.8141C90.6817 88.8261 91.1953 89.0349 91.3129 89.3373L92.1409 89.3493V89.5557L91.3489 89.5437C91.3249 89.7285 91.2169 89.8917 91.0561 89.9829L90.5161 89.8917C90.6721 89.8077 90.7777 89.6517 90.7993 89.4765C90.7993 89.2197 90.4273 89.1189 90.1009 89.1141C89.7433 89.0925 89.3953 89.2413 89.1625 89.5149C88.8145 89.8533 88.3849 90.0213 87.6577 90.0093C87.0121 90.0093 86.4073 89.8101 86.2729 89.4621L85.4233 89.4501V89.2293V89.2317Z" fill="url(#paint22_linear_682_1589)"/>
<path d="M89.3017 91.1637C85.9609 91.1157 83.2681 89.9733 83.2873 88.6101C83.2873 88.4589 83.1721 87.6093 83.2393 87.4653C83.7673 86.3181 86.4025 86.1861 89.3713 86.2269C92.2945 86.2677 94.7473 86.2269 95.2945 87.3549C95.3713 87.5181 95.3857 88.6101 95.3857 88.7805C95.3689 90.1437 92.6449 91.2117 89.3017 91.1637Z" fill="#0A6B3E"/>
<path d="M95.3458 87.6447C95.3653 86.2822 92.6725 85.139 89.3313 85.0912C85.9901 85.0433 83.2657 86.1091 83.2462 87.4715C83.2267 88.834 85.9195 89.9772 89.2607 90.0251C92.6019 90.0729 95.3263 89.0072 95.3458 87.6447Z" fill="url(#paint23_linear_682_1589)"/>
<path d="M94.4508 87.6323C94.4674 86.4713 92.173 85.4971 89.3262 85.4563C86.4793 85.4156 84.158 86.3237 84.1414 87.4847C84.1248 88.6457 86.4192 89.6199 89.266 89.6607C92.1128 89.7014 94.4341 88.7933 94.4508 87.6323Z" fill="#0A6B3E"/>
<path d="M86.0474 87.3118L86.873 87.3238C86.9066 87.1054 87.0434 86.9158 87.2402 86.8174L87.7874 86.9062C87.5954 86.995 87.461 87.1726 87.4298 87.3814C87.4298 87.619 87.7586 87.7846 88.2266 87.7894C88.589 87.8158 88.9466 87.6838 89.2058 87.427C89.537 87.091 89.9162 86.887 90.6266 86.8942C91.337 86.9038 91.8194 87.115 91.9466 87.4174H92.7722V87.6286H91.9778C91.9538 87.8134 91.8458 87.9766 91.685 88.0678L91.1474 87.9766C91.3034 87.8926 91.409 87.7366 91.4306 87.5614C91.4306 87.3046 91.0586 87.2038 90.7322 87.199C90.3746 87.1774 90.0266 87.3262 89.7962 87.5998C89.4458 87.9382 89.0186 88.1062 88.2914 88.0942C87.6458 88.0942 87.041 87.895 86.9066 87.547L86.0546 87.535L86.0474 87.3118Z" fill="url(#paint24_linear_682_1589)"/>
<path d="M89.3017 89.1233C85.9609 89.0753 83.2681 87.9305 83.2873 86.5697C83.2873 86.4185 83.1721 85.5665 83.2393 85.4225C83.7673 84.2777 86.4025 84.1433 89.3713 84.1865C92.2945 84.2273 94.7473 84.1865 95.2945 85.3145C95.3713 85.4753 95.3857 86.5673 95.3857 86.7401C95.3689 88.1009 92.6449 89.1713 89.3017 89.1233Z" fill="#0A6B3E"/>
<path d="M95.3487 85.5998C95.3682 84.2373 92.6755 83.0941 89.3343 83.0462C85.9931 82.9984 83.2687 84.0642 83.2492 85.4266C83.2297 86.7891 85.9225 87.9323 89.2637 87.9801C92.6049 88.028 95.3292 86.9622 95.3487 85.5998Z" fill="url(#paint25_linear_682_1589)"/>
<path d="M94.4537 85.5874C94.4703 84.4264 92.176 83.4521 89.3291 83.4114C86.4823 83.3707 84.161 84.2788 84.1443 85.4398C84.1277 86.6008 86.4221 87.575 89.2689 87.6158C92.1158 87.6565 94.4371 86.7484 94.4537 85.5874Z" fill="#0A6B3E"/>
<path d="M86.0474 85.2717L86.873 85.2837C86.9066 85.0653 87.0434 84.8757 87.2402 84.7773L87.7874 84.8661C87.5954 84.9549 87.4634 85.1325 87.4298 85.3413C87.4298 85.5789 87.7586 85.7445 88.2266 85.7493C88.5914 85.7781 88.949 85.6437 89.2058 85.3869C89.537 85.0509 89.9162 84.8469 90.6266 84.8565C91.337 84.8661 91.8194 85.0773 91.9466 85.3797L92.7722 85.3917V85.5981L91.9778 85.5861C91.9514 85.7661 91.8434 85.9245 91.685 86.0157L91.1474 85.9245C91.3034 85.8381 91.409 85.6845 91.4306 85.5069C91.4306 85.2525 91.0586 85.1493 90.7322 85.1445C90.3746 85.1229 90.0266 85.2717 89.7962 85.5453C89.4458 85.8837 89.0186 86.0517 88.2914 86.0421C87.6458 86.0421 87.041 85.8405 86.9066 85.4949L86.0546 85.4829L86.0474 85.2741V85.2717Z" fill="url(#paint26_linear_682_1589)"/>
<path d="M101.757 96.6168C98.8438 96.576 96.4942 95.5752 96.5086 94.3872C96.5086 94.2552 96.4102 93.5064 96.4678 93.3888C96.9286 92.3904 99.2254 92.2704 101.817 92.3088C104.369 92.3472 106.509 92.3088 106.987 93.2952C107.054 93.4368 107.069 94.3944 107.066 94.5384C107.049 95.7288 104.673 96.6528 101.757 96.6168Z" fill="#0A6B3E"/>
<path d="M106.605 93.1574C106.617 91.9685 104.264 90.9812 101.349 90.9522C98.4349 90.9232 96.0625 91.8635 96.0507 93.0524C96.0389 94.2413 98.392 95.2286 101.307 95.2576C104.221 95.2866 106.594 94.3463 106.605 93.1574Z" fill="url(#paint27_linear_682_1589)"/>
<path d="M106.247 93.5336C106.262 92.521 104.26 91.6714 101.776 91.6358C99.2925 91.6003 97.2673 92.3923 97.2528 93.4049C97.2383 94.4174 99.24 95.2671 101.724 95.3026C104.207 95.3382 106.233 94.5462 106.247 93.5336Z" fill="#0A6B3E"/>
<path d="M98.9135 93.2543L99.6359 93.2663C99.6647 93.0767 99.7823 92.9135 99.9551 92.8271L100.433 92.904C100.267 92.9832 100.15 93.1391 100.121 93.3191C100.121 93.5255 100.409 93.6695 100.817 93.6743C101.134 93.6959 101.446 93.5807 101.671 93.3575C101.993 93.0239 102.449 92.8536 102.912 92.8968C103.505 92.8968 103.954 93.0815 104.057 93.3527L104.779 93.3647V93.5447L104.088 93.5327C104.064 93.6911 103.97 93.828 103.834 93.9096L103.363 93.828C103.5 93.7536 103.589 93.6167 103.608 93.4631C103.608 93.2423 103.282 93.1511 102.998 93.1463C102.686 93.1271 102.382 93.2568 102.18 93.4968C101.875 93.792 101.503 93.9359 100.86 93.9359C100.296 93.9359 99.7607 93.7631 99.6527 93.4583H98.9111L98.9207 93.2568L98.9135 93.2543Z" fill="url(#paint28_linear_682_1589)"/>
<path d="M102.302 94.9385C99.3888 94.8977 97.0392 93.8993 97.056 92.7089C97.056 92.5769 96.9576 91.8281 97.0152 91.7105C97.476 90.7121 99.7728 90.5945 102.365 90.6305C104.914 90.6689 107.054 90.6305 107.532 91.6169C107.602 91.7585 107.614 92.7161 107.611 92.8601C107.597 94.0505 105.218 94.9817 102.302 94.9385Z" fill="#0A6B3E"/>
<path d="M107.572 91.8676C107.589 90.6788 105.24 89.6812 102.326 89.6395C99.4115 89.5978 97.0351 90.5277 97.0181 91.7166C97.0011 92.9054 99.3499 93.903 102.264 93.9447C105.179 93.9864 107.555 93.0565 107.572 91.8676Z" fill="url(#paint29_linear_682_1589)"/>
<path d="M106.792 91.8559C106.807 90.8433 104.805 89.9936 102.322 89.9581C99.8379 89.9225 97.8127 90.7146 97.7982 91.7271C97.7837 92.7397 99.7854 93.5894 102.269 93.6249C104.753 93.6605 106.778 92.8684 106.792 91.8559Z" fill="#0A6B3E"/>
<path d="M99.4585 91.5906H100.178C100.207 91.401 100.327 91.2354 100.5 91.1514L100.978 91.2282C100.81 91.305 100.692 91.461 100.666 91.641C100.666 91.8474 100.954 91.9938 101.359 91.9962C101.676 92.0226 101.99 91.905 102.216 91.6794C102.538 91.3434 102.994 91.173 103.457 91.2186C104.05 91.2186 104.498 91.4058 104.602 91.6746L105.322 91.6866V91.8666L104.628 91.8546C104.606 92.013 104.513 92.1522 104.374 92.2314L103.906 92.1522C104.042 92.0778 104.134 91.941 104.153 91.7874C104.153 91.5666 103.829 91.4754 103.543 91.4706C103.234 91.4538 102.934 91.5786 102.727 91.8114C102.425 92.1066 102.05 92.2506 101.407 92.2506C100.841 92.2506 100.308 92.0754 100.2 91.773L99.4585 91.761L99.4657 91.5906H99.4585Z" fill="url(#paint30_linear_682_1589)"/>
<path d="M102.302 93.1582C99.3888 93.1174 97.0392 92.119 97.056 90.9286C97.056 90.7966 96.9576 90.0478 97.0152 89.9302C97.476 88.9318 99.7728 88.8142 102.365 88.8502C104.914 88.8886 107.054 88.8502 107.532 89.8366C107.602 89.9782 107.614 90.9358 107.611 91.0798C107.597 92.2702 105.218 93.2014 102.302 93.1582Z" fill="#0A6B3E"/>
<path d="M107.573 90.0873C107.59 88.8985 105.241 87.9009 102.326 87.8592C99.412 87.8175 97.0356 88.7475 97.0186 89.9363C97.0016 91.1251 99.3504 92.1227 102.265 92.1644C105.179 92.2061 107.556 91.2762 107.573 90.0873Z" fill="url(#paint31_linear_682_1589)"/>
<path d="M106.792 90.0766C106.807 89.064 104.805 88.2143 102.322 88.1788C99.8379 88.1432 97.8127 88.9353 97.7982 89.9478C97.7837 90.9604 99.7854 91.8101 102.269 91.8456C104.753 91.8812 106.778 91.0891 106.792 90.0766Z" fill="#0A6B3E"/>
<path d="M99.4585 89.7954L100.178 89.8074C100.207 89.6178 100.327 89.4522 100.5 89.3682L100.978 89.4426C100.81 89.5194 100.692 89.6754 100.666 89.8578C100.666 90.0642 100.954 90.2106 101.359 90.213C101.676 90.2394 101.99 90.1218 102.216 89.8962C102.538 89.5602 102.994 89.3898 103.457 89.4354C104.05 89.4354 104.498 89.6226 104.602 89.8914L105.322 89.9034V90.0834L104.628 90.0714C104.606 90.2298 104.513 90.369 104.374 90.4482L103.906 90.369C104.042 90.2946 104.134 90.1578 104.153 90.0042C104.153 89.7834 103.829 89.6922 103.543 89.6874C103.231 89.6706 102.929 89.8002 102.725 90.0378C102.422 90.333 102.048 90.477 101.405 90.477C100.838 90.477 100.306 90.3018 100.198 89.9994L99.4561 89.9874L99.4657 89.7954H99.4585Z" fill="url(#paint32_linear_682_1589)"/>
<path d="M73.608 91.2717C70.404 92.2125 67.4928 91.9173 67.1064 90.6117C67.0656 90.4677 66.7008 89.6877 66.7248 89.5341C66.8904 88.2837 69.3648 87.3765 72.2232 86.5389C75.0288 85.7157 77.3568 84.9453 78.216 85.8669C78.3384 85.9965 78.6768 87.0405 78.7248 87.2013C79.1016 88.5093 76.812 90.3261 73.608 91.2717Z" fill="#0A6B3E"/>
<path d="M73.2222 90.1932C76.4283 89.2514 78.716 87.4281 78.332 86.1208C77.9479 84.8134 75.0376 84.517 71.8315 85.4588C68.6254 86.4006 66.3377 88.2239 66.7217 89.5312C67.1058 90.8386 70.0161 91.135 73.2222 90.1932Z" fill="url(#paint33_linear_682_1589)"/>
<path d="M73.0157 90.0131C75.749 89.2159 77.7012 87.666 77.3761 86.5513C77.051 85.4367 74.5717 85.1793 71.8384 85.9765C69.1051 86.7737 67.153 88.3235 67.4781 89.4382C67.8032 90.5529 70.2825 90.8103 73.0157 90.0131Z" fill="#0A6B3E"/>
<path d="M69.3601 88.5546L70.1521 88.3218C70.1161 88.1034 70.1929 87.8802 70.3537 87.729L70.9009 87.6522C70.7449 87.7938 70.6681 88.0026 70.6993 88.2114C70.7665 88.4322 71.1385 88.4994 71.5801 88.3674C71.9353 88.2858 72.2377 88.053 72.4081 87.729C72.6289 87.3114 72.9265 87.0042 73.6105 86.8026C74.2705 86.6106 74.8105 86.6562 75.0169 86.9154L75.8089 86.6826L75.8689 86.8794L75.1081 87.1002C75.1369 87.2802 75.0793 87.465 74.9545 87.597L74.4145 87.669C74.5417 87.5442 74.5993 87.3642 74.5681 87.189C74.4961 86.9418 74.1073 86.9562 73.7929 87.0474C73.4449 87.1338 73.1569 87.3786 73.0153 87.7074C72.7825 88.1346 72.4225 88.4202 71.7241 88.6242C71.1049 88.8066 70.4713 88.7994 70.2409 88.509L69.4249 88.749L69.3601 88.5522V88.5546Z" fill="url(#paint34_linear_682_1589)"/>
<path d="M53.3735 95.5797C50.0327 95.5317 47.3399 94.3869 47.3591 93.0261C47.3591 92.8749 47.2439 92.0229 47.3111 91.8813C47.8391 90.7341 50.4743 90.6021 53.4431 90.6429C56.3663 90.6837 58.8191 90.6429 59.3663 91.7709C59.4431 91.9317 59.4575 93.0261 59.4575 93.1965C59.4383 94.5597 56.7143 95.6253 53.3735 95.5797Z" fill="#0A6B3E"/>
<path d="M59.4144 92.0588C59.4339 90.6963 56.7411 89.5531 53.3999 89.5052C50.0587 89.4574 47.3344 90.5231 47.3148 91.8856C47.2953 93.248 49.9881 94.3913 53.3293 94.4391C56.6705 94.4869 59.3949 93.4212 59.4144 92.0588Z" fill="url(#paint35_linear_682_1589)"/>
<path d="M58.5194 92.0454C58.536 90.8844 56.2416 89.9102 53.3948 89.8694C50.5479 89.8287 48.2266 90.7368 48.21 91.8978C48.1934 93.0588 50.4878 94.033 53.3346 94.0738C56.1815 94.1145 58.5028 93.2064 58.5194 92.0454Z" fill="#0A6B3E"/>
<path d="M50.1145 91.7274L50.9401 91.7394C50.9713 91.521 51.1081 91.3314 51.3073 91.2354L51.8545 91.3242C51.6625 91.413 51.5281 91.5906 51.4969 91.7994C51.4969 92.0346 51.8257 92.2002 52.2937 92.2074C52.6585 92.2362 53.0161 92.1042 53.2729 91.845C53.6041 91.5114 53.9833 91.305 54.6961 91.3146C55.3729 91.3146 55.8865 91.5354 56.0041 91.8378L56.8297 91.8498V92.0562L56.0377 92.0442C56.0113 92.2242 55.9033 92.3826 55.7449 92.4738L55.2049 92.3826C55.3609 92.2986 55.4665 92.1426 55.4881 91.9674C55.4881 91.7106 55.1161 91.6074 54.7897 91.6026C54.4321 91.5834 54.0865 91.7298 53.8537 92.0034C53.5033 92.3418 53.0761 92.5122 52.3489 92.5002C51.7033 92.5002 51.0985 92.2986 50.9641 91.953L50.1145 91.941V91.7298V91.7274Z" fill="url(#paint36_linear_682_1589)"/>
<path d="M76.6225 85.591C73.5697 86.9494 70.644 87.0358 70.092 85.7902C70.0296 85.651 69.5688 84.9286 69.5688 84.7726C69.5688 83.5126 71.9041 82.2838 74.6281 81.079C77.3017 79.8934 79.5096 78.823 80.4792 79.6246C80.6208 79.7374 81.0912 80.7238 81.1584 80.8798C81.7008 82.1302 79.6753 84.235 76.6225 85.5886V85.591Z" fill="#0A6B3E"/>
<path d="M76.102 84.5665C79.1561 83.2106 81.1837 81.1018 80.6307 79.8564C80.0778 78.611 77.1538 78.7007 74.0997 80.0566C71.0456 81.4125 69.018 83.5213 69.571 84.7667C70.1239 86.012 73.0479 85.9224 76.102 84.5665Z" fill="url(#paint37_linear_682_1589)"/>
<path d="M75.9541 84.2336C78.5563 83.0783 80.2838 81.2814 79.8126 80.2202C79.3415 79.159 76.85 79.2352 74.2478 80.3905C71.6456 81.5459 69.9181 83.3427 70.3892 84.404C70.8604 85.4652 73.3519 85.3889 75.9541 84.2336Z" fill="#0A6B3E"/>
<path d="M72.0527 83.4524L72.8063 83.1164C72.7415 82.9052 72.7871 82.6748 72.9263 82.5044L73.4615 82.3556C73.3247 82.5164 73.2767 82.7348 73.3343 82.9364C73.4303 83.1572 73.8023 83.1572 74.2295 82.9748C74.5703 82.8476 74.8391 82.5764 74.9639 82.2332C75.1271 81.794 75.3839 81.446 76.0343 81.158C76.6847 80.87 77.2055 80.8532 77.4431 81.0836L78.1967 80.75L78.2807 80.9396L77.5559 81.2612C77.6063 81.4364 77.5751 81.626 77.4695 81.7748L76.9415 81.9188C77.0495 81.7772 77.0807 81.59 77.0255 81.422C76.9223 81.1868 76.5383 81.2516 76.2407 81.3836C75.9071 81.5132 75.6527 81.794 75.5567 82.1396C75.3815 82.5932 75.0623 82.922 74.3975 83.2196C73.8047 83.4812 73.1783 83.558 72.9119 83.3012L72.1415 83.6564L72.0503 83.4572L72.0527 83.4524Z" fill="url(#paint38_linear_682_1589)"/>
<path d="M40.4663 82.6265C37.9847 80.3921 36.7103 77.7593 37.6223 76.7441C37.7231 76.6313 38.1959 75.9137 38.3399 75.8513C39.4895 75.3377 41.5631 76.9721 43.7711 78.9593C45.9431 80.9153 47.8199 82.4945 47.4863 83.7089C47.4383 83.8793 46.7303 84.7145 46.6055 84.8417C45.7079 85.8545 42.9551 84.8609 40.4663 82.6265Z" fill="#0A6B3E"/>
<path d="M47.3386 83.9432C48.2503 82.9306 46.9764 80.2971 44.4931 78.0612C42.0099 75.8253 39.2577 74.8336 38.3459 75.8462C37.4342 76.8588 38.7081 79.4923 41.1914 81.7282C43.6746 83.9641 46.4268 84.9558 47.3386 83.9432Z" fill="url(#paint39_linear_682_1589)"/>
<path d="M46.6734 83.3435C47.4503 82.4806 46.3649 80.2367 44.2491 78.3316C42.1333 76.4265 39.7882 75.5816 39.0113 76.4444C38.2343 77.3073 39.3197 79.5512 41.4355 81.4563C43.5514 83.3614 45.8964 84.2063 46.6734 83.3435Z" fill="#0A6B3E"/>
<path d="M40.5577 77.5815L41.1721 78.1335C41.3401 77.9919 41.5681 77.9391 41.7817 77.9943L42.1369 78.4215C41.9353 78.3615 41.7145 78.4071 41.5537 78.5439C41.3953 78.7191 41.5393 79.0623 41.8825 79.3743C42.1393 79.6335 42.4945 79.7679 42.8593 79.7439C43.3297 79.7103 43.7401 79.8063 44.2777 80.2839C44.8153 80.7615 45.0337 81.2295 44.9209 81.5391L45.5353 82.0911L45.3961 82.2447L44.8057 81.7143C44.6665 81.8319 44.4817 81.8799 44.3017 81.8439L43.9561 81.4215C44.1289 81.4599 44.3113 81.4119 44.4433 81.2943C44.6161 81.1023 44.4025 80.7807 44.1577 80.5623C43.9033 80.3103 43.5433 80.1927 43.1881 80.2455C42.7033 80.2695 42.2713 80.1159 41.7289 79.6263C41.2489 79.1871 40.9225 78.6519 41.0497 78.3063L40.4185 77.7279L40.5577 77.5791V77.5815Z" fill="url(#paint40_linear_682_1589)"/>
<path d="M58.1951 87.518C54.8663 87.8228 52.0679 86.9732 51.9431 85.6148C51.9311 85.466 51.7223 84.6308 51.7727 84.482C52.1759 83.2868 54.7823 82.874 57.7415 82.6004C60.6527 82.3316 63.0863 82.0268 63.7511 83.0948C63.8447 83.246 63.9719 84.3332 63.9911 84.5036C64.1159 85.8692 61.5215 87.2084 58.1951 87.518Z" fill="#0A6B3E"/>
<path d="M58.0283 86.3822C61.3558 86.0753 63.9517 84.7266 63.8265 83.3697C63.7014 82.0129 60.9025 81.1618 57.5751 81.4687C54.2477 81.7756 51.6517 83.1243 51.7769 84.4812C51.9021 85.838 54.7009 86.6891 58.0283 86.3822Z" fill="url(#paint41_linear_682_1589)"/>
<path d="M57.995 86.0192C60.8301 85.7577 63.0419 84.6084 62.9353 83.4522C62.8286 82.296 60.4439 81.5707 57.6087 81.8322C54.7736 82.0937 52.5618 83.243 52.6684 84.3992C52.7751 85.5554 55.1599 86.2807 57.995 86.0192Z" fill="#0A6B3E"/>
<path d="M54.5449 84.0358L55.3681 83.9589C55.3777 83.7381 55.4953 83.5365 55.6801 83.4189L56.2321 83.4501C56.0521 83.5581 55.9369 83.7502 55.9273 83.9614C55.9489 84.1966 56.2993 84.3261 56.7625 84.2829C57.1273 84.2709 57.4681 84.103 57.6985 83.8198C57.9937 83.4502 58.3465 83.2053 59.0569 83.1429C59.7673 83.0805 60.2641 83.2293 60.4153 83.5245L61.2385 83.4478L61.2553 83.6542L60.4657 83.7261C60.4585 83.9085 60.3673 84.0765 60.2209 84.1845L59.6761 84.151C59.8201 84.0502 59.9089 83.8869 59.9137 83.7117C59.8897 83.4573 59.5057 83.395 59.1817 83.4238C58.8265 83.4454 58.5025 83.6301 58.3009 83.9229C57.9913 84.2973 57.5809 84.5085 56.8585 84.5829C56.2129 84.6429 55.5961 84.5158 55.4233 84.187L54.5761 84.2638L54.5449 84.0406V84.0358Z" fill="url(#paint42_linear_682_1589)"/>
<path d="M42.9624 90.0503C40.26 88.0847 38.724 85.5959 39.5232 84.4967C39.6144 84.3743 40.0104 83.6159 40.1424 83.5343C41.2416 82.9031 43.464 84.3119 45.8616 86.0615C48.2232 87.7847 50.2608 89.1599 50.0424 90.4007C50.0136 90.5783 49.3824 91.4807 49.2936 91.6175C48.5016 92.7119 45.6624 92.0087 42.96 90.0503H42.9624Z" fill="#0A6B3E"/>
<path d="M49.9265 90.6431C50.7285 89.5416 49.1889 87.0541 46.4876 85.0871C43.7863 83.1202 40.9462 82.4186 40.1442 83.5202C39.3421 84.6217 40.8817 87.1092 43.583 89.0761C46.2843 91.043 49.1244 91.7446 49.9265 90.6431Z" fill="url(#paint43_linear_682_1589)"/>
<path d="M49.2029 90.1165C49.8863 89.1779 48.5746 87.0583 46.2729 85.3824C43.9713 83.7065 41.5514 83.1088 40.8679 84.0475C40.1844 84.9861 41.4962 87.1057 43.7978 88.7816C46.0995 90.4575 48.5194 91.0552 49.2029 90.1165Z" fill="#0A6B3E"/>
<path d="M42.5233 85.0176L43.1833 85.5048C43.3369 85.3464 43.5577 85.2696 43.7761 85.3032L44.1721 85.692C43.9657 85.6536 43.7521 85.7208 43.6057 85.872C43.4665 86.064 43.6441 86.3904 44.0209 86.6664C44.3017 86.8992 44.6689 86.9976 45.0289 86.9328C45.4945 86.8512 45.9217 86.9016 46.4977 87.3216C47.0737 87.7416 47.3473 88.1832 47.2657 88.5024L47.9257 88.9896L47.8057 89.1576L47.1649 88.692C47.0377 88.824 46.8577 88.8912 46.6777 88.8744L46.2913 88.4904C46.4689 88.5096 46.6441 88.4448 46.7641 88.3152C46.9153 88.1064 46.6681 87.8064 46.4041 87.6168C46.1257 87.3912 45.7561 87.3096 45.4081 87.396C44.9257 87.4704 44.4793 87.36 43.8913 86.9352C43.3681 86.5536 42.9865 86.0544 43.0777 85.6896L42.3889 85.188L42.5281 85.0224L42.5233 85.0176Z" fill="url(#paint44_linear_682_1589)"/>
<path d="M48.4007 87.631C45.4655 86.035 43.6127 83.7742 44.2631 82.5718C44.3351 82.4398 44.6255 81.6334 44.7503 81.535C45.7487 80.767 48.1439 81.871 50.7551 83.2942C53.3255 84.6886 55.5167 85.7854 55.4759 87.0454C55.4759 87.2254 54.9767 88.1998 54.8951 88.351C54.2447 89.5414 51.3359 89.2198 48.3983 87.631H48.4007Z" fill="#0A6B3E"/>
<path d="M55.3851 87.3089C56.0353 86.1114 54.1818 83.8481 51.2452 82.2537C48.3086 80.6592 45.4009 80.3374 44.7507 81.5349C44.1006 82.7324 45.9541 84.9957 48.8907 86.5901C51.8273 88.1846 54.735 88.5064 55.3851 87.3089Z" fill="url(#paint45_linear_682_1589)"/>
<path d="M54.5983 86.8816C55.1524 85.8612 53.5731 83.9327 51.071 82.5742C48.5689 81.2156 46.0914 80.9415 45.5374 81.9619C44.9833 82.9824 46.5625 84.9109 49.0647 86.2694C51.5668 87.628 54.0443 87.9021 54.5983 86.8816Z" fill="#0A6B3E"/>
<path d="M47.3065 82.7012L48.0313 83.0948C48.1609 82.9148 48.3697 82.8092 48.5929 82.8188L49.0321 83.15C48.8233 83.1404 48.6217 83.234 48.4945 83.402C48.3793 83.6228 48.5977 83.9132 49.0081 84.134C49.3153 84.3284 49.6945 84.3764 50.0425 84.266C50.4817 84.122 50.9233 84.1196 51.5497 84.458C52.1761 84.7964 52.5073 85.202 52.4665 85.5284L53.1913 85.9244L53.0929 86.1044L52.3945 85.7252C52.2889 85.874 52.1185 85.9628 51.9361 85.97L51.4969 85.6412C51.6721 85.6364 51.8377 85.55 51.9361 85.4036C52.0585 85.1828 51.7753 84.914 51.4969 84.758C51.1897 84.5732 50.8129 84.5444 50.4817 84.6764C50.0161 84.8156 49.5577 84.7652 48.9193 84.4172C48.3505 84.11 47.9041 83.6612 47.9473 83.2916L47.1985 82.886L47.3017 82.7012H47.3065Z" fill="url(#paint46_linear_682_1589)"/>
<path d="M64.4568 90.7461C67.52 90.7461 70.0032 88.2629 70.0032 85.1997C70.0032 82.1365 67.52 79.6533 64.4568 79.6533C61.3936 79.6533 58.9104 82.1365 58.9104 85.1997C58.9104 88.2629 61.3936 90.7461 64.4568 90.7461Z" fill="#0A6B3E"/>
<path d="M63.8399 90.7461C66.903 90.7461 69.3863 88.2629 69.3863 85.1997C69.3863 82.1365 66.903 79.6533 63.8399 79.6533C60.7767 79.6533 58.2935 82.1365 58.2935 85.1997C58.2935 88.2629 60.7767 90.7461 63.8399 90.7461Z" fill="url(#paint47_linear_682_1589)"/>
<path d="M63.8401 89.9248C66.45 89.9248 68.5657 87.8091 68.5657 85.1992C68.5657 82.5894 66.45 80.4736 63.8401 80.4736C61.2302 80.4736 59.1145 82.5894 59.1145 85.1992C59.1145 87.8091 61.2302 89.9248 63.8401 89.9248Z" fill="#0A6B3E"/>
<path d="M63.4055 88.1751V87.4095C62.9999 87.4095 62.6015 87.2943 62.2583 87.0807L62.4383 86.5767C62.7599 86.7855 63.1343 86.8983 63.5183 86.9007C64.0511 86.9007 64.4111 86.5935 64.4111 86.1663C64.4111 85.7391 64.1183 85.5063 63.5615 85.2735C62.7983 84.9735 62.3255 84.6279 62.3255 83.9775C62.3255 83.3271 62.7647 82.8783 63.4583 82.7703V82.0215H63.9215V82.7463C64.2647 82.7487 64.5983 82.8399 64.8959 83.0103L64.7087 83.5047C64.4231 83.3343 64.0967 83.2455 63.7655 83.2503C63.1871 83.2503 62.9687 83.5959 62.9687 83.8959C62.9687 84.2847 63.2447 84.4815 63.8999 84.7503C64.6727 85.0671 65.0615 85.4559 65.0615 86.1231C65.0615 86.7159 64.6511 87.2703 63.8783 87.3999V88.1775H63.4055V88.1751Z" fill="url(#paint48_linear_682_1589)"/>
<path d="M51.5327 91.1182C54.5959 91.1182 57.0791 88.635 57.0791 85.5718C57.0791 82.5086 54.5959 80.0254 51.5327 80.0254C48.4695 80.0254 45.9863 82.5086 45.9863 85.5718C45.9863 88.635 48.4695 91.1182 51.5327 91.1182Z" fill="#0A6B3E"/>
<path d="M50.916 91.1182C53.9792 91.1182 56.4624 88.635 56.4624 85.5718C56.4624 82.5086 53.9792 80.0254 50.916 80.0254C47.8528 80.0254 45.3696 82.5086 45.3696 85.5718C45.3696 88.635 47.8528 91.1182 50.916 91.1182Z" fill="url(#paint49_linear_682_1589)"/>
<path d="M50.916 90.2969C53.5259 90.2969 55.6416 88.1812 55.6416 85.5713C55.6416 82.9614 53.5259 80.8457 50.916 80.8457C48.3061 80.8457 46.1904 82.9614 46.1904 85.5713C46.1904 88.1812 48.3061 90.2969 50.916 90.2969Z" fill="#0A6B3E"/>
<path d="M50.4817 88.5501V87.7917C50.0761 87.7917 49.6801 87.6765 49.3345 87.4629L49.5121 86.9613C49.8337 87.1701 50.2081 87.2829 50.5921 87.2853C51.1249 87.2853 51.4849 86.9781 51.4849 86.5509C51.4849 86.1237 51.1921 85.8909 50.6377 85.6581C49.8721 85.3581 49.3993 85.0125 49.3993 84.3597C49.3993 83.7069 49.8385 83.2605 50.5321 83.1549V82.3965H50.9953V83.1237C51.3361 83.1237 51.6721 83.2149 51.9697 83.3853L51.7825 83.8797C51.4969 83.7093 51.1705 83.6205 50.8393 83.6253C50.2609 83.6253 50.0425 83.9709 50.0425 84.2709C50.0425 84.6621 50.3209 84.8565 50.9737 85.1277C51.7465 85.4421 52.1353 85.8309 52.1353 86.5005C52.1353 87.0933 51.7249 87.6477 50.9521 87.7749V88.5549H50.4793L50.4817 88.5501Z" fill="url(#paint50_linear_682_1589)"/>
<path d="M58.3753 97.1563C61.4384 97.1563 63.9217 94.6731 63.9217 91.6099C63.9217 88.5467 61.4384 86.0635 58.3753 86.0635C55.3121 86.0635 52.8289 88.5467 52.8289 91.6099C52.8289 94.6731 55.3121 97.1563 58.3753 97.1563Z" fill="#0A6B3E"/>
<path d="M57.8377 96.8614C60.9009 96.8614 63.3841 94.3782 63.3841 91.315C63.3841 88.2518 60.9009 85.7686 57.8377 85.7686C54.7745 85.7686 52.2913 88.2518 52.2913 91.315C52.2913 94.3782 54.7745 96.8614 57.8377 96.8614Z" fill="url(#paint51_linear_682_1589)"/>
<path d="M57.8377 96.0401C60.4475 96.0401 62.5633 93.9243 62.5633 91.3145C62.5633 88.7046 60.4475 86.5889 57.8377 86.5889C55.2278 86.5889 53.1121 88.7046 53.1121 91.3145C53.1121 93.9243 55.2278 96.0401 57.8377 96.0401Z" fill="#0A6B3E"/>
<path d="M56.0207 93.7145L56.3855 93.0545C56.0303 92.8577 55.7375 92.5673 55.5383 92.2145L55.9391 91.8593C56.1191 92.1977 56.3951 92.4761 56.7287 92.6633C57.1967 92.9201 57.6599 92.8241 57.8663 92.4425C58.0727 92.0609 57.9311 91.7177 57.5543 91.2521C57.0287 90.6209 56.7791 90.0905 57.0935 89.5193C57.4079 88.9481 58.0079 88.7729 58.6679 89.0057L59.0303 88.3457L59.4383 88.5665L59.0879 89.2049C59.3855 89.3729 59.6375 89.6129 59.8151 89.9033L59.4119 90.2465C59.2439 89.9609 58.9991 89.7257 58.7063 89.5697C58.1999 89.2913 57.8447 89.4881 57.7007 89.7497C57.5111 90.0929 57.6623 90.3953 58.1039 90.9473C58.6271 91.5953 58.7807 92.1257 58.4591 92.7065C58.1735 93.2249 57.5471 93.5105 56.8079 93.2513L56.4311 93.9329L56.0183 93.7121L56.0207 93.7145Z" fill="url(#paint52_linear_682_1589)"/>
<defs>
<linearGradient id="paint0_linear_682_1589" x1="59.1576" y1="103.193" x2="60.552" y2="55.2023" gradientUnits="userSpaceOnUse">
<stop stop-color="#231F20" stop-opacity="0"/>
<stop offset="1" stop-color="#231F20"/>
</linearGradient>
<linearGradient id="paint1_linear_682_1589" x1="63.3912" y1="62.2246" x2="56.6664" y2="84.7438" gradientUnits="userSpaceOnUse">
<stop stop-color="#231F20" stop-opacity="0"/>
<stop offset="1" stop-color="#231F20"/>
</linearGradient>
<linearGradient id="paint2_linear_682_1589" x1="56.448" y1="77.6153" x2="60.7248" y2="77.6153" gradientUnits="userSpaceOnUse">
<stop stop-color="#231F20" stop-opacity="0"/>
<stop offset="1" stop-color="#231F20"/>
</linearGradient>
<linearGradient id="paint3_linear_682_1589" x1="54.7681" y1="75.7887" x2="49.8169" y2="79.4367" gradientUnits="userSpaceOnUse">
<stop stop-color="#231F20" stop-opacity="0"/>
<stop offset="1" stop-color="#231F20"/>
</linearGradient>
<linearGradient id="paint4_linear_682_1589" x1="46.7903" y1="79.6772" x2="51.4919" y2="79.6772" gradientUnits="userSpaceOnUse">
<stop stop-color="#231F20" stop-opacity="0"/>
<stop offset="1" stop-color="#231F20"/>
</linearGradient>
<linearGradient id="paint5_linear_682_1589" x1="72.9552" y1="65.0805" x2="66.2304" y2="87.5997" gradientUnits="userSpaceOnUse">
<stop stop-color="#231F20" stop-opacity="0"/>
<stop offset="1" stop-color="#231F20"/>
</linearGradient>
<linearGradient id="paint6_linear_682_1589" x1="66.5497" y1="80.0948" x2="69.9721" y2="80.0948" gradientUnits="userSpaceOnUse">
<stop stop-color="#231F20" stop-opacity="0"/>
<stop offset="1" stop-color="#231F20"/>
</linearGradient>
<linearGradient id="paint7_linear_682_1589" x1="43.9176" y1="52.6384" x2="70.8192" y2="52.6384" gradientUnits="userSpaceOnUse">
<stop stop-color="#231F20" stop-opacity="0"/>
<stop offset="1" stop-color="#231F20"/>
</linearGradient>
<linearGradient id="paint8_linear_682_1589" x1="57.2039" y1="47.5632" x2="57.3311" y2="49.9968" gradientUnits="userSpaceOnUse">
<stop stop-color="#231F20" stop-opacity="0"/>
<stop offset="1" stop-color="#231F20"/>
</linearGradient>
<linearGradient id="paint9_linear_682_1589" x1="48.6433" y1="33.2633" x2="64.1233" y2="55.0793" gradientUnits="userSpaceOnUse">
<stop stop-color="#231F20" stop-opacity="0"/>
<stop offset="1" stop-color="#231F20"/>
</linearGradient>
<linearGradient id="paint10_linear_682_1589" x1="48.5304" y1="33.3426" x2="64.0128" y2="55.1586" gradientUnits="userSpaceOnUse">
<stop stop-color="#231F20" stop-opacity="0"/>
<stop offset="1" stop-color="#231F20"/>
</linearGradient>
<linearGradient id="paint11_linear_682_1589" x1="47.8801" y1="18.9022" x2="55.6993" y2="40.5862" gradientUnits="userSpaceOnUse">
<stop stop-color="#231F20" stop-opacity="0"/>
<stop offset="1" stop-color="#231F20"/>
</linearGradient>
<linearGradient id="paint12_linear_682_1589" x1="47.6951" y1="18.9688" x2="55.5143" y2="40.6528" gradientUnits="userSpaceOnUse">
<stop stop-color="#231F20" stop-opacity="0"/>
<stop offset="1" stop-color="#231F20"/>
</linearGradient>
<linearGradient id="paint13_linear_682_1589" x1="37.4856" y1="7.7469" x2="48.7464" y2="47.3637" gradientUnits="userSpaceOnUse">
<stop stop-color="#231F20" stop-opacity="0"/>
<stop offset="1" stop-color="#231F20"/>
</linearGradient>
<linearGradient id="paint14_linear_682_1589" x1="37.2817" y1="7.80725" x2="48.5401" y2="47.4216" gradientUnits="userSpaceOnUse">
<stop stop-color="#231F20" stop-opacity="0"/>
<stop offset="1" stop-color="#231F20"/>
</linearGradient>
<linearGradient id="paint15_linear_682_1589" x1="67.7747" y1="96.3557" x2="65.6651" y2="90.0221" gradientUnits="userSpaceOnUse">
<stop stop-color="#231F20" stop-opacity="0"/>
<stop offset="1" stop-color="#231F20"/>
</linearGradient>
<linearGradient id="paint16_linear_682_1589" x1="63.2832" y1="92.5384" x2="69.9984" y2="92.5384" gradientUnits="userSpaceOnUse">
<stop stop-color="#231F20" stop-opacity="0"/>
<stop offset="1" stop-color="#231F20"/>
</linearGradient>
<linearGradient id="paint17_linear_682_1589" x1="83.2484" y1="93.6058" x2="95.3468" y2="93.6058" gradientUnits="userSpaceOnUse">
<stop stop-color="#231F20" stop-opacity="0"/>
<stop offset="1" stop-color="#231F20"/>
</linearGradient>
<linearGradient id="paint18_linear_682_1589" x1="86.0474" y1="93.5056" x2="92.7698" y2="93.5056" gradientUnits="userSpaceOnUse">
<stop stop-color="#231F20" stop-opacity="0"/>
<stop offset="1" stop-color="#231F20"/>
</linearGradient>
<linearGradient id="paint19_linear_682_1589" x1="84.1593" y1="91.4453" x2="96.2577" y2="91.4453" gradientUnits="userSpaceOnUse">
<stop stop-color="#231F20" stop-opacity="0"/>
<stop offset="1" stop-color="#231F20"/>
</linearGradient>
<linearGradient id="paint20_linear_682_1589" x1="86.9594" y1="91.344" x2="93.6818" y2="91.344" gradientUnits="userSpaceOnUse">
<stop stop-color="#231F20" stop-opacity="0"/>
<stop offset="1" stop-color="#231F20"/>
</linearGradient>
<linearGradient id="paint21_linear_682_1589" x1="82.6242" y1="89.481" x2="94.7202" y2="89.481" gradientUnits="userSpaceOnUse">
<stop stop-color="#231F20" stop-opacity="0"/>
<stop offset="1" stop-color="#231F20"/>
</linearGradient>
<linearGradient id="paint22_linear_682_1589" x1="85.4233" y1="89.3757" x2="92.1385" y2="89.3757" gradientUnits="userSpaceOnUse">
<stop stop-color="#231F20" stop-opacity="0"/>
<stop offset="1" stop-color="#231F20"/>
</linearGradient>
<linearGradient id="paint23_linear_682_1589" x1="83.2488" y1="87.5552" x2="95.3472" y2="87.5552" gradientUnits="userSpaceOnUse">
<stop stop-color="#231F20" stop-opacity="0"/>
<stop offset="1" stop-color="#231F20"/>
</linearGradient>
<linearGradient id="paint24_linear_682_1589" x1="86.0474" y1="87.4582" x2="92.7698" y2="87.4582" gradientUnits="userSpaceOnUse">
<stop stop-color="#231F20" stop-opacity="0"/>
<stop offset="1" stop-color="#231F20"/>
</linearGradient>
<linearGradient id="paint25_linear_682_1589" x1="93.5616" y1="71.2329" x2="86.8392" y2="93.7521" gradientUnits="userSpaceOnUse">
<stop stop-color="#231F20" stop-opacity="0"/>
<stop offset="1" stop-color="#231F20"/>
</linearGradient>
<linearGradient id="paint26_linear_682_1589" x1="86.0474" y1="85.4085" x2="92.7698" y2="85.4085" gradientUnits="userSpaceOnUse">
<stop stop-color="#231F20" stop-opacity="0"/>
<stop offset="1" stop-color="#231F20"/>
</linearGradient>
<linearGradient id="paint27_linear_682_1589" x1="96.0453" y1="93.1097" x2="106.6" y2="93.1097" gradientUnits="userSpaceOnUse">
<stop stop-color="#231F20" stop-opacity="0"/>
<stop offset="1" stop-color="#231F20"/>
</linearGradient>
<linearGradient id="paint28_linear_682_1589" x1="98.9039" y1="93.3791" x2="104.774" y2="93.3791" gradientUnits="userSpaceOnUse">
<stop stop-color="#231F20" stop-opacity="0"/>
<stop offset="1" stop-color="#231F20"/>
</linearGradient>
<linearGradient id="paint29_linear_682_1589" x1="97.0176" y1="91.7923" x2="107.573" y2="91.7923" gradientUnits="userSpaceOnUse">
<stop stop-color="#231F20" stop-opacity="0"/>
<stop offset="1" stop-color="#231F20"/>
</linearGradient>
<linearGradient id="paint30_linear_682_1589" x1="99.4537" y1="91.701" x2="105.317" y2="91.701" gradientUnits="userSpaceOnUse">
<stop stop-color="#231F20" stop-opacity="0"/>
<stop offset="1" stop-color="#231F20"/>
</linearGradient>
<linearGradient id="paint31_linear_682_1589" x1="106.727" y1="75.1658" x2="100.002" y2="97.685" gradientUnits="userSpaceOnUse">
<stop stop-color="#231F20" stop-opacity="0"/>
<stop offset="1" stop-color="#231F20"/>
</linearGradient>
<linearGradient id="paint32_linear_682_1589" x1="99.4513" y1="89.9202" x2="105.317" y2="89.9202" gradientUnits="userSpaceOnUse">
<stop stop-color="#231F20" stop-opacity="0"/>
<stop offset="1" stop-color="#231F20"/>
</linearGradient>
<linearGradient id="paint33_linear_682_1589" x1="73.6362" y1="90.2803" x2="71.661" y2="85.9027" gradientUnits="userSpaceOnUse">
<stop stop-color="#231F20" stop-opacity="0"/>
<stop offset="1" stop-color="#231F20"/>
</linearGradient>
<linearGradient id="paint34_linear_682_1589" x1="69.3601" y1="87.717" x2="75.8665" y2="87.717" gradientUnits="userSpaceOnUse">
<stop stop-color="#231F20" stop-opacity="0"/>
<stop offset="1" stop-color="#231F20"/>
</linearGradient>
<linearGradient id="paint35_linear_682_1589" x1="47.317" y1="91.9719" x2="59.413" y2="91.9719" gradientUnits="userSpaceOnUse">
<stop stop-color="#231F20" stop-opacity="0"/>
<stop offset="1" stop-color="#231F20"/>
</linearGradient>
<linearGradient id="paint36_linear_682_1589" x1="50.1145" y1="91.8666" x2="56.8297" y2="91.8666" gradientUnits="userSpaceOnUse">
<stop stop-color="#231F20" stop-opacity="0"/>
<stop offset="1" stop-color="#231F20"/>
</linearGradient>
<linearGradient id="paint37_linear_682_1589" x1="76.2817" y1="84.623" x2="73.7257" y2="79.619" gradientUnits="userSpaceOnUse">
<stop stop-color="#231F20" stop-opacity="0"/>
<stop offset="1" stop-color="#231F20"/>
</linearGradient>
<linearGradient id="paint38_linear_682_1589" x1="72.0527" y1="82.1996" x2="78.2807" y2="82.1996" gradientUnits="userSpaceOnUse">
<stop stop-color="#231F20" stop-opacity="0"/>
<stop offset="1" stop-color="#231F20"/>
</linearGradient>
<linearGradient id="paint39_linear_682_1589" x1="41.1969" y1="81.7016" x2="44.1417" y2="78.4688" gradientUnits="userSpaceOnUse">
<stop stop-color="#231F20" stop-opacity="0"/>
<stop offset="1" stop-color="#231F20"/>
</linearGradient>
<linearGradient id="paint40_linear_682_1589" x1="40.4185" y1="79.9143" x2="45.5329" y2="79.9143" gradientUnits="userSpaceOnUse">
<stop stop-color="#231F20" stop-opacity="0"/>
<stop offset="1" stop-color="#231F20"/>
</linearGradient>
<linearGradient id="paint41_linear_682_1589" x1="51.7738" y1="83.9261" x2="63.8313" y2="83.9261" gradientUnits="userSpaceOnUse">
<stop stop-color="#231F20" stop-opacity="0"/>
<stop offset="1" stop-color="#231F20"/>
</linearGradient>
<linearGradient id="paint42_linear_682_1589" x1="54.5449" y1="83.8558" x2="61.2553" y2="83.8558" gradientUnits="userSpaceOnUse">
<stop stop-color="#231F20" stop-opacity="0"/>
<stop offset="1" stop-color="#231F20"/>
</linearGradient>
<linearGradient id="paint43_linear_682_1589" x1="42.2678" y1="89.9324" x2="47.5862" y2="84.458" gradientUnits="userSpaceOnUse">
<stop stop-color="#231F20" stop-opacity="0"/>
<stop offset="1" stop-color="#231F20"/>
</linearGradient>
<linearGradient id="paint44_linear_682_1589" x1="42.3841" y1="87.0864" x2="47.9233" y2="87.0864" gradientUnits="userSpaceOnUse">
<stop stop-color="#231F20" stop-opacity="0"/>
<stop offset="1" stop-color="#231F20"/>
</linearGradient>
<linearGradient id="paint45_linear_682_1589" x1="44.6189" y1="84.4232" x2="55.5126" y2="84.4232" gradientUnits="userSpaceOnUse">
<stop stop-color="#231F20" stop-opacity="0"/>
<stop offset="1" stop-color="#231F20"/>
</linearGradient>
<linearGradient id="paint46_linear_682_1589" x1="47.2033" y1="84.4052" x2="53.1961" y2="84.4052" gradientUnits="userSpaceOnUse">
<stop stop-color="#231F20" stop-opacity="0"/>
<stop offset="1" stop-color="#231F20"/>
</linearGradient>
<linearGradient id="paint47_linear_682_1589" x1="70.3583" y1="88.5909" x2="54.9287" y2="80.5653" gradientUnits="userSpaceOnUse">
<stop stop-color="#231F20" stop-opacity="0"/>
<stop offset="1" stop-color="#231F20"/>
</linearGradient>
<linearGradient id="paint48_linear_682_1589" x1="62.2583" y1="85.0983" x2="65.0639" y2="85.0983" gradientUnits="userSpaceOnUse">
<stop stop-color="#231F20" stop-opacity="0"/>
<stop offset="1" stop-color="#231F20"/>
</linearGradient>
<linearGradient id="paint49_linear_682_1589" x1="48.1656" y1="75.463" x2="53.7168" y2="95.8702" gradientUnits="userSpaceOnUse">
<stop stop-color="#231F20" stop-opacity="0"/>
<stop offset="1" stop-color="#231F20"/>
</linearGradient>
<linearGradient id="paint50_linear_682_1589" x1="49.3369" y1="85.4733" x2="52.1401" y2="85.4733" gradientUnits="userSpaceOnUse">
<stop stop-color="#231F20" stop-opacity="0"/>
<stop offset="1" stop-color="#231F20"/>
</linearGradient>
<linearGradient id="paint51_linear_682_1589" x1="60.9889" y1="95.8774" x2="54.2641" y2="86.143" gradientUnits="userSpaceOnUse">
<stop stop-color="#231F20" stop-opacity="0"/>
<stop offset="1" stop-color="#231F20"/>
</linearGradient>
<linearGradient id="paint52_linear_682_1589" x1="55.5407" y1="91.1393" x2="59.8175" y2="91.1393" gradientUnits="userSpaceOnUse">
<stop stop-color="#231F20" stop-opacity="0"/>
<stop offset="1" stop-color="#231F20"/>
</linearGradient>
</defs>
</svg>
