<svg width="120" height="120" viewBox="0 0 120 120" fill="none" xmlns="http://www.w3.org/2000/svg">
<path opacity="0.25" d="M27.2014 45.4127C19.2238 46.9703 2.04463 50.7743 7.87903 69.7559C8.69263 72.4079 13.9462 81.4703 14.5294 84.1823C15.1774 87.2111 13.831 90.4055 14.4886 93.4343C15.6742 98.8775 22.2598 100.901 27.7678 101.746C34.1374 102.722 40.7038 103.459 46.9726 102C50.431 101.196 53.707 99.7463 57.1486 98.8703C71.2726 95.3111 86.6518 101.779 100.531 97.3823C104.64 96.0839 108.746 93.4943 110.042 89.3831C110.877 86.7071 110.402 83.8175 110.388 81.0095C110.347 73.8767 111.271 64.3919 113.534 57.6287C115.797 50.8655 126.225 24.2447 104.354 19.8839C72.5782 13.5479 82.6246 34.5935 27.2038 45.4127H27.2014Z" fill="#0A6B3E"/>
<path opacity="0.25" d="M26.8029 93.4657C21.6933 94.5697 16.2909 96.0289 12.8229 99.9337C12.1077 100.738 11.4645 101.7 11.4477 102.775C11.4045 105.334 14.5653 106.531 17.1021 106.874C24.9357 107.918 32.8749 107.59 40.7709 107.266C45.7653 107.057 50.7741 106.848 55.7157 106.116C65.4261 104.654 75.0573 101.129 84.8301 102.194C88.0485 102.545 91.1949 103.392 94.4157 103.716C99.5925 104.227 104.812 103.378 109.56 101.254C111.228 100.502 112.992 99.4009 113.431 97.6201C113.87 95.8393 112.792 94.0177 111.312 92.9857C109.831 91.9537 108.007 91.5577 106.241 91.1857C101.985 90.2905 98.3109 88.7017 93.9525 88.4257C88.4397 88.0801 82.9149 87.9193 77.3829 87.9457C66.4293 88.0009 55.4901 88.7881 44.6397 90.3025C38.6565 91.1377 32.7117 92.1913 26.8053 93.4657H26.8029Z" fill="#0A6B3E"/>
<g opacity="0.24">
<path d="M22.4235 105.435C25.4835 105.713 28.5579 105.833 31.6299 105.852C34.2891 105.864 37.0323 105.783 39.4491 104.679C40.7739 104.074 41.9691 103.171 43.3611 102.742C44.6715 102.336 46.0731 102.372 47.4267 102.19C48.7803 102.007 50.2131 101.532 51.0075 100.416L45.8163 98.6906C45.1587 98.4506 44.4819 98.2682 43.7931 98.1482C42.9123 98.0522 42.0243 98.0618 41.1459 98.1746C37.8147 98.4962 34.5075 99.029 31.2459 99.7682C29.4171 100.186 28.4691 101.271 26.8827 101.967C25.6059 102.528 24.8403 102.087 23.5443 102.051C20.5299 101.969 18.3771 105.06 22.4235 105.43V105.435Z" fill="#231F20"/>
<path d="M50.9381 91.8577C50.1749 91.8697 49.1477 92.1073 49.1573 92.8729C51.9125 93.7273 54.8765 92.7841 57.7589 92.8849C61.6349 93.0217 65.1653 95.0353 68.5157 96.9961C67.1957 96.9649 65.9597 97.6465 65.2853 98.7817C72.8357 99.5785 80.4005 97.6537 87.9893 97.5289C95.9333 97.4089 103.894 99.2737 111.776 98.2945C111.639 97.6537 110.866 97.4089 110.218 97.3129C106.904 96.8113 103.524 97.0393 100.181 96.8257C96.8357 96.6097 93.3725 95.8849 90.7661 93.7801C93.4733 93.1369 96.0893 92.1553 98.5517 90.8593C96.9869 90.1225 95.1605 90.3481 93.4445 90.5545C82.0493 91.9321 70.5197 91.7761 59.1653 90.0961C58.7741 90.8785 59.9693 91.4617 60.8333 91.5289L79.8605 93.0385C82.0397 93.2113 84.3989 93.4561 86.0021 94.9465C77.5877 96.5617 66.0245 94.8913 58.0973 91.6201C56.7965 91.0825 58.9109 89.5657 57.5069 89.7121C55.8773 89.8825 52.8917 91.8217 50.9333 91.8577H50.9381Z" fill="#231F20"/>
</g>
<path d="M97.7179 37.3994H94.0195V90.5642H97.7179V37.3994Z" fill="#0A6B3E"/>
<path d="M97.7186 37.3994H95.5898V90.5642H97.7186V37.3994Z" fill="url(#paint0_linear_307_7049)"/>
<path d="M97.7184 48.7177C97.7184 48.6001 111.014 53.2609 111.014 53.2609L111.331 57.8281L97.4256 52.7953L97.3896 48.7153H97.7184V48.7177Z" fill="#0A6B3E"/>
<path d="M97.3877 49.109C97.3877 48.9914 111.015 53.897 111.015 53.897L111.332 57.6338L97.4261 52.601L97.3877 49.109Z" fill="url(#paint1_linear_307_7049)"/>
<path d="M96.6768 49.6273C96.6768 49.5097 109.97 54.1705 109.97 54.1705L110.287 58.4449L96.3816 53.4121L96.3408 49.6177L96.6792 49.6273H96.6768Z" fill="#0A6B3E"/>
<path d="M96.3457 49.9176C96.3457 49.8 109.97 54.7056 109.97 54.7056L110.287 58.4424L96.3817 53.4096L96.3457 49.9176Z" fill="url(#paint2_linear_307_7049)"/>
<path d="M112.438 41.9209H108.739V96.7057H112.438V41.9209Z" fill="#0A6B3E"/>
<path d="M112.86 41.9209H109.161V96.7057H112.86V41.9209Z" fill="url(#paint3_linear_307_7049)"/>
<path d="M110.736 41.9209H110.215V96.7057H110.736V41.9209Z" fill="#0A6B3E"/>
<path d="M110.244 70.8242V71.5106L110.181 74.5586L96.439 69.953L96.415 69.9434L96.5926 66.3506L110.244 70.8242Z" fill="#0A6B3E"/>
<path d="M110.182 71.3543V74.8847L96.4395 69.9527L96.5931 66.8735L110.182 71.3543Z" fill="url(#paint4_linear_307_7049)"/>
<path d="M59.213 36.269H55.5146V90.5642H59.213V36.269Z" fill="#0A6B3E"/>
<path d="M59.6349 36.269H55.9365V90.5642H59.6349V36.269Z" fill="url(#paint5_linear_307_7049)"/>
<path d="M94.4903 66.2979H57.7871V69.7563H94.4903V66.2979Z" fill="#0A6B3E"/>
<path d="M94.4903 66.2979H57.7871V69.7563H94.4903V66.2979Z" fill="url(#paint6_linear_307_7049)"/>
<path d="M94.0176 66.2979H59.1768V66.7707H94.0176V66.2979Z" fill="url(#paint7_linear_307_7049)"/>
<path d="M94.4903 48.5303H57.7871V51.9887H94.4903V48.5303Z" fill="#0A6B3E"/>
<path d="M94.4903 48.5303H57.7871V51.9887H94.4903V48.5303Z" fill="url(#paint8_linear_307_7049)"/>
<path d="M94.9708 49.4424H58.2676V52.9008H94.9708V49.4424Z" fill="#0A6B3E"/>
<path d="M94.4903 48.9624H57.7871V52.9008H94.4903V48.9624Z" fill="url(#paint9_linear_307_7049)"/>
<path d="M70.3033 53.5728L59.2129 49.4424V50.3448L70.3033 54.4704V53.5728Z" fill="#0A6B3E"/>
<path d="M70.3033 53.5728L59.2129 49.4424V50.3448L70.3033 54.4704V53.5728Z" fill="url(#paint10_linear_307_7049)"/>
<path d="M94.0201 49.4424H59.2129V49.8024H94.0201V49.4424Z" fill="#0A6B3E"/>
<path d="M94.0201 48.2881H59.2129V48.6481H94.0201V48.2881Z" fill="#0A6B3E"/>
<path d="M59.2126 36.269H56.9902V90.5642H59.2126V36.269Z" fill="#0A6B3E"/>
<path d="M59.2126 36.269H56.9902V90.5642H59.2126V36.269Z" fill="url(#paint11_linear_307_7049)"/>
<path d="M110.182 71.7456H73.4785V75.204H110.182V71.7456Z" fill="#0A6B3E"/>
<path d="M110.182 72.2231H73.4785V75.2015H110.182V72.2231Z" fill="url(#paint12_linear_307_7049)"/>
<path d="M56.9902 70.5817L73.2262 75.5521L73.2142 71.4121L56.9902 66.4297V70.5817Z" fill="#0A6B3E"/>
<path d="M73.2262 75.5521H73.2238L56.9902 70.5817V66.4297L73.2142 71.4121L73.2262 75.5521Z" fill="url(#paint13_linear_307_7049)"/>
<path d="M73.2238 75.5519L56.9902 70.5815V66.9263L73.2142 71.9087L73.2238 75.5519Z" fill="url(#paint14_linear_307_7049)"/>
<path d="M110.182 53.9785H73.4785V57.3289H110.182V53.9785Z" fill="#0A6B3E"/>
<path d="M110.182 54.4707H73.4785V57.3291H110.182V54.4707Z" fill="url(#paint15_linear_307_7049)"/>
<path d="M110.182 54.96H73.4785V58.7904H110.182V54.96Z" fill="#0A6B3E"/>
<path d="M110.182 55.4521H73.4785V58.7737H110.182V55.4521Z" fill="url(#paint16_linear_307_7049)"/>
<path d="M56.9902 66.4297H60.691L70.303 69.0481V70.5193L56.9902 66.4297Z" fill="url(#paint17_linear_307_7049)"/>
<path d="M57.511 36.269H56.9902V90.5642H57.511V36.269Z" fill="#0A6B3E"/>
<path d="M74.0011 41.8706H70.3027V96.6554H74.0011V41.8706Z" fill="#0A6B3E"/>
<path d="M74.424 41.8706H70.7256V96.6554H74.424V41.8706Z" fill="url(#paint18_linear_307_7049)"/>
<path d="M72.3001 41.8706H71.7793V96.6554H72.3001V41.8706Z" fill="#0A6B3E"/>
<path d="M57.5107 49.709L70.3027 54.4706V58.7738L57.5107 53.2202V49.709Z" fill="#0A6B3E"/>
<path d="M57.5107 50.2607L70.3027 55.0247V58.7735L57.5107 53.2199V50.2607Z" fill="url(#paint19_linear_307_7049)"/>
<path d="M59.2129 49.4424L70.3033 53.5728V54.0648L59.2129 49.9488V49.4424Z" fill="#0A6B3E"/>
<path d="M97.7179 13.5479H94.0195V46.0583H97.7179V13.5479Z" fill="#0A6B3E"/>
<path d="M97.7186 13.5479H95.5898V66.7127H97.7186V13.5479Z" fill="url(#paint20_linear_307_7049)"/>
<path d="M97.7184 24.8616C97.7184 24.7464 111.014 29.4048 111.014 29.4048L111.331 33.9649L97.4256 28.9321L97.3896 24.8521L97.7184 24.8593V24.8616Z" fill="#0A6B3E"/>
<path d="M97.3877 25.2554C97.3877 25.1402 111.015 30.0554 111.015 30.0554L111.332 33.785L97.4189 28.7546L97.3877 25.2578V25.2554Z" fill="url(#paint21_linear_307_7049)"/>
<path d="M96.6769 25.7737C96.6769 25.6561 109.97 30.3169 109.97 30.3169L110.287 34.5937L96.3817 29.5609L96.3457 25.7737H96.6769Z" fill="#0A6B3E"/>
<path d="M96.3457 26.0665C96.3457 25.9489 109.97 30.8665 109.97 30.8665L110.287 34.5961L96.3817 29.5633L96.3457 26.0689V26.0665Z" fill="url(#paint22_linear_307_7049)"/>
<path d="M112.438 18.0698H108.739V72.8546H112.438V18.0698Z" fill="#0A6B3E"/>
<path d="M112.86 18.0698H109.161V72.8546H112.86V18.0698Z" fill="url(#paint23_linear_307_7049)"/>
<path d="M110.736 18.0698H110.215V72.8546H110.736V18.0698Z" fill="#0A6B3E"/>
<path d="M59.213 12.4175H55.5146V66.7127H59.213V12.4175Z" fill="#0A6B3E"/>
<path d="M59.6349 12.4175H55.9365V66.7127H59.6349V12.4175Z" fill="url(#paint24_linear_307_7049)"/>
<path d="M94.4903 24.6792H57.7871V28.1376H94.4903V24.6792Z" fill="#0A6B3E"/>
<path d="M94.4903 24.6792H57.7871V28.1376H94.4903V24.6792Z" fill="url(#paint25_linear_307_7049)"/>
<path d="M94.9708 25.5913H58.2676V29.0497H94.9708V25.5913Z" fill="#0A6B3E"/>
<path d="M94.4903 25.1113H57.7871V29.0497H94.4903V25.1113Z" fill="url(#paint26_linear_307_7049)"/>
<path d="M70.3033 29.7193L59.2129 25.5913V26.4889L70.3033 30.6193V29.7193Z" fill="#0A6B3E"/>
<path d="M70.3033 29.7193L59.2129 25.5913V26.4889L70.3033 30.6193V29.7193Z" fill="url(#paint27_linear_307_7049)"/>
<path d="M94.0201 25.5913H59.2129V25.9513H94.0201V25.5913Z" fill="#0A6B3E"/>
<path d="M94.0201 24.437H59.2129V24.797H94.0201V24.437Z" fill="#0A6B3E"/>
<path d="M59.2126 12.4175H56.9902V66.7127H59.2126V12.4175Z" fill="#0A6B3E"/>
<path d="M59.2126 12.4175H56.9902V66.7127H59.2126V12.4175Z" fill="url(#paint28_linear_307_7049)"/>
<path d="M110.182 30.1274H73.4785V33.4778H110.182V30.1274Z" fill="#0A6B3E"/>
<path d="M110.182 30.6191H73.4785V33.4775H110.182V30.6191Z" fill="url(#paint29_linear_307_7049)"/>
<path d="M110.182 31.1064H73.4785V34.9368H110.182V31.1064Z" fill="#0A6B3E"/>
<path d="M110.182 31.5986H73.4785V34.9202H110.182V31.5986Z" fill="url(#paint30_linear_307_7049)"/>
<path d="M57.511 12.4175H56.9902V66.7127H57.511V12.4175Z" fill="#0A6B3E"/>
<path d="M74.0011 18.019H70.3027V72.8038H74.0011V18.019Z" fill="#0A6B3E"/>
<path d="M74.424 18.019H70.7256V72.8038H74.424V18.019Z" fill="url(#paint31_linear_307_7049)"/>
<path d="M72.3001 18.019H71.7793V72.8038H72.3001V18.019Z" fill="#0A6B3E"/>
<path d="M57.5107 25.8574L70.3027 30.619V34.9198L57.5107 29.3662V25.8574Z" fill="#0A6B3E"/>
<path d="M57.5107 26.4097L70.3027 31.1713V34.9201L57.5107 29.3665V26.4097Z" fill="url(#paint32_linear_307_7049)"/>
<path d="M59.2129 25.5913L70.3033 29.7193V30.2089L59.2129 26.0929V25.5913Z" fill="#0A6B3E"/>
<path d="M31.3323 51.8783C31.6035 52.2215 31.7307 52.6559 31.6875 53.0903C31.6659 53.2799 31.6155 53.4671 31.6059 53.6567C31.5867 53.8487 31.6467 54.0407 31.7739 54.1871C31.8867 54.2951 32.0643 54.3647 32.0907 54.5159C32.1315 54.7247 31.8723 54.8471 31.7187 54.9983C31.5843 55.1663 31.4907 55.3631 31.4475 55.5743C31.3539 55.8815 31.2243 56.1791 31.0635 56.4599C30.9243 56.7551 30.6843 56.9903 30.3867 57.1223C30.1779 57.1967 29.9235 57.1775 29.7243 57.2927C29.2563 57.5615 29.3667 58.3367 28.9347 58.6679C28.8099 58.7519 28.6659 58.8023 28.5171 58.8191C28.1739 58.8719 27.8235 58.8239 27.5067 58.6823C27.3651 58.6271 27.2403 58.5311 27.1515 58.4063C27.0675 58.2383 27.0387 58.0487 27.0651 57.8615C27.1011 57.2351 27.1851 56.5967 27.1659 55.9655C27.1563 55.6271 27.1155 55.2887 27.1203 54.9503C27.1299 53.9351 27.5883 52.9775 28.3731 52.3319C29.1747 51.6983 30.2499 51.5279 31.2075 51.8807L31.0227 51.6719" fill="#FFB4A3"/>
<path d="M27.9893 53.5993C27.6965 53.6761 27.5141 53.9665 27.5717 54.2617C27.6461 54.5497 27.9005 54.7537 28.1981 54.7657L27.5333 56.0449C27.4781 56.1529 27.3821 56.2825 27.2645 56.2537C27.1469 56.2249 27.1157 56.0617 27.0941 55.9345C27.0221 55.5313 26.7053 55.2241 26.5277 54.8569C26.2637 54.3217 26.3189 53.6905 26.3645 53.0953C26.4125 52.5649 26.4677 52.0105 26.7557 51.5617C26.9237 51.3193 27.1325 51.1081 27.3701 50.9353C27.7685 50.5969 28.2485 50.3737 28.7621 50.2873C29.1965 50.2561 29.6309 50.3113 30.0437 50.4457C30.4589 50.5345 30.8477 50.7145 31.1837 50.9737C31.5197 51.2425 31.6709 51.6841 31.5677 52.1017C30.9413 52.1857 29.7245 52.1017 29.2349 52.5577C28.8173 52.9513 29.1005 53.8105 28.5605 54.0793C28.5389 53.7193 28.2941 53.6425 27.9941 53.5969H27.9893V53.5993Z" fill="#231F20"/>
<path d="M33.3338 51.3599C33.1418 51.2447 32.2898 50.8895 32.0954 50.7743C32.057 50.0975 31.3298 49.2167 30.3314 48.8423C29.585 48.5735 28.049 48.5735 26.8298 49.4879C25.4474 50.5319 25.6394 52.2791 25.625 52.7375C25.6178 53.0591 25.8698 53.3255 26.1914 53.3351C26.2754 53.3351 26.3594 53.3207 26.4386 53.2871C26.8082 53.1191 27.1874 52.9751 27.5738 52.8527L29.2418 52.4351C30.4202 52.1231 32.1482 51.6671 33.3314 51.3623H33.3338V51.3599Z" fill="#0A6B3E"/>
<path d="M33.077 51.2496L28.1426 52.5264L29.7722 51.66L30.2186 51.4248L30.9722 51.1632L31.8218 50.8704L32.0954 50.7744L33.077 51.2496Z" fill="url(#paint33_linear_307_7049)"/>
<path d="M28.1428 52.6919L26.6692 55.4039L26.3308 54.5783L26.7964 53.7623L26.2588 53.3735L26.83 53.1143L27.202 53.4119L27.3532 52.9199L28.1428 52.6919Z" fill="#231F20"/>
<path d="M25.8312 53.1911C25.8312 53.1911 26.064 53.2511 26.6664 52.9823C27.1488 52.7879 27.6456 52.6319 28.152 52.5191L30.2256 51.4175C30.2256 51.4175 27.588 50.0903 26.0328 51.5951C26.0256 51.5999 25.4184 52.4327 25.8336 53.1911H25.8312Z" fill="#0A6B3E"/>
<path d="M25.7998 51.0048C25.7998 51.0048 26.9278 49.0656 28.7374 49.0728C29.5918 49.08 30.4126 49.3896 31.0606 49.9464C31.0606 49.9464 27.9526 47.9904 25.7998 51.0048Z" fill="url(#paint34_linear_307_7049)"/>
<path d="M25.7592 53.0277C25.7592 53.0277 25.7808 53.3253 26.2776 53.1309C26.7768 52.9365 28.2792 52.5045 28.2792 52.5045L28.9728 52.0869C28.9728 52.0869 26.0328 53.2149 25.7568 53.0253H25.7592V53.0277Z" fill="url(#paint35_linear_307_7049)"/>
<path d="M26.561 99.7607C29.9666 93.2375 32.0114 86.0903 32.5682 78.7535C32.6186 78.0863 32.645 77.3686 32.2922 76.7974C31.6178 75.703 30.0314 75.7679 28.7642 75.9623C28.1882 76.0535 27.5378 76.1975 27.2498 76.7039C27.041 77.0783 24.845 78.4295 25.0442 78.8087C26.5058 81.5639 27.0962 85.0991 26.3666 88.7735C25.649 92.3903 24.3602 95.0615 23.8418 98.6711C24.137 98.6951 26.4482 99.9719 26.561 99.7583V99.7607Z" fill="#231F20"/>
<path d="M40.8334 62.6808C40.6246 64.0944 40.0438 65.4984 38.9734 66.4368C37.903 67.3752 36.3046 67.7928 34.987 67.236C33.607 66.6528 32.8222 65.22 32.1406 63.8976C32.1262 67.2504 33.4726 70.5744 33.0046 73.8864C32.971 74.3712 32.7958 74.8344 32.5054 75.2232C32.1454 75.6408 31.591 75.8136 31.063 75.96C29.2198 76.4616 27.3334 76.7952 25.4302 76.956C25.2454 76.9704 25.0654 76.9872 24.8806 76.9968C24.6598 75.9024 24.5686 74.4792 24.5518 72.7416V72.216C24.5518 70.8216 24.5854 69.2448 24.6382 67.4976V66.9912C24.6382 66.8928 24.6382 66.7416 24.6502 66.5736V65.5584C24.6862 64.4736 24.7222 63.3312 24.7534 62.1336C24.7534 61.98 24.7534 61.8264 24.763 61.6704C24.7678 61.2456 24.8182 60.8208 24.9142 60.4056C25.063 59.7144 25.4734 59.1096 26.059 58.716C26.4982 58.428 26.971 58.2 27.4702 58.0368C29.4646 57.3384 31.8382 57.756 33.2638 59.2584C33.5086 59.52 33.7294 59.8032 33.9214 60.108C34.2382 60.5928 34.5022 61.1088 34.7758 61.6224C35.0518 62.1696 35.3734 62.6904 35.7382 63.18C36.067 63.5976 36.547 63.996 37.0678 63.9048C37.8142 63.7704 38.0182 62.8104 38.0278 62.0592C38.0422 60.8112 37.9726 59.5608 37.819 58.3224C38.7742 58.236 39.7342 58.2696 40.6798 58.4256C40.7974 59.1912 40.8766 59.9616 40.915 60.7344C40.9462 61.3848 40.9198 62.0376 40.8334 62.6856V62.6808Z" fill="#0A6B3E"/>
<path d="M28.8771 68.743C28.3179 69.655 27.5571 70.4254 26.7915 71.1622C26.4315 71.5054 26.6403 75.6574 26.2683 75.9934C26.1315 76.1134 25.8003 76.5238 25.4331 76.9534C25.2483 76.9678 25.0683 76.9846 24.8835 76.9942C24.6627 75.8998 24.5715 74.4766 24.5547 72.739V72.2134C24.5547 70.819 24.5883 69.2422 24.6411 67.495V66.9886C24.6411 66.8902 24.6411 66.739 24.6531 66.571V65.5558C24.9147 65.3278 25.1043 66.283 25.1523 66.4078C25.1691 66.4486 25.1907 66.487 25.2219 66.5206C25.2651 66.5542 25.3179 66.571 25.3731 66.5638C25.6203 66.523 25.8459 66.391 25.9995 66.1918C26.4075 65.7838 26.7963 65.3566 27.1659 64.9102L29.6331 65.695C29.7939 66.7558 29.4435 67.8286 28.8819 68.7406H28.8771V68.743Z" fill="url(#paint36_linear_307_7049)"/>
<path d="M29.3327 65.6306C28.6079 68.6018 26.4527 71.4722 24.5519 72.2162C23.7743 72.5186 23.0399 72.4658 22.4663 71.9186C21.4223 70.985 21.2135 67.5362 21.5327 63.6722C21.5687 63.1946 21.6647 62.7242 21.8207 62.273C22.0415 61.6562 22.3799 61.085 22.8119 60.5906C23.7023 59.6306 24.8519 58.949 26.1215 58.625L26.1023 58.709L25.7639 60.353L25.4063 62.081L24.6911 65.5538L24.2735 67.5554C24.2735 67.7834 24.4127 67.7234 24.6263 67.4978C25.2215 66.8714 26.4071 64.9586 26.9063 64.5602C26.9207 64.5482 26.9351 64.5362 26.9471 64.5218L29.3303 65.6306H29.3327Z" fill="#0A6B3E"/>
<path d="M34.776 61.6201C34.7064 61.6345 34.6344 61.6441 34.5672 61.6537C33.036 61.8361 31.4904 61.7737 29.9496 61.8073C28.4088 61.8409 26.9208 61.9657 25.4064 62.0785L24.7944 62.1265C23.8056 62.1937 22.812 62.2513 21.8184 62.2705C22.0392 61.6537 22.3776 61.0825 22.8096 60.5881C22.956 60.5545 23.1048 60.5329 23.2536 60.5209C23.82 60.4753 24.3864 60.4321 24.9552 60.3985C25.224 60.3793 25.4928 60.3649 25.7616 60.3505C27.564 60.2473 29.364 60.1825 31.1664 60.1177C32.0856 60.0865 33.0024 60.0553 33.9192 60.1057C34.2384 60.5905 34.5024 61.1065 34.776 61.6201Z" fill="url(#paint37_linear_307_7049)"/>
<path d="M30.6334 87.2304C32.8918 90.1776 35.0254 93.4896 35.2246 97.188C35.263 97.8528 35.3374 98.6808 35.959 98.9208C36.2566 99.0024 36.5734 98.9976 36.8686 98.9064L39.163 98.4336L37.7326 92.0352C37.3726 90.42 37.0078 88.7904 36.3286 87.2832C35.851 86.2248 35.2246 85.2408 34.7086 84.1968C33.4078 81.564 32.8534 78.636 32.311 75.7488C29.6254 75.924 23.527 74.7288 25.0462 78.8232C26.251 82.0896 28.915 84.3096 30.631 87.2328H30.6334V87.2304Z" fill="#231F20"/>
<path d="M36.7512 99.7919C36.792 99.9407 36.864 100.078 36.96 100.2C37.1616 100.394 37.4472 100.474 37.7184 100.409C37.9848 100.344 38.2392 100.231 38.4696 100.082C38.5992 100.022 38.7096 99.9287 38.7888 99.8111C38.8656 99.6071 38.8584 99.3839 38.7672 99.1847L38.3904 97.9895C38.3784 97.9175 38.3352 97.8527 38.2728 97.8143C38.1912 97.7975 38.1048 97.8215 38.0424 97.8791C37.6248 98.1575 36.9984 98.1911 36.6144 98.4671C36.2304 98.7431 36.6 99.3791 36.7488 99.7943H36.7512V99.7919Z" fill="#231F20"/>
<path d="M24.0029 100.358C24.3773 100.606 24.7925 100.786 25.2269 100.894C25.2941 100.915 25.3685 100.915 25.4357 100.894C25.5365 100.858 25.5821 100.745 25.6157 100.646L26.1557 99.0985C26.0909 99.2857 24.9989 98.3401 24.7397 98.4361C24.2573 98.6257 24.0965 99.9265 24.0029 100.361V100.358Z" fill="#231F20"/>
<path d="M38.2897 99.2522C38.5225 99.1682 38.7673 99.1178 39.0169 99.101C39.7105 99.0842 40.3753 99.5954 41.0521 99.437C41.2273 99.377 41.4049 99.3242 41.5873 99.2858C42.0313 99.269 42.4225 99.581 42.5041 100.018C42.5689 100.45 42.4297 100.887 42.1273 101.199C41.8249 101.503 41.4649 101.748 41.0689 101.919C40.2553 102.317 39.3841 102.586 38.4889 102.711C38.2633 102.756 38.0305 102.742 37.8097 102.672C37.6297 102.591 37.4737 102.468 37.3537 102.312C36.9193 101.815 36.4273 100.944 36.5041 100.251C36.5857 99.5186 37.7113 99.4298 38.2945 99.2522H38.2897Z" fill="#231F20"/>
<path d="M25.8866 100.569C25.985 100.598 26.0762 100.644 26.1578 100.706C26.249 100.807 26.3138 100.929 26.3498 101.061C26.585 101.685 26.993 102.23 27.5234 102.633C27.7442 102.77 27.9386 102.945 28.0946 103.152C28.2506 103.37 28.2194 103.67 28.0202 103.848C27.9002 103.915 27.7634 103.944 27.6266 103.932C27.173 103.92 26.7242 103.874 26.2778 103.8C25.0658 103.625 23.7746 103.413 22.865 102.595C22.6154 102.401 22.4474 102.122 22.3946 101.81C22.3562 101.414 22.6034 101.1 22.8122 100.793C22.9634 100.567 23.1554 100.065 23.393 99.9167C23.9258 99.5903 25.349 100.385 25.8914 100.572H25.8866V100.569Z" fill="#231F20"/>
<path d="M52.5382 56.2271C52.5382 56.2271 52.5238 56.455 52.5046 56.803C52.4422 57.8926 52.3102 60.1535 52.2958 60.1943C52.2814 60.2351 2.26062 62.4095 2.26062 62.4095L2.05182 59.4886L1.99902 58.9222L4.91982 58.8958L52.5358 56.2271H52.5382Z" fill="#0A6B3E"/>
<path d="M52.5046 56.8032C52.4422 57.8928 52.3102 60.1536 52.2958 60.1944C52.2814 60.2352 2.26056 62.4096 2.26056 62.4096L2.05176 59.4888L4.91976 59.4648L52.5022 56.8032H52.5046Z" fill="url(#paint38_linear_307_7049)"/>
<path d="M52.5382 57.6289C52.5382 57.6289 52.5238 57.8569 52.5046 58.2049C52.4422 59.2969 52.3102 61.5577 52.2958 61.5961C52.2814 61.6345 2.26062 63.8065 2.26062 63.8065L2.05182 60.8857L1.99902 60.3265L4.91982 60.3001L52.5358 57.6313L52.5382 57.6289Z" fill="#0A6B3E"/>
<path d="M52.5046 58.2046C52.4422 59.2966 52.3102 61.5574 52.2958 61.5958C52.2814 61.6342 2.26056 63.8062 2.26056 63.8062L2.05176 60.8854L4.91976 60.871L52.5022 58.207L52.5046 58.2046Z" fill="url(#paint39_linear_307_7049)"/>
<path d="M28.7885 65.2634C29.3165 64.625 29.5229 63.9842 29.7677 63.1922C29.8397 62.9546 29.6093 62.945 29.3357 63.5954C29.4053 63.1346 29.5445 62.3906 29.5445 62.213C29.2997 61.9874 29.2469 62.3978 29.1773 62.5658C29.0693 62.7866 28.9733 63.0122 28.8869 63.245C28.9277 62.849 28.9253 62.6618 28.9661 62.2658C28.9661 62.1938 28.9661 62.093 28.8941 62.0762C28.5197 62.1506 28.6661 63.0266 28.3325 63.3602C28.3877 62.9954 28.4429 62.1314 28.3325 62.1866C28.1237 62.1866 28.0229 62.453 27.9869 62.6642L27.7781 63.8474C27.6605 63.8114 27.6389 63.6626 27.6101 63.5426C27.5813 63.4226 27.4541 63.293 27.3557 63.365C27.3245 63.3938 27.3029 63.4322 27.2981 63.473C27.2885 63.6218 27.2981 63.773 27.3317 63.9194C27.3581 64.2074 27.2573 64.4954 27.0557 64.7042C27.6077 64.9634 28.1909 65.153 28.7909 65.2658H28.7885V65.2634Z" fill="#FFB4A3"/>
<path d="M38.4982 56.5944C38.3878 56.7288 38.3038 56.8824 38.251 57.048C38.191 57.1752 38.1598 57.312 38.1622 57.4536C38.1622 57.5976 38.2558 57.7224 38.3926 57.7704C38.4286 57.7824 38.467 57.78 38.4982 57.7608C38.5198 57.744 38.5366 57.72 38.5486 57.6936C38.6614 57.48 38.7574 57.2568 38.8366 57.0288C38.6638 57.2448 38.6278 57.5424 38.7478 57.7944C38.7886 57.8808 38.8702 57.9624 38.9566 57.9432C39.043 57.924 39.0766 57.8304 39.0982 57.7488C39.1534 57.5568 39.1966 57.3624 39.2326 57.168C39.2038 57.2928 39.1846 57.42 39.1774 57.5472C39.1702 57.612 39.1774 57.6792 39.2014 57.7416C39.2278 57.804 39.2902 57.8448 39.3574 57.84C39.4126 57.8232 39.4606 57.7872 39.4918 57.7368C39.6406 57.5448 39.763 57.3336 39.8566 57.1104C39.811 57.3168 39.8206 57.5328 39.8806 57.7368C39.8902 57.768 39.907 57.7968 39.9334 57.816C40.0198 57.8808 40.1422 57.7848 40.1926 57.6936C40.303 57.5208 40.3846 57.3288 40.435 57.1296C40.4686 57.024 40.4758 56.9136 40.4566 56.8032C40.435 56.6904 40.3558 56.5992 40.2478 56.5632C40.1374 56.5344 40.027 56.5992 39.9958 56.7096C40.015 56.5704 39.859 56.4576 39.7174 56.472C39.5782 56.5008 39.4558 56.5824 39.3766 56.7C39.3646 56.5656 39.259 56.46 39.1246 56.4504C38.8798 56.4264 38.7022 56.3736 38.503 56.5968H38.4982V56.5944Z" fill="#FFB4A3"/>
<path d="M40.8334 62.6806C40.6246 64.0942 40.0438 65.4982 38.9734 66.4366C37.903 67.375 36.3046 67.7926 34.987 67.2358C33.607 66.6526 32.8222 65.2198 32.1406 63.8974C32.1406 63.8974 32.2222 62.7142 33.079 63.4198C33.9358 64.1254 35.2078 68.3998 37.8334 65.9038C40.4614 63.4054 40.471 60.7414 40.471 60.7414L40.9198 60.7222C40.951 61.3774 40.9198 62.0326 40.8334 62.6806Z" fill="url(#paint40_linear_307_7049)"/>
<defs>
<linearGradient id="paint0_linear_307_7049" x1="101.782" y1="63.8114" x2="72.1803" y2="64.8002" gradientUnits="userSpaceOnUse">
<stop stop-color="#231F20" stop-opacity="0"/>
<stop offset="1" stop-color="#231F20"/>
</linearGradient>
<linearGradient id="paint1_linear_307_7049" x1="104.679" y1="47.705" x2="103.546" y2="67.8074" gradientUnits="userSpaceOnUse">
<stop stop-color="#231F20" stop-opacity="0"/>
<stop offset="1" stop-color="#231F20"/>
</linearGradient>
<linearGradient id="paint2_linear_307_7049" x1="108.571" y1="48.24" x2="90.8473" y2="68.2656" gradientUnits="userSpaceOnUse">
<stop stop-color="#231F20" stop-opacity="0"/>
<stop offset="1" stop-color="#231F20"/>
</linearGradient>
<linearGradient id="paint3_linear_307_7049" x1="112.586" y1="69.2545" x2="102.662" y2="69.6193" gradientUnits="userSpaceOnUse">
<stop stop-color="#231F20" stop-opacity="0"/>
<stop offset="1" stop-color="#231F20"/>
</linearGradient>
<linearGradient id="paint4_linear_307_7049" x1="96.4395" y1="70.8791" x2="110.182" y2="70.8791" gradientUnits="userSpaceOnUse">
<stop stop-color="#231F20" stop-opacity="0"/>
<stop offset="1" stop-color="#231F20"/>
</linearGradient>
<linearGradient id="paint5_linear_307_7049" x1="59.3541" y1="63.3578" x2="49.4637" y2="63.7226" gradientUnits="userSpaceOnUse">
<stop stop-color="#231F20" stop-opacity="0"/>
<stop offset="1" stop-color="#231F20"/>
</linearGradient>
<linearGradient id="paint6_linear_307_7049" x1="77.8103" y1="71.2923" x2="69.4655" y2="54.9987" gradientUnits="userSpaceOnUse">
<stop stop-color="#231F20" stop-opacity="0"/>
<stop offset="1" stop-color="#231F20"/>
</linearGradient>
<linearGradient id="paint7_linear_307_7049" x1="76.7256" y1="64.9107" x2="76.4664" y2="68.1603" gradientUnits="userSpaceOnUse">
<stop stop-color="#231F20" stop-opacity="0"/>
<stop offset="1" stop-color="#231F20"/>
</linearGradient>
<linearGradient id="paint8_linear_307_7049" x1="76.1399" y1="46.2119" x2="76.1399" y2="57.1439" gradientUnits="userSpaceOnUse">
<stop stop-color="#231F20" stop-opacity="0"/>
<stop offset="1" stop-color="#231F20"/>
</linearGradient>
<linearGradient id="paint9_linear_307_7049" x1="76.1399" y1="46.32" x2="76.1399" y2="58.7712" gradientUnits="userSpaceOnUse">
<stop stop-color="#231F20" stop-opacity="0"/>
<stop offset="1" stop-color="#231F20"/>
</linearGradient>
<linearGradient id="paint10_linear_307_7049" x1="65.0161" y1="50.4168" x2="63.8953" y2="57.0912" gradientUnits="userSpaceOnUse">
<stop stop-color="#231F20" stop-opacity="0"/>
<stop offset="1" stop-color="#231F20"/>
</linearGradient>
<linearGradient id="paint11_linear_307_7049" x1="56.6206" y1="63.4322" x2="62.563" y2="63.365" gradientUnits="userSpaceOnUse">
<stop stop-color="#231F20" stop-opacity="0"/>
<stop offset="1" stop-color="#231F20"/>
</linearGradient>
<linearGradient id="paint12_linear_307_7049" x1="91.7929" y1="70.3151" x2="91.9417" y2="83.4887" gradientUnits="userSpaceOnUse">
<stop stop-color="#231F20" stop-opacity="0"/>
<stop offset="1" stop-color="#231F20"/>
</linearGradient>
<linearGradient id="paint13_linear_307_7049" x1="65.4934" y1="66.1921" x2="64.399" y2="79.8073" gradientUnits="userSpaceOnUse">
<stop stop-color="#231F20" stop-opacity="0"/>
<stop offset="1" stop-color="#231F20"/>
</linearGradient>
<linearGradient id="paint14_linear_307_7049" x1="65.467" y1="66.7463" x2="64.4446" y2="79.4951" gradientUnits="userSpaceOnUse">
<stop stop-color="#231F20" stop-opacity="0"/>
<stop offset="1" stop-color="#231F20"/>
</linearGradient>
<linearGradient id="paint15_linear_307_7049" x1="91.9441" y1="51.8139" x2="91.4857" y2="68.1147" gradientUnits="userSpaceOnUse">
<stop stop-color="#231F20" stop-opacity="0"/>
<stop offset="1" stop-color="#231F20"/>
</linearGradient>
<linearGradient id="paint16_linear_307_7049" x1="91.9585" y1="52.5385" x2="91.4449" y2="70.7785" gradientUnits="userSpaceOnUse">
<stop stop-color="#231F20" stop-opacity="0"/>
<stop offset="1" stop-color="#231F20"/>
</linearGradient>
<linearGradient id="paint17_linear_307_7049" x1="63.8206" y1="66.2929" x2="63.3574" y2="72.0721" gradientUnits="userSpaceOnUse">
<stop stop-color="#231F20" stop-opacity="0"/>
<stop offset="1" stop-color="#231F20"/>
</linearGradient>
<linearGradient id="paint18_linear_307_7049" x1="74.148" y1="69.2042" x2="64.224" y2="69.569" gradientUnits="userSpaceOnUse">
<stop stop-color="#231F20" stop-opacity="0"/>
<stop offset="1" stop-color="#231F20"/>
</linearGradient>
<linearGradient id="paint19_linear_307_7049" x1="64.4323" y1="50.7839" x2="62.7043" y2="63.0575" gradientUnits="userSpaceOnUse">
<stop stop-color="#231F20" stop-opacity="0"/>
<stop offset="1" stop-color="#231F20"/>
</linearGradient>
<linearGradient id="paint20_linear_307_7049" x1="101.782" y1="39.9599" x2="72.1803" y2="40.9462" gradientUnits="userSpaceOnUse">
<stop stop-color="#231F20" stop-opacity="0"/>
<stop offset="1" stop-color="#231F20"/>
</linearGradient>
<linearGradient id="paint21_linear_307_7049" x1="104.679" y1="23.8514" x2="103.546" y2="43.9538" gradientUnits="userSpaceOnUse">
<stop stop-color="#231F20" stop-opacity="0"/>
<stop offset="1" stop-color="#231F20"/>
</linearGradient>
<linearGradient id="paint22_linear_307_7049" x1="108.576" y1="24.3889" x2="90.8497" y2="44.4169" gradientUnits="userSpaceOnUse">
<stop stop-color="#231F20" stop-opacity="0"/>
<stop offset="1" stop-color="#231F20"/>
</linearGradient>
<linearGradient id="paint23_linear_307_7049" x1="112.586" y1="45.4034" x2="102.662" y2="45.7682" gradientUnits="userSpaceOnUse">
<stop stop-color="#231F20" stop-opacity="0"/>
<stop offset="1" stop-color="#231F20"/>
</linearGradient>
<linearGradient id="paint24_linear_307_7049" x1="59.3541" y1="39.5063" x2="49.4637" y2="39.8711" gradientUnits="userSpaceOnUse">
<stop stop-color="#231F20" stop-opacity="0"/>
<stop offset="1" stop-color="#231F20"/>
</linearGradient>
<linearGradient id="paint25_linear_307_7049" x1="76.1399" y1="22.3608" x2="76.1399" y2="33.2904" gradientUnits="userSpaceOnUse">
<stop stop-color="#231F20" stop-opacity="0"/>
<stop offset="1" stop-color="#231F20"/>
</linearGradient>
<linearGradient id="paint26_linear_307_7049" x1="76.1399" y1="22.4689" x2="76.1399" y2="34.9177" gradientUnits="userSpaceOnUse">
<stop stop-color="#231F20" stop-opacity="0"/>
<stop offset="1" stop-color="#231F20"/>
</linearGradient>
<linearGradient id="paint27_linear_307_7049" x1="65.0161" y1="26.5657" x2="63.8953" y2="33.2401" gradientUnits="userSpaceOnUse">
<stop stop-color="#231F20" stop-opacity="0"/>
<stop offset="1" stop-color="#231F20"/>
</linearGradient>
<linearGradient id="paint28_linear_307_7049" x1="56.6206" y1="39.5807" x2="62.563" y2="39.5135" gradientUnits="userSpaceOnUse">
<stop stop-color="#231F20" stop-opacity="0"/>
<stop offset="1" stop-color="#231F20"/>
</linearGradient>
<linearGradient id="paint29_linear_307_7049" x1="91.9441" y1="27.9599" x2="91.4857" y2="44.2631" gradientUnits="userSpaceOnUse">
<stop stop-color="#231F20" stop-opacity="0"/>
<stop offset="1" stop-color="#231F20"/>
</linearGradient>
<linearGradient id="paint30_linear_307_7049" x1="91.9585" y1="28.685" x2="91.4449" y2="46.925" gradientUnits="userSpaceOnUse">
<stop stop-color="#231F20" stop-opacity="0"/>
<stop offset="1" stop-color="#231F20"/>
</linearGradient>
<linearGradient id="paint31_linear_307_7049" x1="74.148" y1="45.3526" x2="64.224" y2="45.7174" gradientUnits="userSpaceOnUse">
<stop stop-color="#231F20" stop-opacity="0"/>
<stop offset="1" stop-color="#231F20"/>
</linearGradient>
<linearGradient id="paint32_linear_307_7049" x1="64.4323" y1="26.9305" x2="62.7043" y2="39.2065" gradientUnits="userSpaceOnUse">
<stop stop-color="#231F20" stop-opacity="0"/>
<stop offset="1" stop-color="#231F20"/>
</linearGradient>
<linearGradient id="paint33_linear_307_7049" x1="30.1922" y1="51.228" x2="31.0298" y2="52.5504" gradientUnits="userSpaceOnUse">
<stop stop-color="#231F20" stop-opacity="0"/>
<stop offset="1" stop-color="#231F20"/>
</linearGradient>
<linearGradient id="paint34_linear_307_7049" x1="28.3846" y1="47.6232" x2="28.5526" y2="58.032" gradientUnits="userSpaceOnUse">
<stop stop-color="#231F20" stop-opacity="0"/>
<stop offset="1" stop-color="#231F20"/>
</linearGradient>
<linearGradient id="paint35_linear_307_7049" x1="27.3432" y1="51.2877" x2="27.4392" y2="57.1629" gradientUnits="userSpaceOnUse">
<stop stop-color="#231F20" stop-opacity="0"/>
<stop offset="1" stop-color="#231F20"/>
</linearGradient>
<linearGradient id="paint36_linear_307_7049" x1="30.2187" y1="70.3486" x2="9.16828" y2="73.4854" gradientUnits="userSpaceOnUse">
<stop stop-color="#231F20" stop-opacity="0"/>
<stop offset="1" stop-color="#231F20"/>
</linearGradient>
<linearGradient id="paint37_linear_307_7049" x1="27.864" y1="59.9785" x2="30.3216" y2="71.1625" gradientUnits="userSpaceOnUse">
<stop stop-color="#231F20" stop-opacity="0"/>
<stop offset="1" stop-color="#231F20"/>
</linearGradient>
<linearGradient id="paint38_linear_307_7049" x1="27.199" y1="57.7056" x2="27.8902" y2="64.8504" gradientUnits="userSpaceOnUse">
<stop stop-color="#231F20" stop-opacity="0"/>
<stop offset="1" stop-color="#231F20"/>
</linearGradient>
<linearGradient id="paint39_linear_307_7049" x1="27.199" y1="59.107" x2="27.8926" y2="66.2494" gradientUnits="userSpaceOnUse">
<stop stop-color="#231F20" stop-opacity="0"/>
<stop offset="1" stop-color="#231F20"/>
</linearGradient>
<linearGradient id="paint40_linear_307_7049" x1="36.4966" y1="61.615" x2="37.387" y2="79.6246" gradientUnits="userSpaceOnUse">
<stop stop-opacity="0"/>
<stop offset="0.49" stop-opacity="0.49"/>
<stop offset="0.97"/>
</linearGradient>
</defs>
</svg>
